<?xml version="1.0" encoding="utf-8" standalone="no"?>
<!DOCTYPE svg PUBLIC "-//W3C//DTD SVG 1.1//EN"
  "http://www.w3.org/Graphics/SVG/1.1/DTD/svg11.dtd">
<!-- Created with matplotlib (https://matplotlib.org/) -->
<svg height="312.65575pt" version="1.1" viewBox="0 0 414.0825 312.65575" width="414.0825pt" xmlns="http://www.w3.org/2000/svg" xmlns:xlink="http://www.w3.org/1999/xlink">
 <defs>
  <style type="text/css">
*{stroke-linecap:butt;stroke-linejoin:round;}
  </style>
 </defs>
 <g id="figure_1">
  <g id="patch_1">
   <path d="M 0 312.65575 
L 414.0825 312.65575 
L 414.0825 0 
L 0 0 
z
" style="fill:#ffffff;"/>
  </g>
  <g id="axes_1">
   <g id="patch_2">
    <path d="M 49.7625 273.312 
L 406.8825 273.312 
L 406.8825 7.2 
L 49.7625 7.2 
z
" style="fill:#ffffff;"/>
   </g>
   <g id="matplotlib.axis_1">
    <g id="xtick_1">
     <g id="line2d_1">
      <defs>
       <path d="M 0 0 
L 0 6 
" id="ma401f9fe5b" style="stroke:#262626;stroke-width:0.8;"/>
      </defs>
      <g>
       <use style="fill:#262626;stroke:#262626;stroke-width:0.8;" x="65.995227" xlink:href="#ma401f9fe5b" y="273.312"/>
      </g>
     </g>
     <g id="text_1">
      <!-- 0 -->
      <defs>
       <path d="M 51.703125 34.421875 
Q 51.703125 24.515625 49.828125 17.75 
Q 47.953125 10.984375 44.703125 6.8125 
Q 41.453125 2.640625 37.0625 0.828125 
Q 32.671875 -0.984375 27.6875 -0.984375 
Q 22.65625 -0.984375 18.3125 0.828125 
Q 13.96875 2.640625 10.765625 6.78125 
Q 7.5625 10.9375 5.734375 17.703125 
Q 3.90625 24.46875 3.90625 34.421875 
Q 3.90625 44.828125 5.734375 51.640625 
Q 7.5625 58.453125 10.78125 62.5 
Q 14.015625 66.546875 18.40625 68.1875 
Q 22.796875 69.828125 27.984375 69.828125 
Q 32.90625 69.828125 37.21875 68.1875 
Q 41.546875 66.546875 44.765625 62.5 
Q 48 58.453125 49.84375 51.640625 
Q 51.703125 44.828125 51.703125 34.421875 
z
M 42.78125 34.421875 
Q 42.78125 42.625 41.796875 48.0625 
Q 40.828125 53.515625 38.921875 56.765625 
Q 37.015625 60.015625 34.25 61.359375 
Q 31.5 62.703125 27.984375 62.703125 
Q 24.265625 62.703125 21.4375 61.328125 
Q 18.609375 59.96875 16.671875 56.71875 
Q 14.75 53.46875 13.765625 48.015625 
Q 12.796875 42.578125 12.796875 34.421875 
Q 12.796875 26.515625 13.796875 21.09375 
Q 14.796875 15.671875 16.71875 12.375 
Q 18.65625 9.078125 21.4375 7.640625 
Q 24.21875 6.203125 27.78125 6.203125 
Q 31.25 6.203125 34.03125 7.640625 
Q 36.8125 9.078125 38.734375 12.375 
Q 40.671875 15.671875 41.71875 21.09375 
Q 42.78125 26.515625 42.78125 34.421875 
z
" id="LiberationSans-48"/>
      </defs>
      <g style="fill:#262626;" transform="translate(63.214759 290.058875)scale(0.1 -0.1)">
       <use xlink:href="#LiberationSans-48"/>
      </g>
     </g>
    </g>
    <g id="xtick_2">
     <g id="line2d_2">
      <g>
       <use style="fill:#262626;stroke:#262626;stroke-width:0.8;" x="130.991132" xlink:href="#ma401f9fe5b" y="273.312"/>
      </g>
     </g>
     <g id="text_2">
      <!-- 200 -->
      <defs>
       <path d="M 5.03125 0 
L 5.03125 6.203125 
Q 7.515625 11.921875 11.109375 16.28125 
Q 14.703125 20.65625 18.65625 24.1875 
Q 22.609375 27.734375 26.484375 30.765625 
Q 30.375 33.796875 33.5 36.8125 
Q 36.625 39.84375 38.546875 43.15625 
Q 40.484375 46.484375 40.484375 50.6875 
Q 40.484375 53.609375 39.59375 55.828125 
Q 38.71875 58.0625 37.0625 59.5625 
Q 35.40625 61.078125 33.078125 61.828125 
Q 30.765625 62.59375 27.9375 62.59375 
Q 25.296875 62.59375 22.96875 61.859375 
Q 20.65625 61.140625 18.84375 59.671875 
Q 17.046875 58.203125 15.890625 56.03125 
Q 14.75 53.859375 14.40625 50.984375 
L 5.421875 51.8125 
Q 5.859375 55.515625 7.46875 58.78125 
Q 9.078125 62.0625 11.90625 64.53125 
Q 14.75 67 18.71875 68.40625 
Q 22.703125 69.828125 27.9375 69.828125 
Q 33.0625 69.828125 37.0625 68.609375 
Q 41.0625 67.390625 43.8125 64.984375 
Q 46.578125 62.59375 48.046875 59.078125 
Q 49.515625 55.5625 49.515625 50.984375 
Q 49.515625 47.515625 48.265625 44.390625 
Q 47.015625 41.265625 44.9375 38.421875 
Q 42.875 35.59375 40.140625 32.953125 
Q 37.40625 30.328125 34.421875 27.8125 
Q 31.453125 25.296875 28.421875 22.828125 
Q 25.390625 20.359375 22.71875 17.859375 
Q 20.0625 15.375 17.96875 12.8125 
Q 15.875 10.25 14.703125 7.46875 
L 50.59375 7.46875 
L 50.59375 0 
z
" id="LiberationSans-50"/>
      </defs>
      <g style="fill:#262626;" transform="translate(122.649726 290.058875)scale(0.1 -0.1)">
       <use xlink:href="#LiberationSans-50"/>
       <use x="55.615234" xlink:href="#LiberationSans-48"/>
       <use x="111.230469" xlink:href="#LiberationSans-48"/>
      </g>
     </g>
    </g>
    <g id="xtick_3">
     <g id="line2d_3">
      <g>
       <use style="fill:#262626;stroke:#262626;stroke-width:0.8;" x="195.987037" xlink:href="#ma401f9fe5b" y="273.312"/>
      </g>
     </g>
     <g id="text_3">
      <!-- 400 -->
      <defs>
       <path d="M 43.015625 15.578125 
L 43.015625 0 
L 34.71875 0 
L 34.71875 15.578125 
L 2.296875 15.578125 
L 2.296875 22.40625 
L 33.796875 68.796875 
L 43.015625 68.796875 
L 43.015625 22.515625 
L 52.6875 22.515625 
L 52.6875 15.578125 
z
M 34.71875 58.890625 
Q 34.625 58.640625 34.234375 57.9375 
Q 33.84375 57.234375 33.34375 56.34375 
Q 32.859375 55.46875 32.34375 54.5625 
Q 31.84375 53.65625 31.453125 53.078125 
L 13.8125 27.09375 
Q 13.578125 26.703125 13.109375 26.0625 
Q 12.640625 25.4375 12.15625 24.78125 
Q 11.671875 24.125 11.171875 23.484375 
Q 10.6875 22.859375 10.40625 22.515625 
L 34.71875 22.515625 
z
" id="LiberationSans-52"/>
      </defs>
      <g style="fill:#262626;" transform="translate(187.645631 290.058875)scale(0.1 -0.1)">
       <use xlink:href="#LiberationSans-52"/>
       <use x="55.615234" xlink:href="#LiberationSans-48"/>
       <use x="111.230469" xlink:href="#LiberationSans-48"/>
      </g>
     </g>
    </g>
    <g id="xtick_4">
     <g id="line2d_4">
      <g>
       <use style="fill:#262626;stroke:#262626;stroke-width:0.8;" x="260.982942" xlink:href="#ma401f9fe5b" y="273.312"/>
      </g>
     </g>
     <g id="text_4">
      <!-- 600 -->
      <defs>
       <path d="M 51.21875 22.515625 
Q 51.21875 17.328125 49.78125 13 
Q 48.34375 8.6875 45.53125 5.578125 
Q 42.71875 2.484375 38.5625 0.75 
Q 34.421875 -0.984375 29 -0.984375 
Q 23 -0.984375 18.5 1.3125 
Q 14.015625 3.609375 11.03125 7.921875 
Q 8.0625 12.25 6.5625 18.53125 
Q 5.078125 24.8125 5.078125 32.8125 
Q 5.078125 42 6.765625 48.921875 
Q 8.453125 55.859375 11.625 60.5 
Q 14.796875 65.140625 19.359375 67.484375 
Q 23.921875 69.828125 29.6875 69.828125 
Q 33.203125 69.828125 36.28125 69.09375 
Q 39.359375 68.359375 41.875 66.71875 
Q 44.390625 65.09375 46.28125 62.40625 
Q 48.1875 59.71875 49.3125 55.8125 
L 40.921875 54.296875 
Q 39.546875 58.734375 36.546875 60.71875 
Q 33.546875 62.703125 29.59375 62.703125 
Q 25.984375 62.703125 23.046875 60.984375 
Q 20.125 59.28125 18.0625 55.875 
Q 16.015625 52.484375 14.90625 47.359375 
Q 13.8125 42.234375 13.8125 35.40625 
Q 16.21875 39.84375 20.5625 42.15625 
Q 24.90625 44.484375 30.515625 44.484375 
Q 35.203125 44.484375 39.015625 42.96875 
Q 42.828125 41.453125 45.53125 38.59375 
Q 48.25 35.75 49.734375 31.671875 
Q 51.21875 27.59375 51.21875 22.515625 
z
M 42.28125 22.125 
Q 42.28125 25.6875 41.40625 28.5625 
Q 40.53125 31.453125 38.765625 33.46875 
Q 37.015625 35.5 34.421875 36.59375 
Q 31.84375 37.703125 28.421875 37.703125 
Q 26.03125 37.703125 23.578125 36.984375 
Q 21.140625 36.28125 19.15625 34.6875 
Q 17.1875 33.109375 15.9375 30.515625 
Q 14.703125 27.9375 14.703125 24.21875 
Q 14.703125 20.40625 15.671875 17.109375 
Q 16.65625 13.8125 18.484375 11.375 
Q 20.3125 8.9375 22.890625 7.515625 
Q 25.484375 6.109375 28.71875 6.109375 
Q 31.890625 6.109375 34.40625 7.203125 
Q 36.921875 8.296875 38.671875 10.375 
Q 40.4375 12.453125 41.359375 15.421875 
Q 42.28125 18.40625 42.28125 22.125 
z
" id="LiberationSans-54"/>
      </defs>
      <g style="fill:#262626;" transform="translate(252.641536 290.058875)scale(0.1 -0.1)">
       <use xlink:href="#LiberationSans-54"/>
       <use x="55.615234" xlink:href="#LiberationSans-48"/>
       <use x="111.230469" xlink:href="#LiberationSans-48"/>
      </g>
     </g>
    </g>
    <g id="xtick_5">
     <g id="line2d_5">
      <g>
       <use style="fill:#262626;stroke:#262626;stroke-width:0.8;" x="325.978847" xlink:href="#ma401f9fe5b" y="273.312"/>
      </g>
     </g>
     <g id="text_5">
      <!-- 800 -->
      <defs>
       <path d="M 51.265625 19.1875 
Q 51.265625 14.796875 49.875 11.109375 
Q 48.484375 7.421875 45.625 4.734375 
Q 42.78125 2.046875 38.328125 0.53125 
Q 33.890625 -0.984375 27.828125 -0.984375 
Q 21.78125 -0.984375 17.359375 0.53125 
Q 12.9375 2.046875 10.03125 4.703125 
Q 7.125 7.375 5.734375 11.0625 
Q 4.34375 14.75 4.34375 19.09375 
Q 4.34375 22.859375 5.484375 25.78125 
Q 6.640625 28.71875 8.5625 30.828125 
Q 10.5 32.953125 12.96875 34.25 
Q 15.4375 35.546875 18.0625 35.984375 
L 18.0625 36.1875 
Q 15.1875 36.859375 12.90625 38.375 
Q 10.640625 39.890625 9.09375 42.015625 
Q 7.5625 44.140625 6.75 46.71875 
Q 5.953125 49.3125 5.953125 52.203125 
Q 5.953125 55.8125 7.34375 59 
Q 8.734375 62.203125 11.46875 64.625 
Q 14.203125 67.046875 18.25 68.4375 
Q 22.3125 69.828125 27.640625 69.828125 
Q 33.25 69.828125 37.375 68.40625 
Q 41.5 67 44.203125 64.578125 
Q 46.921875 62.15625 48.234375 58.9375 
Q 49.5625 55.71875 49.5625 52.09375 
Q 49.5625 49.265625 48.75 46.671875 
Q 47.953125 44.09375 46.40625 41.96875 
Q 44.875 39.84375 42.59375 38.34375 
Q 40.328125 36.859375 37.359375 36.28125 
L 37.359375 36.078125 
Q 40.328125 35.59375 42.859375 34.296875 
Q 45.40625 33.015625 47.265625 30.890625 
Q 49.125 28.765625 50.1875 25.828125 
Q 51.265625 22.90625 51.265625 19.1875 
z
M 40.4375 51.609375 
Q 40.4375 54.203125 39.765625 56.34375 
Q 39.109375 58.5 37.59375 60.03125 
Q 36.078125 61.578125 33.640625 62.421875 
Q 31.203125 63.28125 27.640625 63.28125 
Q 24.171875 63.28125 21.78125 62.421875 
Q 19.390625 61.578125 17.84375 60.03125 
Q 16.3125 58.5 15.625 56.34375 
Q 14.9375 54.203125 14.9375 51.609375 
Q 14.9375 49.5625 15.46875 47.40625 
Q 16.015625 45.265625 17.421875 43.5 
Q 18.84375 41.75 21.328125 40.625 
Q 23.828125 39.5 27.734375 39.5 
Q 31.890625 39.5 34.40625 40.625 
Q 36.921875 41.75 38.25 43.5 
Q 39.59375 45.265625 40.015625 47.40625 
Q 40.4375 49.5625 40.4375 51.609375 
z
M 42.140625 20.015625 
Q 42.140625 22.515625 41.453125 24.828125 
Q 40.765625 27.15625 39.109375 28.9375 
Q 37.453125 30.71875 34.640625 31.8125 
Q 31.84375 32.90625 27.640625 32.90625 
Q 23.78125 32.90625 21.0625 31.8125 
Q 18.359375 30.71875 16.671875 28.90625 
Q 14.984375 27.09375 14.203125 24.71875 
Q 13.421875 22.359375 13.421875 19.828125 
Q 13.421875 16.65625 14.203125 14.03125 
Q 14.984375 11.421875 16.6875 9.546875 
Q 18.40625 7.671875 21.1875 6.640625 
Q 23.96875 5.609375 27.9375 5.609375 
Q 31.9375 5.609375 34.671875 6.640625 
Q 37.40625 7.671875 39.0625 9.546875 
Q 40.71875 11.421875 41.421875 14.078125 
Q 42.140625 16.75 42.140625 20.015625 
z
" id="LiberationSans-56"/>
      </defs>
      <g style="fill:#262626;" transform="translate(317.637441 290.058875)scale(0.1 -0.1)">
       <use xlink:href="#LiberationSans-56"/>
       <use x="55.615234" xlink:href="#LiberationSans-48"/>
       <use x="111.230469" xlink:href="#LiberationSans-48"/>
      </g>
     </g>
    </g>
    <g id="xtick_6">
     <g id="line2d_6">
      <g>
       <use style="fill:#262626;stroke:#262626;stroke-width:0.8;" x="390.974752" xlink:href="#ma401f9fe5b" y="273.312"/>
      </g>
     </g>
     <g id="text_6">
      <!-- 1000 -->
      <defs>
       <path d="M 7.625 0 
L 7.625 7.46875 
L 25.140625 7.46875 
L 25.140625 60.40625 
L 9.625 49.3125 
L 9.625 57.625 
L 25.875 68.796875 
L 33.984375 68.796875 
L 33.984375 7.46875 
L 50.734375 7.46875 
L 50.734375 0 
z
" id="LiberationSans-49"/>
      </defs>
      <g style="fill:#262626;" transform="translate(379.852877 290.058875)scale(0.1 -0.1)">
       <use xlink:href="#LiberationSans-49"/>
       <use x="55.615234" xlink:href="#LiberationSans-48"/>
       <use x="111.230469" xlink:href="#LiberationSans-48"/>
       <use x="166.845703" xlink:href="#LiberationSans-48"/>
      </g>
     </g>
    </g>
    <g id="text_7">
     <!-- time_frame -->
     <defs>
      <path d="M 27.046875 0.390625 
Q 25.046875 -0.140625 22.96875 -0.453125 
Q 20.90625 -0.78125 18.171875 -0.78125 
Q 7.625 -0.78125 7.625 11.1875 
L 7.625 46.4375 
L 1.515625 46.4375 
L 1.515625 52.828125 
L 7.953125 52.828125 
L 10.546875 64.65625 
L 16.40625 64.65625 
L 16.40625 52.828125 
L 26.171875 52.828125 
L 26.171875 46.4375 
L 16.40625 46.4375 
L 16.40625 13.09375 
Q 16.40625 9.28125 17.640625 7.734375 
Q 18.890625 6.203125 21.96875 6.203125 
Q 23.25 6.203125 24.4375 6.390625 
Q 25.640625 6.59375 27.046875 6.890625 
z
" id="LiberationSans-116"/>
      <path d="M 6.6875 64.0625 
L 6.6875 72.46875 
L 15.484375 72.46875 
L 15.484375 64.0625 
z
M 6.6875 0 
L 6.6875 52.828125 
L 15.484375 52.828125 
L 15.484375 0 
z
" id="LiberationSans-105"/>
      <path d="M 37.5 0 
L 37.5 33.5 
Q 37.5 37.359375 37.015625 39.9375 
Q 36.53125 42.53125 35.375 44.109375 
Q 34.234375 45.703125 32.375 46.359375 
Q 30.515625 47.015625 27.828125 47.015625 
Q 25.046875 47.015625 22.796875 45.921875 
Q 20.5625 44.828125 18.96875 42.75 
Q 17.390625 40.671875 16.53125 37.625 
Q 15.671875 34.578125 15.671875 30.609375 
L 15.671875 0 
L 6.9375 0 
L 6.9375 41.546875 
Q 6.9375 43.21875 6.90625 45.046875 
Q 6.890625 46.875 6.828125 48.5 
Q 6.78125 50.140625 6.734375 51.3125 
Q 6.6875 52.484375 6.640625 52.828125 
L 14.9375 52.828125 
Q 14.984375 52.59375 15.03125 51.515625 
Q 15.09375 50.4375 15.15625 49.046875 
Q 15.234375 47.65625 15.28125 46.21875 
Q 15.328125 44.78125 15.328125 43.796875 
L 15.484375 43.796875 
Q 16.65625 46.09375 18.015625 47.953125 
Q 19.390625 49.8125 21.21875 51.09375 
Q 23.046875 52.390625 25.40625 53.09375 
Q 27.78125 53.8125 30.90625 53.8125 
Q 36.921875 53.8125 40.40625 51.421875 
Q 43.890625 49.03125 45.265625 43.796875 
L 45.40625 43.796875 
Q 46.578125 46.09375 48.046875 47.953125 
Q 49.515625 49.8125 51.46875 51.09375 
Q 53.421875 52.390625 55.859375 53.09375 
Q 58.296875 53.8125 61.421875 53.8125 
Q 65.4375 53.8125 68.328125 52.734375 
Q 71.234375 51.65625 73.09375 49.40625 
Q 74.953125 47.171875 75.828125 43.625 
Q 76.703125 40.09375 76.703125 35.203125 
L 76.703125 0 
L 68.015625 0 
L 68.015625 33.5 
Q 68.015625 37.359375 67.53125 39.9375 
Q 67.046875 42.53125 65.890625 44.109375 
Q 64.75 45.703125 62.890625 46.359375 
Q 61.03125 47.015625 58.34375 47.015625 
Q 55.5625 47.015625 53.3125 45.96875 
Q 51.078125 44.921875 49.484375 42.875 
Q 47.90625 40.828125 47.046875 37.75 
Q 46.1875 34.671875 46.1875 30.609375 
L 46.1875 0 
z
" id="LiberationSans-109"/>
      <path d="M 13.484375 24.5625 
Q 13.484375 20.40625 14.328125 16.90625 
Q 15.1875 13.421875 16.96875 10.90625 
Q 18.75 8.40625 21.53125 7 
Q 24.3125 5.609375 28.21875 5.609375 
Q 33.9375 5.609375 37.375 7.90625 
Q 40.828125 10.203125 42.046875 13.71875 
L 49.75 11.53125 
Q 48.921875 9.328125 47.4375 7.109375 
Q 45.953125 4.890625 43.453125 3.09375 
Q 40.96875 1.3125 37.234375 0.15625 
Q 33.5 -0.984375 28.21875 -0.984375 
Q 16.5 -0.984375 10.375 6 
Q 4.25 12.984375 4.25 26.765625 
Q 4.25 34.1875 6.09375 39.328125 
Q 7.953125 44.484375 11.171875 47.703125 
Q 14.40625 50.921875 18.703125 52.359375 
Q 23 53.8125 27.875 53.8125 
Q 34.515625 53.8125 38.984375 51.65625 
Q 43.453125 49.515625 46.15625 45.71875 
Q 48.875 41.9375 50.015625 36.8125 
Q 51.171875 31.6875 51.171875 25.734375 
L 51.171875 24.5625 
z
M 42.09375 31.296875 
Q 41.359375 39.65625 37.84375 43.484375 
Q 34.328125 47.3125 27.734375 47.3125 
Q 25.53125 47.3125 23.109375 46.609375 
Q 20.703125 45.90625 18.65625 44.09375 
Q 16.609375 42.28125 15.1875 39.171875 
Q 13.765625 36.078125 13.578125 31.296875 
z
" id="LiberationSans-101"/>
      <path d="M -1.515625 -19.875 
L -1.515625 -13.53125 
L 56.734375 -13.53125 
L 56.734375 -19.875 
z
" id="LiberationSans-95"/>
      <path d="M 17.625 46.4375 
L 17.625 0 
L 8.84375 0 
L 8.84375 46.4375 
L 1.421875 46.4375 
L 1.421875 52.828125 
L 8.84375 52.828125 
L 8.84375 58.796875 
Q 8.84375 61.671875 9.375 64.140625 
Q 9.90625 66.609375 11.34375 68.4375 
Q 12.796875 70.265625 15.28125 71.3125 
Q 17.78125 72.359375 21.734375 72.359375 
Q 23.296875 72.359375 24.96875 72.21875 
Q 26.65625 72.078125 27.9375 71.78125 
L 27.9375 65.09375 
Q 27.09375 65.234375 26 65.359375 
Q 24.90625 65.484375 24.03125 65.484375 
Q 22.078125 65.484375 20.828125 64.9375 
Q 19.578125 64.40625 18.875 63.40625 
Q 18.171875 62.40625 17.890625 60.9375 
Q 17.625 59.46875 17.625 57.5625 
L 17.625 52.828125 
L 27.9375 52.828125 
L 27.9375 46.4375 
z
" id="LiberationSans-102"/>
      <path d="M 6.9375 0 
L 6.9375 40.53125 
Q 6.9375 42.1875 6.90625 43.921875 
Q 6.890625 45.65625 6.828125 47.265625 
Q 6.78125 48.875 6.734375 50.28125 
Q 6.6875 51.703125 6.640625 52.828125 
L 14.9375 52.828125 
Q 14.984375 51.703125 15.0625 50.265625 
Q 15.140625 48.828125 15.203125 47.3125 
Q 15.28125 45.796875 15.296875 44.40625 
Q 15.328125 43.015625 15.328125 42.046875 
L 15.53125 42.046875 
Q 16.453125 45.0625 17.5 47.28125 
Q 18.5625 49.515625 19.96875 50.953125 
Q 21.390625 52.390625 23.34375 53.09375 
Q 25.296875 53.8125 28.078125 53.8125 
Q 29.15625 53.8125 30.125 53.640625 
Q 31.109375 53.46875 31.640625 53.328125 
L 31.640625 45.265625 
Q 30.765625 45.515625 29.59375 45.625 
Q 28.421875 45.75 26.953125 45.75 
Q 23.921875 45.75 21.796875 44.375 
Q 19.671875 43.015625 18.328125 40.59375 
Q 17 38.1875 16.359375 34.84375 
Q 15.71875 31.5 15.71875 27.546875 
L 15.71875 0 
z
" id="LiberationSans-114"/>
      <path d="M 20.21875 -0.984375 
Q 12.25 -0.984375 8.25 3.21875 
Q 4.25 7.421875 4.25 14.75 
Q 4.25 19.96875 6.21875 23.3125 
Q 8.203125 26.65625 11.390625 28.5625 
Q 14.59375 30.46875 18.6875 31.203125 
Q 22.796875 31.9375 27.046875 32.03125 
L 38.921875 32.234375 
L 38.921875 35.109375 
Q 38.921875 38.375 38.234375 40.671875 
Q 37.546875 42.96875 36.125 44.375 
Q 34.71875 45.796875 32.59375 46.453125 
Q 30.46875 47.125 27.59375 47.125 
Q 25.046875 47.125 23 46.75 
Q 20.953125 46.390625 19.4375 45.4375 
Q 17.921875 44.484375 16.984375 42.84375 
Q 16.0625 41.21875 15.765625 38.71875 
L 6.59375 39.546875 
Q 7.078125 42.671875 8.4375 45.28125 
Q 9.8125 47.90625 12.328125 49.796875 
Q 14.84375 51.703125 18.625 52.75 
Q 22.40625 53.8125 27.78125 53.8125 
Q 37.75 53.8125 42.765625 49.234375 
Q 47.796875 44.671875 47.796875 36.03125 
L 47.796875 13.28125 
Q 47.796875 9.375 48.828125 7.390625 
Q 49.859375 5.421875 52.734375 5.421875 
Q 53.46875 5.421875 54.203125 5.515625 
Q 54.9375 5.609375 55.609375 5.765625 
L 55.609375 0.296875 
Q 53.953125 -0.09375 52.3125 -0.28125 
Q 50.6875 -0.484375 48.828125 -0.484375 
Q 46.34375 -0.484375 44.5625 0.171875 
Q 42.78125 0.828125 41.65625 2.171875 
Q 40.53125 3.515625 39.9375 5.484375 
Q 39.359375 7.46875 39.203125 10.109375 
L 38.921875 10.109375 
Q 37.5 7.5625 35.8125 5.515625 
Q 34.125 3.46875 31.875 2.03125 
Q 29.640625 0.59375 26.78125 -0.1875 
Q 23.921875 -0.984375 20.21875 -0.984375 
z
M 22.21875 5.609375 
Q 26.421875 5.609375 29.5625 7.140625 
Q 32.71875 8.6875 34.78125 11.078125 
Q 36.859375 13.484375 37.890625 16.3125 
Q 38.921875 19.140625 38.921875 21.734375 
L 38.921875 26.078125 
L 29.296875 25.875 
Q 26.078125 25.828125 23.171875 25.40625 
Q 20.265625 25 18.0625 23.78125 
Q 15.875 22.5625 14.578125 20.359375 
Q 13.28125 18.171875 13.28125 14.59375 
Q 13.28125 10.296875 15.59375 7.953125 
Q 17.921875 5.609375 22.21875 5.609375 
z
" id="LiberationSans-97"/>
     </defs>
     <g style="fill:#262626;" transform="translate(203.317031 303.38075)scale(0.1 -0.1)">
      <use xlink:href="#LiberationSans-116"/>
      <use x="27.783203" xlink:href="#LiberationSans-105"/>
      <use x="50" xlink:href="#LiberationSans-109"/>
      <use x="133.300781" xlink:href="#LiberationSans-101"/>
      <use x="188.916016" xlink:href="#LiberationSans-95"/>
      <use x="244.53125" xlink:href="#LiberationSans-102"/>
      <use x="272.314453" xlink:href="#LiberationSans-114"/>
      <use x="305.615234" xlink:href="#LiberationSans-97"/>
      <use x="361.230469" xlink:href="#LiberationSans-109"/>
      <use x="444.53125" xlink:href="#LiberationSans-101"/>
     </g>
    </g>
   </g>
   <g id="matplotlib.axis_2">
    <g id="ytick_1">
     <g id="line2d_7">
      <defs>
       <path d="M 0 0 
L -6 0 
" id="m59b8e10936" style="stroke:#262626;stroke-width:0.8;"/>
      </defs>
      <g>
       <use style="fill:#262626;stroke:#262626;stroke-width:0.8;" x="49.7625" xlink:href="#m59b8e10936" y="239.961962"/>
      </g>
     </g>
     <g id="text_8">
      <!-- −1.0 -->
      <defs>
       <path d="M 4.9375 29.6875 
L 4.9375 36.8125 
L 53.515625 36.8125 
L 53.515625 29.6875 
z
" id="LiberationSans-8722"/>
       <path d="M 9.125 0 
L 9.125 10.6875 
L 18.65625 10.6875 
L 18.65625 0 
z
" id="LiberationSans-46"/>
      </defs>
      <g style="fill:#262626;" transform="translate(20.521875 243.5854)scale(0.1 -0.1)">
       <use xlink:href="#LiberationSans-8722"/>
       <use x="58.398438" xlink:href="#LiberationSans-49"/>
       <use x="114.013672" xlink:href="#LiberationSans-46"/>
       <use x="141.796875" xlink:href="#LiberationSans-48"/>
      </g>
     </g>
    </g>
    <g id="ytick_2">
     <g id="line2d_8">
      <g>
       <use style="fill:#262626;stroke:#262626;stroke-width:0.8;" x="49.7625" xlink:href="#m59b8e10936" y="187.219372"/>
      </g>
     </g>
     <g id="text_9">
      <!-- −0.5 -->
      <defs>
       <path d="M 51.421875 22.40625 
Q 51.421875 17.234375 49.859375 12.9375 
Q 48.296875 8.640625 45.21875 5.53125 
Q 42.140625 2.4375 37.578125 0.71875 
Q 33.015625 -0.984375 27 -0.984375 
Q 21.578125 -0.984375 17.546875 0.28125 
Q 13.53125 1.5625 10.734375 3.78125 
Q 7.953125 6 6.3125 8.984375 
Q 4.6875 11.96875 4 15.375 
L 12.890625 16.40625 
Q 13.421875 14.453125 14.390625 12.625 
Q 15.375 10.796875 17.0625 9.34375 
Q 18.75 7.90625 21.21875 7.046875 
Q 23.6875 6.203125 27.203125 6.203125 
Q 30.609375 6.203125 33.390625 7.25 
Q 36.1875 8.296875 38.15625 10.34375 
Q 40.140625 12.40625 41.203125 15.375 
Q 42.28125 18.359375 42.28125 22.21875 
Q 42.28125 25.390625 41.25 28.046875 
Q 40.234375 30.71875 38.328125 32.640625 
Q 36.421875 34.578125 33.65625 35.640625 
Q 30.90625 36.71875 27.390625 36.71875 
Q 25.203125 36.71875 23.34375 36.328125 
Q 21.484375 35.9375 19.890625 35.25 
Q 18.3125 34.578125 17.015625 33.671875 
Q 15.71875 32.765625 14.59375 31.78125 
L 6 31.78125 
L 8.296875 68.796875 
L 47.40625 68.796875 
L 47.40625 61.328125 
L 16.3125 61.328125 
L 14.984375 39.5 
Q 17.328125 41.3125 20.84375 42.59375 
Q 24.359375 43.890625 29.203125 43.890625 
Q 34.328125 43.890625 38.421875 42.328125 
Q 42.53125 40.765625 45.40625 37.90625 
Q 48.296875 35.0625 49.859375 31.109375 
Q 51.421875 27.15625 51.421875 22.40625 
z
" id="LiberationSans-53"/>
      </defs>
      <g style="fill:#262626;" transform="translate(20.521875 190.84281)scale(0.1 -0.1)">
       <use xlink:href="#LiberationSans-8722"/>
       <use x="58.398438" xlink:href="#LiberationSans-48"/>
       <use x="114.013672" xlink:href="#LiberationSans-46"/>
       <use x="141.796875" xlink:href="#LiberationSans-53"/>
      </g>
     </g>
    </g>
    <g id="ytick_3">
     <g id="line2d_9">
      <g>
       <use style="fill:#262626;stroke:#262626;stroke-width:0.8;" x="49.7625" xlink:href="#m59b8e10936" y="134.476782"/>
      </g>
     </g>
     <g id="text_10">
      <!-- 0.0 -->
      <g style="fill:#262626;" transform="translate(26.3625 138.100219)scale(0.1 -0.1)">
       <use xlink:href="#LiberationSans-48"/>
       <use x="55.615234" xlink:href="#LiberationSans-46"/>
       <use x="83.398438" xlink:href="#LiberationSans-48"/>
      </g>
     </g>
    </g>
    <g id="ytick_4">
     <g id="line2d_10">
      <g>
       <use style="fill:#262626;stroke:#262626;stroke-width:0.8;" x="49.7625" xlink:href="#m59b8e10936" y="81.734192"/>
      </g>
     </g>
     <g id="text_11">
      <!-- 0.5 -->
      <g style="fill:#262626;" transform="translate(26.3625 85.357629)scale(0.1 -0.1)">
       <use xlink:href="#LiberationSans-48"/>
       <use x="55.615234" xlink:href="#LiberationSans-46"/>
       <use x="83.398438" xlink:href="#LiberationSans-53"/>
      </g>
     </g>
    </g>
    <g id="ytick_5">
     <g id="line2d_11">
      <g>
       <use style="fill:#262626;stroke:#262626;stroke-width:0.8;" x="49.7625" xlink:href="#m59b8e10936" y="28.991601"/>
      </g>
     </g>
     <g id="text_12">
      <!-- 1.0 -->
      <g style="fill:#262626;" transform="translate(26.3625 32.615039)scale(0.1 -0.1)">
       <use xlink:href="#LiberationSans-49"/>
       <use x="55.615234" xlink:href="#LiberationSans-46"/>
       <use x="83.398438" xlink:href="#LiberationSans-48"/>
      </g>
     </g>
    </g>
    <g id="text_13">
     <!-- analogs -->
     <defs>
      <path d="M 40.28125 0 
L 40.28125 33.5 
Q 40.28125 37.359375 39.71875 39.9375 
Q 39.15625 42.53125 37.890625 44.109375 
Q 36.625 45.703125 34.546875 46.359375 
Q 32.46875 47.015625 29.390625 47.015625 
Q 26.265625 47.015625 23.75 45.921875 
Q 21.234375 44.828125 19.453125 42.75 
Q 17.671875 40.671875 16.6875 37.625 
Q 15.71875 34.578125 15.71875 30.609375 
L 15.71875 0 
L 6.9375 0 
L 6.9375 41.546875 
Q 6.9375 43.21875 6.90625 45.046875 
Q 6.890625 46.875 6.828125 48.5 
Q 6.78125 50.140625 6.734375 51.3125 
Q 6.6875 52.484375 6.640625 52.828125 
L 14.9375 52.828125 
Q 14.984375 52.59375 15.03125 51.515625 
Q 15.09375 50.4375 15.15625 49.046875 
Q 15.234375 47.65625 15.28125 46.21875 
Q 15.328125 44.78125 15.328125 43.796875 
L 15.484375 43.796875 
Q 16.75 46.09375 18.265625 47.953125 
Q 19.78125 49.8125 21.78125 51.09375 
Q 23.78125 52.390625 26.359375 53.09375 
Q 28.953125 53.8125 32.375 53.8125 
Q 36.765625 53.8125 39.9375 52.734375 
Q 43.109375 51.65625 45.15625 49.40625 
Q 47.21875 47.171875 48.171875 43.625 
Q 49.125 40.09375 49.125 35.203125 
L 49.125 0 
z
" id="LiberationSans-110"/>
      <path d="M 6.734375 0 
L 6.734375 72.46875 
L 15.53125 72.46875 
L 15.53125 0 
z
" id="LiberationSans-108"/>
      <path d="M 51.421875 26.46875 
Q 51.421875 12.59375 45.3125 5.796875 
Q 39.203125 -0.984375 27.59375 -0.984375 
Q 22.078125 -0.984375 17.71875 0.671875 
Q 13.375 2.34375 10.375 5.765625 
Q 7.375 9.1875 5.78125 14.328125 
Q 4.203125 19.484375 4.203125 26.46875 
Q 4.203125 53.8125 27.875 53.8125 
Q 34.03125 53.8125 38.5 52.09375 
Q 42.96875 50.390625 45.828125 46.96875 
Q 48.6875 43.5625 50.046875 38.421875 
Q 51.421875 33.296875 51.421875 26.46875 
z
M 42.1875 26.46875 
Q 42.1875 32.625 41.234375 36.625 
Q 40.28125 40.625 38.453125 43.015625 
Q 36.625 45.40625 33.984375 46.359375 
Q 31.34375 47.3125 28.03125 47.3125 
Q 24.65625 47.3125 21.9375 46.3125 
Q 19.234375 45.3125 17.328125 42.890625 
Q 15.4375 40.484375 14.421875 36.46875 
Q 13.421875 32.46875 13.421875 26.46875 
Q 13.421875 20.3125 14.5 16.28125 
Q 15.578125 12.25 17.453125 9.859375 
Q 19.34375 7.46875 21.90625 6.484375 
Q 24.46875 5.515625 27.484375 5.515625 
Q 30.859375 5.515625 33.59375 6.46875 
Q 36.328125 7.421875 38.234375 9.8125 
Q 40.140625 12.203125 41.15625 16.25 
Q 42.1875 20.3125 42.1875 26.46875 
z
" id="LiberationSans-111"/>
      <path d="M 26.765625 -20.75 
Q 22.21875 -20.75 18.703125 -19.8125 
Q 15.1875 -18.890625 12.6875 -17.15625 
Q 10.203125 -15.4375 8.640625 -13.03125 
Q 7.078125 -10.640625 6.390625 -7.71875 
L 15.234375 -6.453125 
Q 16.109375 -10.109375 19.109375 -12.078125 
Q 22.125 -14.0625 27 -14.0625 
Q 29.984375 -14.0625 32.421875 -13.234375 
Q 34.859375 -12.40625 36.5625 -10.5625 
Q 38.28125 -8.734375 39.203125 -5.796875 
Q 40.140625 -2.875 40.140625 1.3125 
L 40.140625 9.8125 
L 40.046875 9.8125 
Q 39.0625 7.8125 37.625 5.984375 
Q 36.1875 4.15625 34.109375 2.734375 
Q 32.03125 1.3125 29.296875 0.453125 
Q 26.5625 -0.390625 23.046875 -0.390625 
Q 18.015625 -0.390625 14.421875 1.296875 
Q 10.84375 2.984375 8.5625 6.34375 
Q 6.296875 9.71875 5.25 14.71875 
Q 4.203125 19.734375 4.203125 26.3125 
Q 4.203125 32.671875 5.25 37.75 
Q 6.296875 42.828125 8.65625 46.359375 
Q 11.03125 49.90625 14.8125 51.78125 
Q 18.609375 53.65625 24.03125 53.65625 
Q 29.640625 53.65625 33.765625 51.09375 
Q 37.890625 48.53125 40.140625 43.796875 
L 40.234375 43.796875 
Q 40.234375 45.015625 40.296875 46.53125 
Q 40.375 48.046875 40.453125 49.390625 
Q 40.53125 50.734375 40.625 51.703125 
Q 40.71875 52.6875 40.828125 52.828125 
L 49.171875 52.828125 
Q 49.125 52.390625 49.078125 51.34375 
Q 49.03125 50.296875 48.96875 48.828125 
Q 48.921875 47.359375 48.890625 45.578125 
Q 48.875 43.796875 48.875 41.890625 
L 48.875 1.515625 
Q 48.875 -9.578125 43.421875 -15.15625 
Q 37.984375 -20.75 26.765625 -20.75 
z
M 40.140625 26.421875 
Q 40.140625 31.9375 38.9375 35.859375 
Q 37.75 39.796875 35.796875 42.28125 
Q 33.84375 44.78125 31.328125 45.953125 
Q 28.8125 47.125 26.171875 47.125 
Q 22.796875 47.125 20.375 45.953125 
Q 17.96875 44.78125 16.375 42.265625 
Q 14.796875 39.75 14.03125 35.8125 
Q 13.28125 31.890625 13.28125 26.421875 
Q 13.28125 20.703125 14.03125 16.8125 
Q 14.796875 12.9375 16.359375 10.546875 
Q 17.921875 8.15625 20.3125 7.125 
Q 22.703125 6.109375 26.03125 6.109375 
Q 28.65625 6.109375 31.171875 7.21875 
Q 33.6875 8.34375 35.6875 10.78125 
Q 37.703125 13.234375 38.921875 17.09375 
Q 40.140625 20.953125 40.140625 26.421875 
z
" id="LiberationSans-103"/>
      <path d="M 46.390625 14.59375 
Q 46.390625 10.890625 44.9375 7.984375 
Q 43.5 5.078125 40.765625 3.09375 
Q 38.03125 1.125 34.046875 0.0625 
Q 30.078125 -0.984375 24.953125 -0.984375 
Q 20.359375 -0.984375 16.671875 -0.265625 
Q 12.984375 0.4375 10.203125 2 
Q 7.421875 3.5625 5.53125 6.125 
Q 3.65625 8.6875 2.78125 12.40625 
L 10.546875 13.921875 
Q 11.671875 9.671875 15.1875 7.6875 
Q 18.703125 5.71875 24.953125 5.71875 
Q 27.78125 5.71875 30.140625 6.109375 
Q 32.515625 6.5 34.21875 7.453125 
Q 35.9375 8.40625 36.890625 9.984375 
Q 37.84375 11.578125 37.84375 13.921875 
Q 37.84375 16.3125 36.71875 17.84375 
Q 35.59375 19.390625 33.59375 20.40625 
Q 31.59375 21.4375 28.734375 22.1875 
Q 25.875 22.953125 22.46875 23.875 
Q 19.28125 24.703125 16.15625 25.734375 
Q 13.03125 26.765625 10.515625 28.4375 
Q 8.015625 30.125 6.453125 32.609375 
Q 4.890625 35.109375 4.890625 38.875 
Q 4.890625 46.09375 10.03125 49.875 
Q 15.1875 53.65625 25.046875 53.65625 
Q 33.796875 53.65625 38.9375 50.578125 
Q 44.09375 47.515625 45.453125 40.71875 
L 37.546875 39.75 
Q 37.109375 41.796875 35.9375 43.1875 
Q 34.765625 44.578125 33.109375 45.4375 
Q 31.453125 46.296875 29.375 46.65625 
Q 27.296875 47.015625 25.046875 47.015625 
Q 19.09375 47.015625 16.25 45.203125 
Q 13.421875 43.40625 13.421875 39.75 
Q 13.421875 37.59375 14.46875 36.203125 
Q 15.53125 34.8125 17.40625 33.859375 
Q 19.28125 32.90625 21.921875 32.203125 
Q 24.5625 31.5 27.734375 30.71875 
Q 29.828125 30.171875 32.03125 29.5625 
Q 34.234375 28.953125 36.296875 28.09375 
Q 38.375 27.25 40.203125 26.09375 
Q 42.046875 24.953125 43.40625 23.34375 
Q 44.78125 21.734375 45.578125 19.578125 
Q 46.390625 17.4375 46.390625 14.59375 
z
" id="LiberationSans-115"/>
     </defs>
     <g style="fill:#262626;" transform="translate(14.446875 157.769281)rotate(-90)scale(0.1 -0.1)">
      <use xlink:href="#LiberationSans-97"/>
      <use x="55.615234" xlink:href="#LiberationSans-110"/>
      <use x="111.230469" xlink:href="#LiberationSans-97"/>
      <use x="166.845703" xlink:href="#LiberationSans-108"/>
      <use x="189.0625" xlink:href="#LiberationSans-111"/>
      <use x="244.677734" xlink:href="#LiberationSans-103"/>
      <use x="300.292969" xlink:href="#LiberationSans-115"/>
     </g>
    </g>
   </g>
   <g id="line2d_12">
    <path clip-path="url(#pa92651aab1)" d="M 65.995227 31.994539 
L 66.320207 134.30441 
L 66.645186 130.987474 
L 66.970166 232.300629 
L 67.295145 38.163169 
L 67.620125 203.20387 
L 67.945104 126.388052 
L 68.270084 156.486347 
L 68.595063 152.285908 
L 68.920043 104.244694 
L 69.245023 100.280875 
L 69.570002 207.411638 
L 70.219961 73.19465 
L 70.86992 204.982133 
L 71.1949 173.882471 
L 71.844859 213.418206 
L 72.169838 160.303536 
L 72.494818 125.840448 
L 72.819797 224.613547 
L 73.469756 30.463238 
L 73.794736 36.560177 
L 74.119715 65.030934 
L 74.444695 183.771882 
L 74.769674 235.234624 
L 75.094654 64.109368 
L 75.419633 228.206645 
L 75.744613 196.580532 
L 76.069593 125.098471 
L 76.394572 202.329483 
L 76.719552 64.057337 
L 77.044531 76.004301 
L 77.369511 80.516997 
L 77.69449 67.783225 
L 78.01947 193.611398 
L 78.344449 86.187275 
L 78.669429 165.008096 
L 78.994408 99.277483 
L 79.319388 214.218994 
L 79.644367 91.104107 
L 79.969347 34.876044 
L 80.294326 230.763578 
L 80.619306 220.166845 
L 80.944285 213.878269 
L 81.269265 149.12574 
L 81.594244 178.615962 
L 81.919224 69.725726 
L 82.244204 140.006898 
L 82.569183 137.738944 
L 82.894163 88.688175 
L 83.219142 163.597235 
L 83.544122 165.445702 
L 83.869101 80.272929 
L 84.194081 75.396274 
L 84.51906 236.924248 
L 84.84404 209.626434 
L 85.169019 195.004562 
L 85.493999 165.784685 
L 85.818978 178.475055 
L 86.143958 98.924046 
L 86.468937 65.249973 
L 86.793917 199.437302 
L 87.118896 121.189856 
L 87.443876 162.363635 
L 88.093835 109.000456 
L 88.418814 51.438886 
L 88.743794 199.393909 
L 89.068774 221.606151 
L 89.393753 107.638837 
L 90.043712 205.594322 
L 90.368692 215.26004 
L 90.693671 122.048563 
L 91.018651 176.571573 
L 91.34363 29.534559 
L 91.66861 154.32892 
L 91.993589 195.17578 
L 92.318569 107.293452 
L 92.643548 188.43142 
L 92.968528 135.724452 
L 93.293507 138.152691 
L 93.618487 144.274746 
L 93.943466 72.011476 
L 94.268446 194.263039 
L 94.593425 49.179924 
L 94.918405 73.012571 
L 95.243385 169.683017 
L 95.568364 201.860186 
L 95.893344 180.988357 
L 96.218323 169.785573 
L 96.543303 122.465571 
L 96.868282 230.179653 
L 97.193262 47.059287 
L 97.518241 219.144492 
L 97.843221 181.043554 
L 98.1682 216.905552 
L 98.49318 185.811604 
L 98.818159 63.237615 
L 99.143139 110.178099 
L 99.468118 192.0035 
L 99.793098 56.046751 
L 100.443057 80.964301 
L 100.768036 61.136586 
L 101.093016 109.234245 
L 101.742975 161.072755 
L 102.067955 192.754386 
L 102.717914 52.305441 
L 103.042893 114.64941 
L 103.367873 45.952171 
L 103.692852 164.662976 
L 104.017832 93.308453 
L 104.342811 103.112774 
L 104.667791 98.520292 
L 104.99277 103.877216 
L 105.31775 193.199396 
L 105.642729 209.668539 
L 105.967709 33.500406 
L 106.292688 230.406033 
L 106.617668 141.283427 
L 106.942647 150.282614 
L 107.267627 164.008633 
L 107.592606 74.986547 
L 107.917586 82.715143 
L 108.242566 48.986334 
L 108.567545 156.525816 
L 108.892525 120.936804 
L 109.217504 51.711623 
L 109.542484 30.289478 
L 109.867463 35.469581 
L 110.192443 88.518182 
L 110.517422 209.745193 
L 110.842402 235.070401 
L 111.167381 65.865348 
L 111.492361 62.54812 
L 111.81734 82.501932 
L 112.14232 180.906404 
L 112.467299 104.979358 
L 112.792279 173.242914 
L 113.117258 144.888539 
L 113.442238 159.279494 
L 113.767217 47.210983 
L 114.092197 190.561706 
L 114.417176 118.103181 
L 114.742156 163.805559 
L 115.067136 100.073611 
L 115.392115 120.855873 
L 115.717095 45.030057 
L 116.042074 218.52481 
L 116.367054 193.413285 
L 116.692033 78.285256 
L 117.017013 162.15887 
L 117.341992 204.986497 
L 117.666972 133.776095 
L 117.991951 102.379316 
L 118.316931 230.504854 
L 118.64191 178.438387 
L 118.96689 69.197797 
L 119.291869 130.205778 
L 119.616849 232.497997 
L 119.941828 180.478657 
L 120.266808 105.122227 
L 120.591787 197.903023 
L 120.916767 65.406899 
L 121.241747 97.224499 
L 121.566726 140.514952 
L 121.891706 46.792483 
L 122.216685 157.303612 
L 122.541665 190.36844 
L 122.866644 100.425534 
L 123.191624 119.01367 
L 123.516603 169.234592 
L 123.841583 167.458926 
L 124.166562 155.95139 
L 124.491542 178.540354 
L 124.816521 90.122077 
L 125.141501 102.544645 
L 125.46648 146.970942 
L 126.116439 162.946964 
L 126.441419 180.158548 
L 126.766398 221.882506 
L 127.091378 183.378723 
L 127.416357 172.197998 
L 128.066317 76.715521 
L 128.391296 156.480538 
L 128.716276 40.646257 
L 129.041255 65.415642 
L 129.366235 32.197961 
L 129.691214 55.109091 
L 130.016194 109.851066 
L 130.341173 113.700571 
L 130.666153 212.635789 
L 130.991132 87.557132 
L 131.641091 133.014314 
L 131.966071 93.698981 
L 132.29105 146.281029 
L 132.61603 129.4431 
L 132.941009 155.921433 
L 133.265989 88.617966 
L 133.590968 55.02303 
L 133.915948 62.568602 
L 134.240928 74.133927 
L 134.565907 237.053165 
L 134.890887 47.582212 
L 135.215866 181.971332 
L 135.540846 52.625779 
L 135.865825 198.407531 
L 136.515784 81.861028 
L 136.840764 104.882082 
L 137.165743 152.214761 
L 137.490723 96.792442 
L 137.815702 124.149886 
L 138.140682 181.789774 
L 138.465661 103.605606 
L 138.790641 196.871881 
L 139.11562 93.551004 
L 139.4406 239.305659 
L 139.765579 124.187227 
L 140.415538 176.01605 
L 140.740518 131.162866 
L 141.065498 103.820334 
L 141.390477 36.309685 
L 142.040436 88.664593 
L 142.365416 138.91414 
L 142.690395 157.231176 
L 143.015375 233.099169 
L 143.340354 164.203159 
L 143.665334 60.979531 
L 143.990313 158.944158 
L 144.315293 142.581209 
L 144.640272 182.612956 
L 144.965252 182.128075 
L 145.290231 226.908855 
L 145.615211 110.467527 
L 145.94019 145.432599 
L 146.26517 112.122192 
L 146.590149 124.585036 
L 146.915129 71.429431 
L 147.240109 81.520708 
L 147.565088 77.208065 
L 147.890068 134.637329 
L 148.215047 165.303486 
L 148.540027 43.034508 
L 148.865006 228.512649 
L 149.189986 207.76339 
L 149.839945 110.435095 
L 150.164924 238.231926 
L 150.489904 88.206168 
L 150.814883 122.087222 
L 151.464842 150.617061 
L 151.789822 130.365596 
L 152.114801 205.829968 
L 152.439781 217.027008 
L 152.76476 178.857039 
L 153.08974 90.27748 
L 153.739699 138.670236 
L 154.064679 119.387978 
L 154.389658 121.975098 
L 155.039617 219.401646 
L 155.364597 50.767462 
L 155.689576 113.398467 
L 156.014556 92.757815 
L 156.339535 142.0723 
L 156.664515 80.366981 
L 156.989494 116.650364 
L 157.314474 228.61152 
L 157.639453 52.17787 
L 157.964433 175.502891 
L 158.289412 210.871095 
L 158.614392 221.387919 
L 158.939371 87.970409 
L 159.264351 91.445502 
L 159.58933 92.248506 
L 159.91431 46.765269 
L 160.23929 166.345327 
L 160.564269 121.579519 
L 160.889249 109.266756 
L 161.214228 33.320327 
L 161.539208 174.066184 
L 161.864187 38.204424 
L 162.189167 208.583426 
L 162.514146 78.780299 
L 162.839126 106.441796 
L 163.164105 67.621111 
L 163.489085 233.910157 
L 163.814064 223.478628 
L 164.139044 225.258219 
L 164.464023 114.865092 
L 164.789003 112.760323 
L 165.113982 48.800687 
L 165.763941 225.605629 
L 166.088921 195.757469 
L 166.4139 238.258779 
L 166.73888 76.098219 
L 167.06386 67.894655 
L 167.388839 29.426113 
L 168.038798 235.890577 
L 168.363778 190.440915 
L 169.013737 37.020507 
L 169.338716 218.109958 
L 169.663696 214.313658 
L 169.988675 91.911616 
L 170.313655 99.201049 
L 170.638634 187.112546 
L 170.963614 68.412512 
L 171.288593 212.793462 
L 171.613573 44.657871 
L 171.938552 197.550183 
L 172.263532 222.799023 
L 172.588511 168.332865 
L 172.913491 200.333018 
L 173.238471 128.792982 
L 173.56345 95.0577 
L 173.88843 136.39206 
L 174.213409 100.593395 
L 174.863368 234.071122 
L 175.188348 34.463303 
L 175.513327 67.09 
L 175.838307 224.472767 
L 176.163286 145.199056 
L 176.488266 105.99176 
L 176.813245 199.75222 
L 177.138225 118.023496 
L 177.463204 127.377921 
L 177.788184 196.02418 
L 178.113163 210.170772 
L 178.438143 79.843414 
L 178.763122 171.905783 
L 179.088102 188.476643 
L 179.413081 84.2915 
L 179.738061 84.673285 
L 180.063041 181.649405 
L 180.38802 55.875879 
L 180.713 94.761577 
L 181.037979 167.015961 
L 181.362959 149.774317 
L 181.687938 86.647758 
L 182.012918 195.324045 
L 182.662877 102.080523 
L 182.987856 126.143759 
L 183.312836 111.622712 
L 183.637815 124.727314 
L 183.962795 197.930877 
L 184.287774 153.420793 
L 184.612754 127.72879 
L 184.937733 75.391844 
L 185.262713 102.007549 
L 185.587692 149.963917 
L 185.912672 34.392478 
L 186.237652 217.220302 
L 186.562631 196.332265 
L 186.887611 167.955118 
L 187.21259 191.740029 
L 187.53757 108.012239 
L 187.862549 231.617931 
L 188.512508 178.07439 
L 188.837488 95.796258 
L 189.162467 55.180432 
L 189.487447 71.503865 
L 189.812426 201.548282 
L 190.137406 120.678105 
L 190.462385 233.628074 
L 190.787365 174.447907 
L 191.112344 69.92327 
L 191.762303 208.328788 
L 192.087283 147.440197 
L 192.412262 198.182885 
L 192.737242 157.010219 
L 193.062222 137.043559 
L 193.387201 166.215561 
L 193.712181 42.289285 
L 194.03716 121.284742 
L 194.36214 62.136591 
L 195.012099 100.475467 
L 195.337078 135.133164 
L 195.662058 239.503358 
L 195.987037 110.538481 
L 196.636996 215.117636 
L 197.286955 84.782012 
L 197.611935 37.076451 
L 197.936914 161.036918 
L 198.261894 125.463432 
L 198.586873 60.374628 
L 198.911853 169.497984 
L 199.236833 209.9499 
L 199.561812 180.493251 
L 199.886792 50.273694 
L 200.211771 206.334741 
L 200.86173 141.936628 
L 201.18671 61.24618 
L 201.511689 42.132252 
L 201.836669 150.128608 
L 202.161648 43.34728 
L 202.486628 205.898879 
L 202.811607 206.870778 
L 203.136587 39.698174 
L 203.786546 200.740919 
L 204.436505 74.727622 
L 205.086464 57.690056 
L 205.411443 119.799383 
L 205.736423 57.062049 
L 206.061403 132.360705 
L 206.386382 111.890316 
L 206.711362 79.894572 
L 207.361321 224.438449 
L 208.01128 108.328226 
L 208.336259 199.385533 
L 208.661239 208.657049 
L 208.986218 178.130654 
L 209.311198 233.187396 
L 209.636177 83.121765 
L 209.961157 185.380638 
L 210.286136 213.751343 
L 210.611116 92.466377 
L 210.936095 62.129135 
L 211.261075 235.768801 
L 211.586054 190.679334 
L 211.911034 40.545958 
L 212.236014 158.684758 
L 212.560993 41.946856 
L 212.885973 182.111244 
L 213.210952 193.956155 
L 213.535932 194.791433 
L 213.860911 221.981241 
L 214.185891 50.841319 
L 214.51087 33.245814 
L 214.83585 38.588895 
L 215.160829 60.209278 
L 215.485809 61.293715 
L 215.810788 100.492523 
L 216.135768 65.655357 
L 216.460747 196.007899 
L 216.785727 158.123895 
L 217.435686 55.411139 
L 217.760665 100.622482 
L 218.085645 62.953197 
L 218.410624 139.972662 
L 219.060584 33.215058 
L 219.385563 207.580426 
L 219.710543 44.409169 
L 220.035522 129.758652 
L 220.360502 104.262022 
L 220.685481 54.757621 
L 221.010461 153.537074 
L 221.33544 151.630239 
L 221.66042 128.74222 
L 221.985399 235.931989 
L 222.310379 135.180119 
L 222.635358 178.551177 
L 222.960338 44.191134 
L 223.285317 221.452415 
L 223.935276 40.07426 
L 224.260256 49.87023 
L 224.585235 91.998228 
L 224.910215 115.624249 
L 225.235195 180.736055 
L 225.560174 162.544888 
L 225.885154 220.946177 
L 226.210133 74.116411 
L 226.535113 171.635041 
L 226.860092 99.079774 
L 227.185072 164.520063 
L 227.835031 122.87289 
L 228.16001 70.79487 
L 228.48499 195.414225 
L 228.809969 155.834285 
L 229.134949 212.518606 
L 229.459928 223.978741 
L 229.784908 112.393595 
L 230.109887 200.069357 
L 230.434867 227.346074 
L 230.759846 50.700888 
L 231.409805 211.559401 
L 231.734785 228.690633 
L 232.059765 214.675044 
L 232.384744 140.523775 
L 232.709724 98.935606 
L 233.034703 104.670873 
L 233.359683 209.492972 
L 233.684662 106.31457 
L 234.009642 154.547316 
L 234.334621 141.914798 
L 234.659601 70.8839 
L 234.98458 169.81445 
L 235.30956 208.94952 
L 235.634539 55.68924 
L 235.959519 195.208698 
L 236.284498 177.930374 
L 236.609478 90.892403 
L 236.934457 95.753105 
L 237.259437 71.101281 
L 237.584416 201.171551 
L 237.909396 165.641346 
L 238.234376 213.40433 
L 238.559355 125.818738 
L 238.884335 178.238239 
L 239.209314 94.616962 
L 239.534294 239.889311 
L 239.859273 227.370619 
L 240.184253 148.70456 
L 240.509232 37.813505 
L 240.834212 52.018724 
L 241.159191 30.255519 
L 241.484171 152.023139 
L 241.80915 230.137392 
L 242.13413 175.414285 
L 242.459109 97.394342 
L 242.784089 211.446405 
L 243.109068 176.676724 
L 243.434048 228.112566 
L 243.759027 139.757995 
L 244.084007 195.885892 
L 244.408986 220.711333 
L 244.733966 153.207615 
L 245.058946 165.863812 
L 245.708905 81.937007 
L 246.033884 216.213295 
L 246.358864 73.057911 
L 246.683843 234.415556 
L 247.008823 146.480594 
L 247.333802 116.031583 
L 247.658782 38.063607 
L 248.308741 206.470588 
L 248.63372 130.775981 
L 248.9587 156.46328 
L 249.283679 138.832145 
L 249.608659 198.380334 
L 249.933638 134.3023 
L 250.258618 208.308019 
L 250.583597 82.990925 
L 250.908577 114.665344 
L 251.233557 223.394947 
L 251.558536 52.279677 
L 252.533475 230.332769 
L 252.858454 106.580868 
L 253.183434 161.177136 
L 253.508413 48.481443 
L 253.833393 232.603773 
L 254.158372 231.712507 
L 254.483352 39.687949 
L 254.808331 36.402158 
L 255.133311 234.109175 
L 255.45829 88.900172 
L 255.78327 193.233113 
L 256.108249 91.988877 
L 256.433229 56.685091 
L 256.758208 218.689509 
L 257.083188 189.589325 
L 257.408167 234.882288 
L 257.733147 230.715164 
L 258.058127 233.713472 
L 258.383106 71.041717 
L 258.708086 177.031048 
L 259.033065 135.908967 
L 259.358045 73.750174 
L 259.683024 135.543519 
L 260.008004 149.414314 
L 260.332983 237.520359 
L 260.657963 120.122463 
L 260.982942 213.64487 
L 261.307922 78.643847 
L 261.632901 185.586942 
L 261.957881 97.728401 
L 262.60784 109.861688 
L 262.932819 183.643001 
L 263.257799 183.613936 
L 263.582778 57.884405 
L 263.907758 237.259995 
L 264.232738 201.666067 
L 264.557717 111.233984 
L 264.882697 67.589419 
L 265.207676 164.361681 
L 265.532656 102.10476 
L 265.857635 122.418471 
L 266.182615 226.345913 
L 266.507594 108.791099 
L 267.157553 30.584782 
L 267.482533 233.708786 
L 267.807512 100.709251 
L 268.132492 152.504294 
L 268.457471 237.897008 
L 268.782451 110.350012 
L 269.10743 214.133431 
L 269.43241 160.095577 
L 269.757389 184.821253 
L 270.407348 136.017798 
L 270.732328 164.179398 
L 271.057308 123.35192 
L 271.382287 189.613951 
L 271.707267 105.919461 
L 272.032246 59.843273 
L 272.357226 192.690457 
L 272.682205 132.814923 
L 273.007185 103.107644 
L 273.332164 120.842584 
L 273.657144 162.820767 
L 273.982123 104.476858 
L 274.307103 234.00285 
L 274.632082 161.922711 
L 274.957062 127.596571 
L 275.282041 235.613197 
L 275.607021 132.863106 
L 276.25698 79.79164 
L 276.581959 216.043392 
L 276.906939 30.982133 
L 277.231919 112.078544 
L 277.556898 163.338837 
L 277.881878 187.410753 
L 278.531837 53.946938 
L 278.856816 130.138093 
L 279.181796 100.410964 
L 279.506775 164.498615 
L 279.831755 158.073334 
L 280.156734 179.587497 
L 280.481714 91.093408 
L 280.806693 164.184035 
L 281.131673 199.726454 
L 281.456652 162.029391 
L 281.781632 59.829728 
L 282.106611 84.212662 
L 282.431591 169.362663 
L 282.75657 48.652148 
L 283.08155 224.174494 
L 283.406529 229.465387 
L 283.731509 213.069496 
L 284.056489 215.393461 
L 284.381468 221.431525 
L 284.706448 100.438273 
L 285.031427 113.202029 
L 286.006366 80.282768 
L 286.331345 196.253771 
L 286.656325 108.674366 
L 286.981304 117.588887 
L 287.306284 40.877666 
L 287.631263 190.93926 
L 287.956243 227.573164 
L 288.281222 102.093872 
L 288.606202 83.807431 
L 288.931181 180.215999 
L 289.256161 119.529863 
L 289.58114 227.401617 
L 289.90612 37.420956 
L 290.2311 216.771051 
L 290.556079 225.706582 
L 290.881059 230.656026 
L 291.206038 149.820254 
L 291.531018 219.464136 
L 291.855997 82.863254 
L 292.180977 50.326156 
L 292.505956 185.06348 
L 292.830936 107.30947 
L 293.155915 231.029805 
L 293.480895 158.408316 
L 294.130854 191.730109 
L 294.455833 103.944415 
L 294.780813 212.487726 
L 295.105792 58.377553 
L 295.430772 99.701291 
L 295.755751 90.017905 
L 296.080731 42.632036 
L 296.40571 41.149218 
L 296.73069 123.579673 
L 297.05567 135.451504 
L 297.380649 169.206383 
L 297.705629 88.997561 
L 298.030608 126.415839 
L 298.355588 43.15297 
L 298.680567 189.61896 
L 299.005547 174.507841 
L 299.330526 173.276247 
L 299.655506 69.920177 
L 299.980485 219.067388 
L 300.305465 143.833503 
L 300.630444 149.7551 
L 300.955424 224.53167 
L 301.280403 153.295971 
L 301.605383 131.654424 
L 301.930362 226.226802 
L 302.580321 37.591195 
L 302.905301 33.440054 
L 303.230281 127.793288 
L 303.55526 131.291777 
L 303.88024 179.728201 
L 304.205219 29.600151 
L 304.530199 182.107735 
L 304.855178 144.413212 
L 305.180158 239.342963 
L 305.505137 166.2843 
L 305.830117 224.890176 
L 306.155096 83.036982 
L 306.480076 121.604541 
L 306.805055 119.250655 
L 307.130035 179.516573 
L 307.455014 68.042998 
L 307.779994 239.271894 
L 308.754932 48.417217 
L 309.079912 190.464949 
L 309.404891 125.805889 
L 309.729871 126.461718 
L 310.054851 55.53708 
L 310.37983 229.304396 
L 310.70481 150.4102 
L 311.354769 235.419222 
L 311.679748 208.942792 
L 312.004728 33.955592 
L 312.329707 194.635295 
L 312.654687 42.698183 
L 312.979666 196.65938 
L 313.304646 43.486272 
L 313.629625 101.856347 
L 313.954605 216.076198 
L 314.279584 117.195112 
L 314.604564 172.764941 
L 315.254523 147.098937 
L 315.579502 150.783309 
L 315.904482 99.85467 
L 316.229462 77.859074 
L 316.554441 170.515226 
L 316.879421 44.948564 
L 317.2044 41.973385 
L 317.52938 231.377486 
L 317.854359 236.81665 
L 318.179339 150.285565 
L 318.504318 115.353321 
L 318.829298 181.332298 
L 319.154277 185.23335 
L 319.479257 96.853629 
L 319.804236 113.020192 
L 320.129216 204.698926 
L 320.454195 53.358475 
L 320.779175 96.507165 
L 321.104154 163.46912 
L 321.429134 95.737415 
L 321.754113 216.1955 
L 322.079093 141.173799 
L 322.404072 204.311261 
L 322.729052 231.221197 
L 323.054032 168.585147 
L 323.379011 208.161243 
L 323.703991 106.30845 
L 324.02897 97.753615 
L 324.35395 208.592293 
L 324.678929 234.769348 
L 325.003909 72.702432 
L 325.328888 239.527992 
L 325.653868 167.406494 
L 325.978847 135.619545 
L 326.303827 67.252724 
L 326.628806 63.050943 
L 326.953786 87.021227 
L 327.278765 187.810591 
L 327.603745 88.023865 
L 327.928724 187.949499 
L 328.253704 194.685995 
L 328.578683 124.53418 
L 328.903663 96.743795 
L 329.228643 228.769612 
L 329.553622 227.298973 
L 329.878602 74.52519 
L 330.203581 58.633517 
L 330.85354 149.491962 
L 331.17852 61.62524 
L 331.828479 117.684765 
L 332.153458 172.502687 
L 332.478438 198.190873 
L 332.803417 151.63436 
L 333.128397 179.4509 
L 333.453376 168.388456 
L 333.778356 131.179093 
L 334.103335 204.288149 
L 334.428315 69.882577 
L 334.753294 209.259559 
L 335.403253 82.58412 
L 335.728233 137.636969 
L 336.053213 163.797007 
L 336.378192 139.773972 
L 336.703172 60.917599 
L 337.028151 31.010229 
L 337.353131 106.809435 
L 337.67811 72.568786 
L 338.00309 236.905279 
L 338.328069 54.231165 
L 338.653049 38.68574 
L 338.978028 118.618279 
L 339.303008 80.931479 
L 339.952967 179.581456 
L 340.277946 60.1629 
L 340.602926 114.047106 
L 340.927905 117.729304 
L 341.252885 100.904603 
L 341.577864 59.370666 
L 341.902844 85.551463 
L 342.227824 195.421015 
L 342.552803 141.476031 
L 342.877783 33.148069 
L 343.202762 122.966088 
L 343.527742 42.020001 
L 344.177701 99.450756 
L 344.50268 166.256259 
L 344.82766 175.7596 
L 345.152639 104.219188 
L 345.477619 148.704361 
L 345.802598 71.448622 
L 346.127578 79.52813 
L 346.452557 174.111681 
L 346.777537 91.707017 
L 347.427496 171.756911 
L 347.752475 152.838251 
L 348.077455 51.069256 
L 348.402434 164.114385 
L 348.727414 179.329234 
L 349.052394 165.741066 
L 349.377373 194.683833 
L 349.702353 125.060123 
L 350.027332 208.857244 
L 350.352312 67.505552 
L 350.677291 192.371216 
L 351.002271 113.790077 
L 351.32725 213.585288 
L 351.65223 33.537349 
L 351.977209 144.060014 
L 352.302189 66.508178 
L 352.952148 89.393883 
L 353.277127 65.412497 
L 353.602107 218.767119 
L 353.927086 96.819164 
L 354.252066 183.880295 
L 354.577045 74.166334 
L 354.902025 38.091015 
L 355.227005 49.774391 
L 355.551984 215.710451 
L 355.876964 161.997355 
L 356.201943 163.100659 
L 356.526923 214.161075 
L 356.851902 219.260273 
L 357.176882 158.761552 
L 357.501861 30.664269 
L 357.826841 119.931926 
L 358.15182 108.784468 
L 358.4768 140.590933 
L 358.801779 100.229847 
L 359.126759 38.134618 
L 359.451738 115.764143 
L 359.776718 226.240775 
L 360.426677 30.520868 
L 360.751656 158.231471 
L 361.076636 114.670623 
L 361.401615 217.464766 
L 361.726595 210.177062 
L 362.051575 55.4301 
L 362.376554 176.598148 
L 362.701534 175.520797 
L 363.026513 158.271497 
L 363.351493 36.063608 
L 363.676472 222.158069 
L 364.001452 67.227004 
L 364.326431 167.903374 
L 364.651411 60.749386 
L 364.97639 30.730915 
L 365.30137 166.403473 
L 365.626349 212.671603 
L 365.951329 209.503011 
L 366.276308 79.890123 
L 366.601288 209.38781 
L 366.926267 185.02073 
L 367.251247 196.83997 
L 367.576226 164.924327 
L 367.901206 224.272819 
L 368.226186 59.214692 
L 368.551165 58.496585 
L 368.876145 152.84536 
L 369.201124 110.829627 
L 369.526104 104.529208 
L 369.851083 81.890707 
L 370.176063 130.111787 
L 370.501042 132.296183 
L 370.826022 106.775577 
L 371.151001 91.639589 
L 371.475981 166.820568 
L 371.80096 170.263584 
L 372.12594 183.059373 
L 372.450919 124.171606 
L 372.775899 163.979787 
L 373.100878 125.971877 
L 373.425858 154.31121 
L 373.750837 63.43585 
L 374.075817 224.533649 
L 374.400796 119.242487 
L 374.725776 118.522412 
L 375.050756 159.008983 
L 375.375735 151.139032 
L 375.700715 71.15796 
L 376.025694 180.748128 
L 376.350674 56.12159 
L 376.675653 50.860092 
L 377.000633 102.700573 
L 377.325612 76.911892 
L 377.650592 110.648201 
L 377.975571 129.147858 
L 378.300551 36.021608 
L 378.62553 180.330143 
L 378.95051 207.440682 
L 379.275489 179.311072 
L 379.600469 110.294176 
L 379.925448 200.893746 
L 380.250428 48.229136 
L 380.575407 153.247996 
L 380.900387 60.644987 
L 381.225367 187.380439 
L 381.550346 173.892721 
L 381.875326 227.467581 
L 382.525285 136.520279 
L 382.850264 40.355115 
L 383.175244 157.914962 
L 383.500223 104.994965 
L 383.825203 149.727805 
L 384.150182 230.090269 
L 384.475162 133.731503 
L 384.800141 226.056137 
L 385.125121 53.52747 
L 385.4501 81.093483 
L 385.77508 160.077725 
L 386.100059 104.894799 
L 386.425039 216.327342 
L 386.750018 91.743683 
L 387.074998 66.389809 
L 387.399977 66.597986 
L 387.724957 179.987826 
L 388.049937 184.319332 
L 388.374916 129.962504 
L 388.699896 35.79072 
L 389.024875 45.758898 
L 389.349855 164.088902 
L 389.674834 75.44105 
L 389.999814 45.591221 
L 390.324793 184.914212 
L 390.649773 64.794189 
L 390.649773 64.794189 
" style="fill:none;stroke:#1f77b4;stroke-linecap:round;stroke-width:1.5;"/>
   </g>
   <g id="line2d_13">
    <path clip-path="url(#pa92651aab1)" d="M 65.995227 146.646899 
L 66.320207 221.518374 
L 66.645186 261.216 
L 66.970166 256.499155 
L 67.295145 235.009887 
L 67.620125 227.565235 
L 67.945104 230.334679 
L 68.270084 224.226449 
L 68.920043 191.756182 
L 69.570002 201.814859 
L 70.219961 169.320207 
L 70.544941 182.876426 
L 70.86992 212.348381 
L 71.1949 229.930038 
L 71.519879 229.987936 
L 72.819797 176.638232 
L 73.469756 67.258483 
L 73.794736 52.433998 
L 74.769674 178.203056 
L 75.094654 173.328796 
L 75.419633 175.085661 
L 75.744613 179.199557 
L 76.069593 166.849451 
L 77.044531 63.021327 
L 77.369511 64.060542 
L 78.01947 114.194507 
L 78.344449 123.396783 
L 78.994408 130.093998 
L 79.319388 117.407006 
L 79.644367 92.635359 
L 79.969347 99.745784 
L 80.619306 195.295006 
L 80.944285 193.037935 
L 81.919224 97.738304 
L 82.244204 94.731725 
L 82.569183 102.196398 
L 82.894163 113.20755 
L 83.219142 119.989797 
L 83.544122 107.588237 
L 83.869101 90.381812 
L 84.194081 108.344061 
L 84.84404 191.477458 
L 85.169019 187.348787 
L 85.818978 124.375238 
L 86.143958 94.906007 
L 86.468937 94.594999 
L 87.118896 137.030502 
L 87.443876 131.463578 
L 88.093835 87.057893 
L 88.418814 100.703292 
L 88.743794 139.218082 
L 89.068774 157.762438 
L 89.393753 150.229003 
L 89.718733 153.989895 
L 90.043712 173.77703 
L 90.368692 175.935082 
L 91.34363 95.369568 
L 92.318569 150.448093 
L 92.643548 147.274262 
L 92.968528 139.924976 
L 93.618487 121.825828 
L 93.943466 116.011025 
L 94.593425 87.450077 
L 94.918405 98.176404 
L 95.568364 179.902288 
L 95.893344 184.922168 
L 96.868282 143.404026 
L 97.193262 145.042541 
L 97.843221 199.350111 
L 98.1682 198.130404 
L 98.818159 126.293452 
L 99.143139 121.15628 
L 99.468118 123.285847 
L 100.443057 70.07029 
L 100.768036 81.361174 
L 101.742975 175.048141 
L 102.067955 170.4881 
L 102.717914 97.115255 
L 103.042893 87.512529 
L 103.692852 121.246177 
L 104.017832 121.212071 
L 104.342811 110.834704 
L 104.667791 115.236167 
L 105.31775 170.853996 
L 105.642729 169.773904 
L 105.967709 158.18499 
L 106.292688 163.934884 
L 106.617668 175.148106 
L 106.942647 169.782188 
L 107.267627 143.344342 
L 107.592606 107.072705 
L 107.917586 87.746029 
L 108.242566 101.93024 
L 108.567545 125.533762 
L 108.892525 117.35087 
L 109.542484 41.709851 
L 109.867463 58.662122 
L 110.517422 188.320129 
L 110.842402 186.023845 
L 111.492361 86.767897 
L 111.81734 98.302514 
L 112.467299 156.563269 
L 112.792279 162.779596 
L 113.117258 153.241223 
L 113.442238 133.536856 
L 113.767217 125.143875 
L 114.417176 149.579063 
L 114.742156 141.329381 
L 115.067136 117.602091 
L 115.392115 103.560846 
L 115.717095 121.805424 
L 116.042074 155.185477 
L 116.367054 163.955004 
L 116.692033 152.699732 
L 117.017013 152.612506 
L 117.341992 157.582831 
L 117.666972 154.706466 
L 117.991951 159.601372 
L 118.316931 167.511053 
L 118.96689 131.597736 
L 119.291869 145.186849 
L 119.616849 175.42006 
L 119.941828 180.096287 
L 120.591787 132.373118 
L 120.916767 108.715608 
L 121.241747 95.672622 
L 121.566726 95.930309 
L 121.891706 110.698419 
L 122.216685 135.347504 
L 122.541665 146.195665 
L 122.866644 136.663923 
L 123.191624 134.204326 
L 123.841583 168.445957 
L 124.166562 167.809686 
L 124.816521 120.546567 
L 125.141501 114.383119 
L 125.46648 131.337184 
L 126.441419 194.621213 
L 126.766398 205.793225 
L 127.091378 195.826252 
L 128.066317 116.774036 
L 128.391296 103.435945 
L 129.041255 55.629829 
L 129.366235 48.026771 
L 129.691214 67.517595 
L 130.341173 146.514989 
L 130.666153 158.239478 
L 131.316112 122.286872 
L 131.641091 117.804692 
L 131.966071 126.231215 
L 132.29105 141.422294 
L 132.61603 150.60701 
L 132.941009 137.125621 
L 133.590968 72.054052 
L 133.915948 78.332326 
L 134.565907 145.108727 
L 134.890887 142.250731 
L 135.215866 130.319323 
L 135.540846 135.373053 
L 135.865825 148.005257 
L 136.190805 142.781379 
L 136.515784 123.927516 
L 136.840764 116.321844 
L 137.165743 121.501014 
L 137.490723 128.923608 
L 138.140682 148.448781 
L 138.790641 155.199028 
L 139.4406 170.175266 
L 139.765579 169.179602 
L 140.090559 166.184479 
L 140.415538 159.815803 
L 140.740518 135.444115 
L 141.390477 60.975468 
L 141.715457 59.177716 
L 142.040436 90.200505 
L 142.690395 180.633475 
L 143.015375 188.691287 
L 143.665334 121.951432 
L 143.990313 121.805184 
L 144.640272 178.922461 
L 144.965252 193.438073 
L 145.290231 182.404024 
L 145.94019 130.192002 
L 147.240109 77.878156 
L 147.565088 92.158049 
L 147.890068 111.386781 
L 148.215047 121.628557 
L 148.540027 137.762531 
L 148.865006 167.481977 
L 149.189986 181.65119 
L 150.814883 120.05404 
L 151.139863 122.466603 
L 151.464842 136.686557 
L 152.114801 190.079087 
L 152.439781 195.309795 
L 153.414719 108.196545 
L 153.739699 112.01555 
L 154.064679 124.580634 
L 154.714638 165.597185 
L 155.039617 154.555938 
L 155.364597 118.440829 
L 155.689576 95.064331 
L 156.014556 96.738459 
L 156.664515 115.965213 
L 156.989494 130.468395 
L 157.314474 137.603879 
L 157.639453 141.524223 
L 158.289412 192.880429 
L 158.614392 180.880151 
L 159.264351 85.980291 
L 159.58933 73.531321 
L 159.91431 92.525073 
L 160.23929 118.661821 
L 160.564269 120.993102 
L 160.889249 100.506949 
L 161.214228 88.46801 
L 161.539208 99.323101 
L 161.864187 118.67698 
L 162.189167 123.90678 
L 162.839126 94.030552 
L 163.164105 123.960636 
L 163.489085 185.351988 
L 163.814064 222.557183 
L 164.139044 200.55211 
L 164.789003 86.822859 
L 165.113982 84.055024 
L 166.088921 218.192006 
L 166.4139 180.540634 
L 167.06386 53.390297 
L 167.388839 69.262566 
L 168.038798 187.937894 
L 168.363778 171.64328 
L 168.688757 123.612343 
L 169.013737 114.546243 
L 169.338716 147.58344 
L 169.663696 161.378436 
L 170.313655 118.425899 
L 170.638634 119.541532 
L 170.963614 122.934531 
L 171.288593 120.866142 
L 171.613573 129.385908 
L 172.263532 189.82317 
L 172.588511 192.341811 
L 172.913491 166.652236 
L 173.56345 104.380653 
L 173.88843 105.34949 
L 174.538389 152.3738 
L 174.863368 139.202691 
L 175.188348 105.15604 
L 175.513327 103.51395 
L 175.838307 133.632349 
L 176.163286 150.085207 
L 176.488266 145.410712 
L 176.813245 137.7599 
L 177.138225 135.650741 
L 177.463204 147.018925 
L 177.788184 163.370563 
L 178.113163 161.605608 
L 178.438143 148.467851 
L 178.763122 143.568739 
L 179.088102 135.723527 
L 179.413081 117.221465 
L 179.738061 105.384878 
L 180.38802 97.091392 
L 180.713 105.32678 
L 181.037979 123.609922 
L 181.362959 133.400245 
L 182.012918 141.788409 
L 182.337897 134.207754 
L 182.662877 115.596948 
L 182.987856 104.685145 
L 183.312836 113.542026 
L 183.962795 158.674913 
L 184.287774 150.328558 
L 184.937733 93.977876 
L 185.262713 87.523455 
L 185.587692 94.21442 
L 185.912672 117.608729 
L 186.562631 182.31565 
L 186.887611 176.526813 
L 187.21259 160.234183 
L 187.53757 164.173689 
L 187.862549 187.550607 
L 188.187529 193.579811 
L 188.512508 156.489433 
L 188.837488 98.135237 
L 189.162467 67.142063 
L 189.487447 87.898555 
L 190.137406 175.657643 
L 190.462385 180.67174 
L 191.112344 125.022513 
L 191.437324 132.984435 
L 191.762303 160.97223 
L 192.087283 176.965053 
L 192.412262 175.140467 
L 192.737242 163.443102 
L 193.062222 145.440724 
L 194.03716 77.707631 
L 194.36214 70.703437 
L 194.687119 78.383192 
L 195.662058 169.661892 
L 196.312017 175.265423 
L 196.636996 172.278022 
L 197.611935 86.368123 
L 198.586873 125.503047 
L 198.911853 155.810162 
L 199.236833 174.513804 
L 199.886792 145.999546 
L 200.211771 157.587077 
L 200.536751 162.553197 
L 200.86173 130.819544 
L 201.18671 86.763281 
L 201.511689 70.588427 
L 201.836669 89.941181 
L 202.486628 159.289805 
L 202.811607 154.369184 
L 203.136587 132.879288 
L 203.461566 137.749544 
L 203.786546 154.616505 
L 204.111525 139.939779 
L 204.761484 71.769766 
L 205.086464 72.909516 
L 205.736423 100.947868 
L 206.061403 106.751607 
L 206.386382 108.944857 
L 206.711362 123.907545 
L 207.361321 181.081654 
L 207.6863 174.472159 
L 208.01128 165.509577 
L 208.336259 180.391645 
L 208.661239 202.270941 
L 208.986218 204.537191 
L 209.636177 170.684242 
L 209.961157 169.012464 
L 210.286136 158.417253 
L 210.611116 136.822411 
L 210.936095 142.092486 
L 211.261075 169.027048 
L 211.586054 165.728768 
L 212.236014 101.538855 
L 212.560993 114.181661 
L 213.210952 206.733072 
L 213.535932 218.336015 
L 213.860911 177.286729 
L 214.51087 52.913592 
L 214.83585 42.83122 
L 215.485809 76.179648 
L 215.810788 97.671572 
L 216.460747 161.915976 
L 216.785727 159.879676 
L 217.435686 92.969939 
L 217.760665 88.061548 
L 218.085645 100.512355 
L 218.410624 107.969392 
L 218.735604 105.923729 
L 219.060584 110.465918 
L 219.385563 121.228369 
L 219.710543 121.288595 
L 220.360502 101.553135 
L 220.685481 106.142615 
L 221.985399 186.455003 
L 222.310379 170.897582 
L 222.635358 146.694506 
L 222.960338 142.373919 
L 223.285317 148.848803 
L 223.610297 127.182766 
L 223.935276 81.220313 
L 224.260256 58.393569 
L 224.585235 79.723792 
L 225.235195 165.852465 
L 225.560174 181.566443 
L 225.885154 166.539001 
L 226.210133 138.980026 
L 226.535113 125.034599 
L 226.860092 129.712987 
L 227.185072 136.502461 
L 227.510051 128.448854 
L 227.835031 111.6808 
L 228.16001 113.005138 
L 229.134949 190.590171 
L 229.459928 184.254037 
L 230.109887 165.98429 
L 230.759846 115.606107 
L 231.084826 126.904002 
L 231.409805 175.816193 
L 231.734785 207.536496 
L 232.059765 187.872361 
L 232.384744 137.739553 
L 232.709724 105.119762 
L 233.034703 111.927833 
L 233.359683 132.620757 
L 233.684662 136.564657 
L 234.334621 109.325544 
L 234.659601 111.336174 
L 234.98458 128.027824 
L 235.30956 136.614836 
L 235.634539 136.372169 
L 235.959519 140.026564 
L 236.284498 130.684627 
L 236.934457 76.37905 
L 237.259437 94.754168 
L 237.909396 170.141428 
L 238.234376 166.276074 
L 238.559355 141.610125 
L 238.884335 127.915947 
L 239.209314 148.168334 
L 239.534294 185.209426 
L 239.859273 186.261808 
L 240.834212 19.296 
L 241.159191 52.763983 
L 241.484171 122.238182 
L 241.80915 166.747881 
L 242.13413 161.511591 
L 242.459109 145.505659 
L 242.784089 154.225068 
L 243.109068 172.29033 
L 243.434048 175.434543 
L 243.759027 170.977981 
L 244.084007 174.233231 
L 244.408986 176.047818 
L 244.733966 160.933044 
L 245.383925 110.889913 
L 245.708905 108.942401 
L 246.683843 156.167702 
L 247.008823 134.086927 
L 247.333802 91.125401 
L 247.658782 73.459987 
L 248.308741 136.378082 
L 248.63372 145.68155 
L 248.9587 140.396536 
L 249.283679 143.504594 
L 249.608659 152.882249 
L 249.933638 153.128368 
L 250.583597 122.294974 
L 250.908577 119.608814 
L 251.233557 115.414502 
L 251.558536 103.693976 
L 251.883516 114.194154 
L 252.208495 148.641991 
L 252.533475 162.248243 
L 253.183434 112.86302 
L 253.508413 127.171804 
L 253.833393 157.854599 
L 254.158372 145.63721 
L 254.483352 98.176604 
L 254.808331 85.05908 
L 255.45829 138.247892 
L 255.78327 123.267513 
L 256.108249 96.600098 
L 256.433229 101.101546 
L 257.408167 222.805554 
L 257.733147 216.069006 
L 258.708086 116.820154 
L 259.033065 103.374114 
L 259.358045 97.606979 
L 259.683024 115.79539 
L 260.008004 150.856839 
L 260.332983 172.284112 
L 260.657963 166.85158 
L 261.307922 130.544824 
L 261.957881 103.052196 
L 262.28286 100.112765 
L 262.932819 137.415902 
L 263.257799 141.335975 
L 263.582778 147.823901 
L 263.907758 165.583269 
L 264.232738 160.944558 
L 264.882697 96.42595 
L 265.207676 98.310043 
L 265.857635 144.265144 
L 266.182615 147.123258 
L 266.832574 74.528797 
L 267.157553 81.329462 
L 267.807512 145.601693 
L 268.132492 159.84474 
L 268.457471 166.486619 
L 268.782451 166.340305 
L 269.10743 166.946219 
L 269.43241 168.670386 
L 269.757389 163.843254 
L 270.407348 142.718579 
L 270.732328 141.116035 
L 271.057308 141.969066 
L 271.382287 131.348796 
L 271.707267 112.193273 
L 272.032246 108.917417 
L 272.357226 122.756952 
L 272.682205 126.28752 
L 273.007185 116.526615 
L 273.332164 114.588138 
L 273.657144 127.64899 
L 274.307103 166.233349 
L 274.632082 170.311293 
L 274.957062 169.327312 
L 275.282041 162.553209 
L 275.932 113.268472 
L 276.25698 107.566375 
L 276.581959 105.914327 
L 276.906939 99.262444 
L 277.231919 111.898789 
L 277.556898 141.859615 
L 277.881878 147.898129 
L 278.531837 87.829622 
L 278.856816 88.971045 
L 279.506775 142.195238 
L 279.831755 152.000716 
L 280.156734 142.548525 
L 280.481714 137.329724 
L 280.806693 151.978292 
L 281.131673 160.792672 
L 281.456652 135.593032 
L 281.781632 97.226613 
L 282.106611 82.281505 
L 282.431591 94.134961 
L 282.75657 125.601362 
L 283.406529 211.746997 
L 283.731509 224.438758 
L 284.056489 211.463459 
L 285.031427 96.433389 
L 285.356407 83.266288 
L 285.681386 89.629062 
L 286.331345 128.029367 
L 286.656325 115.952928 
L 286.981304 94.449522 
L 287.306284 105.690733 
L 287.631263 145.434659 
L 287.956243 160.324504 
L 288.606202 115.961687 
L 289.256161 141.915206 
L 289.58114 138.133282 
L 289.90612 138.478368 
L 290.556079 205.830441 
L 290.881059 213.68041 
L 291.206038 190.080734 
L 291.855997 103.197536 
L 292.180977 89.530373 
L 292.505956 114.755787 
L 292.830936 152.243269 
L 293.155915 176.331016 
L 293.480895 180.869752 
L 293.805874 173.448153 
L 294.455833 151.843248 
L 294.780813 134.459632 
L 295.755751 61.819425 
L 296.080731 49.342116 
L 296.40571 62.449144 
L 297.05567 135.379771 
L 297.380649 137.663294 
L 298.030608 92.524938 
L 298.355588 104.513788 
L 298.680567 140.815865 
L 299.005547 161.72167 
L 299.655506 140.583166 
L 299.980485 147.19204 
L 300.630444 169.704374 
L 300.955424 173.519215 
L 301.280403 171.658975 
L 301.605383 171.880186 
L 301.930362 161.189713 
L 302.580321 65.463305 
L 302.905301 57.519545 
L 303.55526 126.281765 
L 303.88024 123.518917 
L 304.205219 112.034213 
L 304.530199 128.65406 
L 305.180158 197.599818 
L 305.505137 196.851888 
L 306.480076 107.677966 
L 306.805055 113.941553 
L 307.779994 165.462541 
L 308.104973 149.070266 
L 308.429953 112.462076 
L 308.754932 100.832147 
L 309.079912 117.029168 
L 309.404891 122.057459 
L 309.729871 110.357977 
L 310.054851 115.043583 
L 311.029789 204.013932 
L 311.354769 201.33705 
L 312.004728 121.297684 
L 312.329707 103.45169 
L 312.654687 103.379471 
L 313.304646 96.627295 
L 313.629625 112.710439 
L 313.954605 139.184605 
L 314.279584 152.322051 
L 314.604564 152.852298 
L 314.929543 149.867072 
L 315.254523 140.903515 
L 316.229462 95.012434 
L 316.879421 71.110558 
L 317.2044 100.438517 
L 317.52938 160.645687 
L 317.854359 189.270884 
L 318.504318 144.803807 
L 318.829298 142.473876 
L 319.154277 139.240828 
L 319.479257 127.816716 
L 320.129216 114.776043 
L 320.454195 98.552371 
L 320.779175 93.750532 
L 321.104154 109.430106 
L 322.079093 170.839854 
L 322.404072 189.036851 
L 322.729052 198.208284 
L 323.054032 185.317916 
L 323.703991 123.427752 
L 324.02897 128.836965 
L 324.35395 158.005776 
L 324.678929 172.06649 
L 325.003909 170.213644 
L 325.328888 171.135498 
L 325.653868 158.85498 
L 326.303827 75.285598 
L 326.628806 64.954041 
L 327.928724 159.466092 
L 328.253704 154.072397 
L 328.578683 140.938947 
L 328.903663 152.727354 
L 329.228643 179.988665 
L 329.553622 170.357378 
L 329.878602 120.986158 
L 330.203581 88.607866 
L 330.85354 102.789522 
L 331.17852 94.172647 
L 331.503499 95.13486 
L 332.478438 183.313992 
L 332.803417 182.335846 
L 333.453376 167.502663 
L 334.103335 157.082915 
L 334.753294 154.360098 
L 335.403253 134.144193 
L 336.053213 153.677051 
L 336.378192 130.748892 
L 336.703172 88.193868 
L 337.028151 69.40358 
L 337.353131 94.417217 
L 337.67811 136.830339 
L 338.00309 148.62196 
L 338.653049 87.211664 
L 338.978028 92.125902 
L 339.627987 145.426668 
L 339.952967 147.161938 
L 340.602926 121.123028 
L 340.927905 115.222476 
L 341.252885 104.186993 
L 341.577864 103.774668 
L 342.227824 156.241394 
L 342.552803 146.554513 
L 343.202762 85.53076 
L 343.527742 75.972744 
L 343.852721 89.330369 
L 344.50268 163.727378 
L 344.82766 173.473425 
L 345.152639 154.744166 
L 345.477619 126.911781 
L 345.802598 110.07482 
L 346.127578 114.896411 
L 346.777537 144.972558 
L 347.102516 156.246284 
L 347.427496 157.631159 
L 348.077455 129.554315 
L 348.402434 147.246662 
L 348.727414 176.877669 
L 349.052394 191.082728 
L 349.377373 186.625649 
L 350.352312 148.692497 
L 351.002271 161.828372 
L 351.32725 150.180682 
L 351.977209 102.584007 
L 352.302189 88.337128 
L 352.627168 80.819089 
L 352.952148 89.966811 
L 353.602107 154.794463 
L 353.927086 163.522952 
L 354.252066 136.27522 
L 354.577045 89.366318 
L 354.902025 64.885752 
L 355.227005 92.818075 
L 355.876964 183.063052 
L 356.201943 201.097295 
L 356.526923 211.097322 
L 356.851902 194.530513 
L 357.501861 99.870917 
L 357.826841 96.142593 
L 358.15182 114.477196 
L 358.4768 115.032921 
L 358.801779 95.240538 
L 359.126759 93.897073 
L 359.776718 154.999011 
L 360.101697 134.909546 
L 360.426677 104.286775 
L 360.751656 112.878541 
L 361.401615 180.672772 
L 361.726595 169.533136 
L 362.051575 146.469918 
L 362.376554 145.517664 
L 362.701534 150.137176 
L 363.351493 126.168522 
L 363.676472 130.348692 
L 364.001452 128.457879 
L 364.651411 75.899415 
L 364.97639 85.427773 
L 365.626349 182.033935 
L 365.951329 178.959386 
L 366.276308 159.556743 
L 366.601288 163.633614 
L 366.926267 183.601233 
L 367.251247 195.196574 
L 367.576226 186.639677 
L 368.551165 87.48241 
L 369.201124 109.161605 
L 369.526104 103.455095 
L 369.851083 101.919849 
L 370.176063 109.642624 
L 370.501042 111.838484 
L 370.826022 107.407071 
L 371.151001 115.740144 
L 371.80096 162.936736 
L 372.12594 162.8266 
L 373.100878 127.566348 
L 373.425858 121.240097 
L 373.750837 127.347372 
L 374.075817 138.86092 
L 374.400796 139.03486 
L 374.725776 133.218814 
L 375.050756 131.426069 
L 375.375735 127.775699 
L 375.700715 118.966204 
L 376.025694 102.622511 
L 376.350674 78.091347 
L 376.675653 62.854188 
L 377.000633 69.064639 
L 377.325612 83.801801 
L 377.650592 89.833733 
L 377.975571 87.990292 
L 378.300551 101.686075 
L 378.95051 173.743871 
L 379.275489 172.415107 
L 380.250428 101.309687 
L 380.575407 91.761078 
L 380.900387 108.091294 
L 381.550346 189.335886 
L 381.875326 203.058732 
L 382.200305 175.381777 
L 382.525285 125.669515 
L 382.850264 94.486332 
L 383.175244 100.254366 
L 384.150182 192.733393 
L 384.475162 190.894376 
L 385.125121 117.486152 
L 385.4501 108.081328 
L 386.100059 167.763715 
L 386.425039 167.998816 
L 387.074998 107.399602 
L 387.399977 129.51334 
L 387.724957 178.885207 
L 388.049937 195.584635 
L 388.699896 119.866197 
L 389.024875 118.361431 
L 389.674834 157.006751 
L 389.999814 167.162602 
L 390.324793 164.86347 
L 390.649773 135.376346 
L 390.649773 135.376346 
" style="fill:none;stroke:#ff7f0e;stroke-linecap:round;stroke-width:1.5;"/>
   </g>
   <g id="patch_3">
    <path d="M 49.7625 273.312 
L 49.7625 7.2 
" style="fill:none;stroke:#262626;stroke-linecap:square;stroke-linejoin:miter;stroke-width:1.25;"/>
   </g>
   <g id="patch_4">
    <path d="M 49.7625 273.312 
L 406.8825 273.312 
" style="fill:none;stroke:#262626;stroke-linecap:square;stroke-linejoin:miter;stroke-width:1.25;"/>
   </g>
   <g id="legend_1">
    <g id="line2d_14">
     <path d="M 161.442813 244.415125 
L 181.442813 244.415125 
" style="fill:none;stroke:#1f77b4;stroke-linecap:round;stroke-width:1.5;"/>
    </g>
    <g id="line2d_15"/>
    <g id="text_14">
     <!-- raw -->
     <defs>
      <path d="M 57.328125 0 
L 47.125 0 
L 38.671875 34.078125 
Q 38.28125 35.40625 37.859375 37.359375 
Q 37.453125 39.3125 37.0625 41.15625 
Q 36.578125 43.3125 36.140625 45.609375 
Q 35.6875 43.40625 35.203125 41.265625 
Q 34.8125 39.40625 34.34375 37.40625 
Q 33.890625 35.40625 33.5 33.890625 
L 24.8125 0 
L 14.65625 0 
L -0.140625 52.828125 
L 8.546875 52.828125 
L 17.484375 16.9375 
Q 17.828125 15.828125 18.15625 14.1875 
Q 18.5 12.546875 18.84375 10.984375 
Q 19.1875 9.1875 19.578125 7.28125 
Q 19.96875 9.125 20.40625 10.890625 
Q 20.796875 12.40625 21.1875 13.96875 
Q 21.578125 15.53125 21.875 16.546875 
L 31.453125 52.828125 
L 40.875 52.828125 
L 50.09375 16.546875 
Q 50.4375 15.28125 50.828125 13.671875 
Q 51.21875 12.0625 51.5625 10.640625 
Q 51.953125 8.984375 52.34375 7.28125 
Q 52.734375 9.125 53.125 10.890625 
Q 53.46875 12.40625 53.828125 14.03125 
Q 54.203125 15.671875 54.546875 16.9375 
L 63.875 52.828125 
L 72.46875 52.828125 
z
" id="LiberationSans-119"/>
     </defs>
     <g style="fill:#262626;" transform="translate(189.442813 247.915125)scale(0.1 -0.1)">
      <use xlink:href="#LiberationSans-114"/>
      <use x="33.300781" xlink:href="#LiberationSans-97"/>
      <use x="88.916016" xlink:href="#LiberationSans-119"/>
     </g>
    </g>
    <g id="line2d_16">
     <path d="M 161.442813 258.737 
L 181.442813 258.737 
" style="fill:none;stroke:#ff7f0e;stroke-linecap:round;stroke-width:1.5;"/>
    </g>
    <g id="line2d_17"/>
    <g id="text_15">
     <!-- band-pass @ 10-200Hz -->
     <defs>
      <path d="M 51.421875 26.65625 
Q 51.421875 -0.984375 31.984375 -0.984375 
Q 25.984375 -0.984375 22 1.1875 
Q 18.015625 3.375 15.53125 8.203125 
L 15.4375 8.203125 
Q 15.4375 6.9375 15.359375 5.5625 
Q 15.28125 4.203125 15.203125 3.03125 
Q 15.140625 1.859375 15.0625 1.03125 
Q 14.984375 0.203125 14.9375 0 
L 6.453125 0 
Q 6.5 0.4375 6.546875 1.484375 
Q 6.59375 2.546875 6.640625 4 
Q 6.6875 5.46875 6.703125 7.21875 
Q 6.734375 8.984375 6.734375 10.890625 
L 6.734375 72.46875 
L 15.53125 72.46875 
L 15.53125 51.8125 
Q 15.53125 50.34375 15.5 49 
Q 15.484375 47.65625 15.4375 46.625 
Q 15.375 45.40625 15.328125 44.34375 
L 15.53125 44.34375 
Q 17.96875 49.421875 22 51.609375 
Q 26.03125 53.8125 31.984375 53.8125 
Q 42 53.8125 46.703125 47.0625 
Q 51.421875 40.328125 51.421875 26.65625 
z
M 42.1875 26.375 
Q 42.1875 31.84375 41.5 35.75 
Q 40.828125 39.65625 39.3125 42.15625 
Q 37.796875 44.671875 35.453125 45.84375 
Q 33.109375 47.015625 29.734375 47.015625 
Q 26.265625 47.015625 23.609375 45.890625 
Q 20.953125 44.78125 19.171875 42.28125 
Q 17.390625 39.796875 16.453125 35.734375 
Q 15.53125 31.6875 15.53125 25.828125 
Q 15.53125 20.171875 16.453125 16.3125 
Q 17.390625 12.453125 19.171875 10.03125 
Q 20.953125 7.625 23.578125 6.5625 
Q 26.21875 5.515625 29.640625 5.515625 
Q 32.859375 5.515625 35.203125 6.640625 
Q 37.546875 7.765625 39.109375 10.25 
Q 40.671875 12.75 41.421875 16.71875 
Q 42.1875 20.703125 42.1875 26.375 
z
" id="LiberationSans-98"/>
      <path d="M 40.09375 8.5 
Q 37.640625 3.421875 33.609375 1.21875 
Q 29.59375 -0.984375 23.640625 -0.984375 
Q 13.625 -0.984375 8.90625 5.75 
Q 4.203125 12.5 4.203125 26.171875 
Q 4.203125 53.8125 23.640625 53.8125 
Q 29.640625 53.8125 33.640625 51.609375 
Q 37.640625 49.421875 40.09375 44.625 
L 40.1875 44.625 
Q 40.1875 45.125 40.15625 46.171875 
Q 40.140625 47.21875 40.109375 48.359375 
Q 40.09375 49.515625 40.09375 50.53125 
Q 40.09375 51.5625 40.09375 52 
L 40.09375 72.46875 
L 48.875 72.46875 
L 48.875 10.890625 
Q 48.875 8.984375 48.890625 7.21875 
Q 48.921875 5.46875 48.96875 4 
Q 49.03125 2.546875 49.078125 1.484375 
Q 49.125 0.4375 49.171875 0 
L 40.765625 0 
Q 40.671875 0.484375 40.59375 1.390625 
Q 40.53125 2.296875 40.453125 3.46875 
Q 40.375 4.640625 40.328125 5.9375 
Q 40.28125 7.234375 40.28125 8.5 
z
M 13.421875 26.46875 
Q 13.421875 21 14.109375 17.09375 
Q 14.796875 13.1875 16.3125 10.671875 
Q 17.828125 8.15625 20.171875 6.984375 
Q 22.515625 5.8125 25.875 5.8125 
Q 29.34375 5.8125 32 6.9375 
Q 34.671875 8.0625 36.453125 10.578125 
Q 38.234375 13.09375 39.15625 17.140625 
Q 40.09375 21.1875 40.09375 27.046875 
Q 40.09375 32.671875 39.15625 36.546875 
Q 38.234375 40.4375 36.421875 42.828125 
Q 34.625 45.21875 32 46.265625 
Q 29.390625 47.3125 25.984375 47.3125 
Q 22.75 47.3125 20.40625 46.1875 
Q 18.0625 45.0625 16.5 42.578125 
Q 14.9375 40.09375 14.171875 36.109375 
Q 13.421875 32.125 13.421875 26.46875 
z
" id="LiberationSans-100"/>
      <path d="M 4.4375 22.65625 
L 4.4375 30.46875 
L 28.859375 30.46875 
L 28.859375 22.65625 
z
" id="LiberationSans-45"/>
      <path d="M 51.421875 26.65625 
Q 51.421875 20.65625 50.4375 15.578125 
Q 49.46875 10.5 47.1875 6.828125 
Q 44.921875 3.171875 41.1875 1.09375 
Q 37.453125 -0.984375 31.984375 -0.984375 
Q 26.3125 -0.984375 22.0625 1.171875 
Q 17.828125 3.328125 15.578125 8.203125 
L 15.328125 8.203125 
Q 15.375 8.109375 15.40625 7.328125 
Q 15.4375 6.546875 15.453125 5.375 
Q 15.484375 4.203125 15.5 2.75 
Q 15.53125 1.3125 15.53125 -0.09375 
L 15.53125 -20.75 
L 6.734375 -20.75 
L 6.734375 42.046875 
Q 6.734375 43.953125 6.703125 45.703125 
Q 6.6875 47.46875 6.640625 48.90625 
Q 6.59375 50.34375 6.546875 51.359375 
Q 6.5 52.390625 6.453125 52.828125 
L 14.9375 52.828125 
Q 14.984375 52.6875 15.0625 51.796875 
Q 15.140625 50.921875 15.203125 49.671875 
Q 15.28125 48.4375 15.359375 47.015625 
Q 15.4375 45.609375 15.4375 44.34375 
L 15.625 44.34375 
Q 16.84375 46.875 18.40625 48.65625 
Q 19.96875 50.4375 21.96875 51.578125 
Q 23.96875 52.734375 26.4375 53.25 
Q 28.90625 53.765625 31.984375 53.765625 
Q 37.453125 53.765625 41.1875 51.8125 
Q 44.921875 49.859375 47.1875 46.3125 
Q 49.46875 42.78125 50.4375 37.765625 
Q 51.421875 32.765625 51.421875 26.65625 
z
M 42.1875 26.46875 
Q 42.1875 31.34375 41.59375 35.15625 
Q 41.015625 38.96875 39.578125 41.59375 
Q 38.140625 44.234375 35.734375 45.59375 
Q 33.34375 46.96875 29.734375 46.96875 
Q 26.8125 46.96875 24.21875 46.140625 
Q 21.625 45.3125 19.703125 42.96875 
Q 17.78125 40.625 16.65625 36.5 
Q 15.53125 32.375 15.53125 25.78125 
Q 15.53125 20.171875 16.453125 16.28125 
Q 17.390625 12.40625 19.171875 10.015625 
Q 20.953125 7.625 23.578125 6.5625 
Q 26.21875 5.515625 29.640625 5.515625 
Q 33.296875 5.515625 35.71875 6.921875 
Q 38.140625 8.34375 39.578125 11.03125 
Q 41.015625 13.71875 41.59375 17.59375 
Q 42.1875 21.484375 42.1875 26.46875 
z
" id="LiberationSans-112"/>
      <path id="LiberationSans-32"/>
      <path d="M 92.875 36.859375 
Q 92.875 29.828125 91.234375 24 
Q 89.59375 18.171875 86.71875 13.96875 
Q 83.84375 9.765625 79.8125 7.421875 
Q 75.78125 5.078125 71.046875 5.078125 
Q 68.3125 5.078125 66.375 5.734375 
Q 64.453125 6.390625 63.234375 7.53125 
Q 62.015625 8.6875 61.46875 10.25 
Q 60.9375 11.8125 60.9375 13.671875 
Q 60.9375 14.40625 60.984375 15.453125 
Q 61.03125 16.5 61.078125 17.09375 
L 60.796875 17.09375 
Q 59.625 14.890625 57.9375 12.71875 
Q 56.25 10.546875 53.96875 8.859375 
Q 51.703125 7.171875 48.84375 6.125 
Q 46 5.078125 42.53125 5.078125 
Q 38.421875 5.078125 35.375 6.484375 
Q 32.328125 7.90625 30.34375 10.421875 
Q 28.375 12.9375 27.390625 16.375 
Q 26.421875 19.828125 26.421875 23.875 
Q 26.421875 29.734375 28.15625 35.125 
Q 29.890625 40.53125 33.109375 44.65625 
Q 36.328125 48.78125 40.84375 51.265625 
Q 45.359375 53.765625 50.921875 53.765625 
Q 53.859375 53.765625 56.203125 53.09375 
Q 58.546875 52.4375 60.328125 51.265625 
Q 62.109375 50.09375 63.421875 48.453125 
Q 64.75 46.828125 65.625 44.875 
L 65.921875 44.875 
L 67.828125 52.6875 
L 75.4375 52.6875 
L 69.78125 27.984375 
Q 68.84375 23.875 68.40625 20.9375 
Q 67.96875 18.015625 67.96875 15.625 
Q 67.96875 13.28125 69.015625 12.15625 
Q 70.0625 11.03125 71.921875 11.03125 
Q 74.953125 11.03125 77.5625 13 
Q 80.171875 14.984375 82.09375 18.453125 
Q 84.03125 21.921875 85.125 26.609375 
Q 86.234375 31.296875 86.234375 36.765625 
Q 86.234375 43.0625 84.203125 48.484375 
Q 82.171875 53.90625 78.234375 57.859375 
Q 74.3125 61.8125 68.5 64.0625 
Q 62.703125 66.3125 55.078125 66.3125 
Q 48.53125 66.3125 42.984375 64.75 
Q 37.453125 63.1875 32.953125 60.34375 
Q 28.46875 57.515625 25.078125 53.578125 
Q 21.6875 49.65625 19.390625 44.96875 
Q 17.09375 40.28125 15.921875 34.9375 
Q 14.75 29.59375 14.75 23.96875 
Q 14.75 17.09375 16.84375 11.28125 
Q 18.953125 5.46875 22.96875 1.296875 
Q 27 -2.875 32.9375 -5.21875 
Q 38.875 -7.5625 46.578125 -7.5625 
Q 51.703125 -7.5625 56.140625 -6.75 
Q 60.59375 -5.953125 64.296875 -4.78125 
Q 68.015625 -3.609375 70.9375 -2.21875 
Q 73.875 -0.828125 76.03125 0.34375 
L 78.71875 -5.125 
Q 76.265625 -6.59375 72.96875 -8.125 
Q 69.671875 -9.671875 65.625 -10.9375 
Q 61.578125 -12.203125 56.78125 -13 
Q 52 -13.8125 46.578125 -13.8125 
Q 37.3125 -13.8125 30.109375 -11 
Q 22.90625 -8.203125 17.9375 -3.171875 
Q 12.984375 1.859375 10.421875 8.78125 
Q 7.859375 15.71875 7.859375 23.96875 
Q 7.859375 30.765625 9.390625 37.015625 
Q 10.9375 43.265625 13.8125 48.625 
Q 16.703125 54 20.84375 58.390625 
Q 25 62.796875 30.25 65.921875 
Q 35.5 69.046875 41.71875 70.75 
Q 47.953125 72.46875 54.984375 72.46875 
Q 64.796875 72.46875 71.921875 69.578125 
Q 79.046875 66.703125 83.703125 61.8125 
Q 88.375 56.9375 90.625 50.484375 
Q 92.875 44.046875 92.875 36.859375 
z
M 63.28125 36.46875 
Q 63.28125 38.921875 62.453125 40.96875 
Q 61.625 43.015625 60.078125 44.484375 
Q 58.546875 45.953125 56.375 46.75 
Q 54.203125 47.5625 51.46875 47.5625 
Q 47.265625 47.5625 44.09375 45.484375 
Q 40.921875 43.40625 38.796875 40.03125 
Q 36.671875 36.671875 35.5625 32.4375 
Q 34.46875 28.21875 34.46875 23.96875 
Q 34.46875 18.109375 36.78125 14.78125 
Q 39.109375 11.46875 43.953125 11.46875 
Q 47.3125 11.46875 50.234375 12.984375 
Q 53.171875 14.5 55.515625 16.984375 
Q 57.859375 19.484375 59.5625 22.703125 
Q 61.28125 25.921875 62.15625 29.390625 
Q 62.59375 31.15625 62.9375 33.109375 
Q 63.28125 35.0625 63.28125 36.46875 
z
" id="LiberationSans-64"/>
      <path d="M 54.734375 0 
L 54.734375 31.890625 
L 17.53125 31.890625 
L 17.53125 0 
L 8.203125 0 
L 8.203125 68.796875 
L 17.53125 68.796875 
L 17.53125 39.703125 
L 54.734375 39.703125 
L 54.734375 68.796875 
L 64.0625 68.796875 
L 64.0625 0 
z
" id="LiberationSans-72"/>
      <path d="M 2.390625 0 
L 2.390625 6.6875 
L 34.671875 46.046875 
L 4.34375 46.046875 
L 4.34375 52.828125 
L 44.578125 52.828125 
L 44.578125 46.140625 
L 12.25 6.78125 
L 46.390625 6.78125 
L 46.390625 0 
z
" id="LiberationSans-122"/>
     </defs>
     <g style="fill:#262626;" transform="translate(189.442813 262.237)scale(0.1 -0.1)">
      <use xlink:href="#LiberationSans-98"/>
      <use x="55.615234" xlink:href="#LiberationSans-97"/>
      <use x="111.230469" xlink:href="#LiberationSans-110"/>
      <use x="166.845703" xlink:href="#LiberationSans-100"/>
      <use x="222.460938" xlink:href="#LiberationSans-45"/>
      <use x="255.761719" xlink:href="#LiberationSans-112"/>
      <use x="311.376953" xlink:href="#LiberationSans-97"/>
      <use x="366.992188" xlink:href="#LiberationSans-115"/>
      <use x="416.992188" xlink:href="#LiberationSans-115"/>
      <use x="466.992188" xlink:href="#LiberationSans-32"/>
      <use x="494.775391" xlink:href="#LiberationSans-64"/>
      <use x="596.289062" xlink:href="#LiberationSans-32"/>
      <use x="624.072266" xlink:href="#LiberationSans-49"/>
      <use x="679.6875" xlink:href="#LiberationSans-48"/>
      <use x="735.302734" xlink:href="#LiberationSans-45"/>
      <use x="768.603516" xlink:href="#LiberationSans-50"/>
      <use x="824.21875" xlink:href="#LiberationSans-48"/>
      <use x="879.833984" xlink:href="#LiberationSans-48"/>
      <use x="935.449219" xlink:href="#LiberationSans-72"/>
      <use x="1007.666016" xlink:href="#LiberationSans-122"/>
     </g>
    </g>
   </g>
  </g>
 </g>
 <defs>
  <clipPath id="pa92651aab1">
   <rect height="266.112" width="357.12" x="49.7625" y="7.2"/>
  </clipPath>
 </defs>
</svg>
