<?xml version="1.0" encoding="utf-8" standalone="no"?>
<!DOCTYPE svg PUBLIC "-//W3C//DTD SVG 1.1//EN"
  "http://www.w3.org/Graphics/SVG/1.1/DTD/svg11.dtd">
<!-- Created with matplotlib (https://matplotlib.org/) -->
<svg height="312.65575pt" version="1.1" viewBox="0 0 414.0825 312.65575" width="414.0825pt" xmlns="http://www.w3.org/2000/svg" xmlns:xlink="http://www.w3.org/1999/xlink">
 <defs>
  <style type="text/css">
*{stroke-linecap:butt;stroke-linejoin:round;}
  </style>
 </defs>
 <g id="figure_1">
  <g id="patch_1">
   <path d="M 0 312.65575 
L 414.0825 312.65575 
L 414.0825 0 
L 0 0 
z
" style="fill:#ffffff;"/>
  </g>
  <g id="axes_1">
   <g id="patch_2">
    <path d="M 49.7625 273.312 
L 406.8825 273.312 
L 406.8825 7.2 
L 49.7625 7.2 
z
" style="fill:#ffffff;"/>
   </g>
   <g id="matplotlib.axis_1">
    <g id="xtick_1">
     <g id="line2d_1">
      <defs>
       <path d="M 0 0 
L 0 6 
" id="m8c6cbfe86b" style="stroke:#262626;stroke-width:0.8;"/>
      </defs>
      <g>
       <use style="fill:#262626;stroke:#262626;stroke-width:0.8;" x="65.995227" xlink:href="#m8c6cbfe86b" y="273.312"/>
      </g>
     </g>
     <g id="text_1">
      <!-- 0 -->
      <defs>
       <path d="M 51.703125 34.421875 
Q 51.703125 24.515625 49.828125 17.75 
Q 47.953125 10.984375 44.703125 6.8125 
Q 41.453125 2.640625 37.0625 0.828125 
Q 32.671875 -0.984375 27.6875 -0.984375 
Q 22.65625 -0.984375 18.3125 0.828125 
Q 13.96875 2.640625 10.765625 6.78125 
Q 7.5625 10.9375 5.734375 17.703125 
Q 3.90625 24.46875 3.90625 34.421875 
Q 3.90625 44.828125 5.734375 51.640625 
Q 7.5625 58.453125 10.78125 62.5 
Q 14.015625 66.546875 18.40625 68.1875 
Q 22.796875 69.828125 27.984375 69.828125 
Q 32.90625 69.828125 37.21875 68.1875 
Q 41.546875 66.546875 44.765625 62.5 
Q 48 58.453125 49.84375 51.640625 
Q 51.703125 44.828125 51.703125 34.421875 
z
M 42.78125 34.421875 
Q 42.78125 42.625 41.796875 48.0625 
Q 40.828125 53.515625 38.921875 56.765625 
Q 37.015625 60.015625 34.25 61.359375 
Q 31.5 62.703125 27.984375 62.703125 
Q 24.265625 62.703125 21.4375 61.328125 
Q 18.609375 59.96875 16.671875 56.71875 
Q 14.75 53.46875 13.765625 48.015625 
Q 12.796875 42.578125 12.796875 34.421875 
Q 12.796875 26.515625 13.796875 21.09375 
Q 14.796875 15.671875 16.71875 12.375 
Q 18.65625 9.078125 21.4375 7.640625 
Q 24.21875 6.203125 27.78125 6.203125 
Q 31.25 6.203125 34.03125 7.640625 
Q 36.8125 9.078125 38.734375 12.375 
Q 40.671875 15.671875 41.71875 21.09375 
Q 42.78125 26.515625 42.78125 34.421875 
z
" id="LiberationSans-48"/>
      </defs>
      <g style="fill:#262626;" transform="translate(63.214759 290.058875)scale(0.1 -0.1)">
       <use xlink:href="#LiberationSans-48"/>
      </g>
     </g>
    </g>
    <g id="xtick_2">
     <g id="line2d_2">
      <g>
       <use style="fill:#262626;stroke:#262626;stroke-width:0.8;" x="130.991132" xlink:href="#m8c6cbfe86b" y="273.312"/>
      </g>
     </g>
     <g id="text_2">
      <!-- 200 -->
      <defs>
       <path d="M 5.03125 0 
L 5.03125 6.203125 
Q 7.515625 11.921875 11.109375 16.28125 
Q 14.703125 20.65625 18.65625 24.1875 
Q 22.609375 27.734375 26.484375 30.765625 
Q 30.375 33.796875 33.5 36.8125 
Q 36.625 39.84375 38.546875 43.15625 
Q 40.484375 46.484375 40.484375 50.6875 
Q 40.484375 53.609375 39.59375 55.828125 
Q 38.71875 58.0625 37.0625 59.5625 
Q 35.40625 61.078125 33.078125 61.828125 
Q 30.765625 62.59375 27.9375 62.59375 
Q 25.296875 62.59375 22.96875 61.859375 
Q 20.65625 61.140625 18.84375 59.671875 
Q 17.046875 58.203125 15.890625 56.03125 
Q 14.75 53.859375 14.40625 50.984375 
L 5.421875 51.8125 
Q 5.859375 55.515625 7.46875 58.78125 
Q 9.078125 62.0625 11.90625 64.53125 
Q 14.75 67 18.71875 68.40625 
Q 22.703125 69.828125 27.9375 69.828125 
Q 33.0625 69.828125 37.0625 68.609375 
Q 41.0625 67.390625 43.8125 64.984375 
Q 46.578125 62.59375 48.046875 59.078125 
Q 49.515625 55.5625 49.515625 50.984375 
Q 49.515625 47.515625 48.265625 44.390625 
Q 47.015625 41.265625 44.9375 38.421875 
Q 42.875 35.59375 40.140625 32.953125 
Q 37.40625 30.328125 34.421875 27.8125 
Q 31.453125 25.296875 28.421875 22.828125 
Q 25.390625 20.359375 22.71875 17.859375 
Q 20.0625 15.375 17.96875 12.8125 
Q 15.875 10.25 14.703125 7.46875 
L 50.59375 7.46875 
L 50.59375 0 
z
" id="LiberationSans-50"/>
      </defs>
      <g style="fill:#262626;" transform="translate(122.649726 290.058875)scale(0.1 -0.1)">
       <use xlink:href="#LiberationSans-50"/>
       <use x="55.615234" xlink:href="#LiberationSans-48"/>
       <use x="111.230469" xlink:href="#LiberationSans-48"/>
      </g>
     </g>
    </g>
    <g id="xtick_3">
     <g id="line2d_3">
      <g>
       <use style="fill:#262626;stroke:#262626;stroke-width:0.8;" x="195.987037" xlink:href="#m8c6cbfe86b" y="273.312"/>
      </g>
     </g>
     <g id="text_3">
      <!-- 400 -->
      <defs>
       <path d="M 43.015625 15.578125 
L 43.015625 0 
L 34.71875 0 
L 34.71875 15.578125 
L 2.296875 15.578125 
L 2.296875 22.40625 
L 33.796875 68.796875 
L 43.015625 68.796875 
L 43.015625 22.515625 
L 52.6875 22.515625 
L 52.6875 15.578125 
z
M 34.71875 58.890625 
Q 34.625 58.640625 34.234375 57.9375 
Q 33.84375 57.234375 33.34375 56.34375 
Q 32.859375 55.46875 32.34375 54.5625 
Q 31.84375 53.65625 31.453125 53.078125 
L 13.8125 27.09375 
Q 13.578125 26.703125 13.109375 26.0625 
Q 12.640625 25.4375 12.15625 24.78125 
Q 11.671875 24.125 11.171875 23.484375 
Q 10.6875 22.859375 10.40625 22.515625 
L 34.71875 22.515625 
z
" id="LiberationSans-52"/>
      </defs>
      <g style="fill:#262626;" transform="translate(187.645631 290.058875)scale(0.1 -0.1)">
       <use xlink:href="#LiberationSans-52"/>
       <use x="55.615234" xlink:href="#LiberationSans-48"/>
       <use x="111.230469" xlink:href="#LiberationSans-48"/>
      </g>
     </g>
    </g>
    <g id="xtick_4">
     <g id="line2d_4">
      <g>
       <use style="fill:#262626;stroke:#262626;stroke-width:0.8;" x="260.982942" xlink:href="#m8c6cbfe86b" y="273.312"/>
      </g>
     </g>
     <g id="text_4">
      <!-- 600 -->
      <defs>
       <path d="M 51.21875 22.515625 
Q 51.21875 17.328125 49.78125 13 
Q 48.34375 8.6875 45.53125 5.578125 
Q 42.71875 2.484375 38.5625 0.75 
Q 34.421875 -0.984375 29 -0.984375 
Q 23 -0.984375 18.5 1.3125 
Q 14.015625 3.609375 11.03125 7.921875 
Q 8.0625 12.25 6.5625 18.53125 
Q 5.078125 24.8125 5.078125 32.8125 
Q 5.078125 42 6.765625 48.921875 
Q 8.453125 55.859375 11.625 60.5 
Q 14.796875 65.140625 19.359375 67.484375 
Q 23.921875 69.828125 29.6875 69.828125 
Q 33.203125 69.828125 36.28125 69.09375 
Q 39.359375 68.359375 41.875 66.71875 
Q 44.390625 65.09375 46.28125 62.40625 
Q 48.1875 59.71875 49.3125 55.8125 
L 40.921875 54.296875 
Q 39.546875 58.734375 36.546875 60.71875 
Q 33.546875 62.703125 29.59375 62.703125 
Q 25.984375 62.703125 23.046875 60.984375 
Q 20.125 59.28125 18.0625 55.875 
Q 16.015625 52.484375 14.90625 47.359375 
Q 13.8125 42.234375 13.8125 35.40625 
Q 16.21875 39.84375 20.5625 42.15625 
Q 24.90625 44.484375 30.515625 44.484375 
Q 35.203125 44.484375 39.015625 42.96875 
Q 42.828125 41.453125 45.53125 38.59375 
Q 48.25 35.75 49.734375 31.671875 
Q 51.21875 27.59375 51.21875 22.515625 
z
M 42.28125 22.125 
Q 42.28125 25.6875 41.40625 28.5625 
Q 40.53125 31.453125 38.765625 33.46875 
Q 37.015625 35.5 34.421875 36.59375 
Q 31.84375 37.703125 28.421875 37.703125 
Q 26.03125 37.703125 23.578125 36.984375 
Q 21.140625 36.28125 19.15625 34.6875 
Q 17.1875 33.109375 15.9375 30.515625 
Q 14.703125 27.9375 14.703125 24.21875 
Q 14.703125 20.40625 15.671875 17.109375 
Q 16.65625 13.8125 18.484375 11.375 
Q 20.3125 8.9375 22.890625 7.515625 
Q 25.484375 6.109375 28.71875 6.109375 
Q 31.890625 6.109375 34.40625 7.203125 
Q 36.921875 8.296875 38.671875 10.375 
Q 40.4375 12.453125 41.359375 15.421875 
Q 42.28125 18.40625 42.28125 22.125 
z
" id="LiberationSans-54"/>
      </defs>
      <g style="fill:#262626;" transform="translate(252.641536 290.058875)scale(0.1 -0.1)">
       <use xlink:href="#LiberationSans-54"/>
       <use x="55.615234" xlink:href="#LiberationSans-48"/>
       <use x="111.230469" xlink:href="#LiberationSans-48"/>
      </g>
     </g>
    </g>
    <g id="xtick_5">
     <g id="line2d_5">
      <g>
       <use style="fill:#262626;stroke:#262626;stroke-width:0.8;" x="325.978847" xlink:href="#m8c6cbfe86b" y="273.312"/>
      </g>
     </g>
     <g id="text_5">
      <!-- 800 -->
      <defs>
       <path d="M 51.265625 19.1875 
Q 51.265625 14.796875 49.875 11.109375 
Q 48.484375 7.421875 45.625 4.734375 
Q 42.78125 2.046875 38.328125 0.53125 
Q 33.890625 -0.984375 27.828125 -0.984375 
Q 21.78125 -0.984375 17.359375 0.53125 
Q 12.9375 2.046875 10.03125 4.703125 
Q 7.125 7.375 5.734375 11.0625 
Q 4.34375 14.75 4.34375 19.09375 
Q 4.34375 22.859375 5.484375 25.78125 
Q 6.640625 28.71875 8.5625 30.828125 
Q 10.5 32.953125 12.96875 34.25 
Q 15.4375 35.546875 18.0625 35.984375 
L 18.0625 36.1875 
Q 15.1875 36.859375 12.90625 38.375 
Q 10.640625 39.890625 9.09375 42.015625 
Q 7.5625 44.140625 6.75 46.71875 
Q 5.953125 49.3125 5.953125 52.203125 
Q 5.953125 55.8125 7.34375 59 
Q 8.734375 62.203125 11.46875 64.625 
Q 14.203125 67.046875 18.25 68.4375 
Q 22.3125 69.828125 27.640625 69.828125 
Q 33.25 69.828125 37.375 68.40625 
Q 41.5 67 44.203125 64.578125 
Q 46.921875 62.15625 48.234375 58.9375 
Q 49.5625 55.71875 49.5625 52.09375 
Q 49.5625 49.265625 48.75 46.671875 
Q 47.953125 44.09375 46.40625 41.96875 
Q 44.875 39.84375 42.59375 38.34375 
Q 40.328125 36.859375 37.359375 36.28125 
L 37.359375 36.078125 
Q 40.328125 35.59375 42.859375 34.296875 
Q 45.40625 33.015625 47.265625 30.890625 
Q 49.125 28.765625 50.1875 25.828125 
Q 51.265625 22.90625 51.265625 19.1875 
z
M 40.4375 51.609375 
Q 40.4375 54.203125 39.765625 56.34375 
Q 39.109375 58.5 37.59375 60.03125 
Q 36.078125 61.578125 33.640625 62.421875 
Q 31.203125 63.28125 27.640625 63.28125 
Q 24.171875 63.28125 21.78125 62.421875 
Q 19.390625 61.578125 17.84375 60.03125 
Q 16.3125 58.5 15.625 56.34375 
Q 14.9375 54.203125 14.9375 51.609375 
Q 14.9375 49.5625 15.46875 47.40625 
Q 16.015625 45.265625 17.421875 43.5 
Q 18.84375 41.75 21.328125 40.625 
Q 23.828125 39.5 27.734375 39.5 
Q 31.890625 39.5 34.40625 40.625 
Q 36.921875 41.75 38.25 43.5 
Q 39.59375 45.265625 40.015625 47.40625 
Q 40.4375 49.5625 40.4375 51.609375 
z
M 42.140625 20.015625 
Q 42.140625 22.515625 41.453125 24.828125 
Q 40.765625 27.15625 39.109375 28.9375 
Q 37.453125 30.71875 34.640625 31.8125 
Q 31.84375 32.90625 27.640625 32.90625 
Q 23.78125 32.90625 21.0625 31.8125 
Q 18.359375 30.71875 16.671875 28.90625 
Q 14.984375 27.09375 14.203125 24.71875 
Q 13.421875 22.359375 13.421875 19.828125 
Q 13.421875 16.65625 14.203125 14.03125 
Q 14.984375 11.421875 16.6875 9.546875 
Q 18.40625 7.671875 21.1875 6.640625 
Q 23.96875 5.609375 27.9375 5.609375 
Q 31.9375 5.609375 34.671875 6.640625 
Q 37.40625 7.671875 39.0625 9.546875 
Q 40.71875 11.421875 41.421875 14.078125 
Q 42.140625 16.75 42.140625 20.015625 
z
" id="LiberationSans-56"/>
      </defs>
      <g style="fill:#262626;" transform="translate(317.637441 290.058875)scale(0.1 -0.1)">
       <use xlink:href="#LiberationSans-56"/>
       <use x="55.615234" xlink:href="#LiberationSans-48"/>
       <use x="111.230469" xlink:href="#LiberationSans-48"/>
      </g>
     </g>
    </g>
    <g id="xtick_6">
     <g id="line2d_6">
      <g>
       <use style="fill:#262626;stroke:#262626;stroke-width:0.8;" x="390.974752" xlink:href="#m8c6cbfe86b" y="273.312"/>
      </g>
     </g>
     <g id="text_6">
      <!-- 1000 -->
      <defs>
       <path d="M 7.625 0 
L 7.625 7.46875 
L 25.140625 7.46875 
L 25.140625 60.40625 
L 9.625 49.3125 
L 9.625 57.625 
L 25.875 68.796875 
L 33.984375 68.796875 
L 33.984375 7.46875 
L 50.734375 7.46875 
L 50.734375 0 
z
" id="LiberationSans-49"/>
      </defs>
      <g style="fill:#262626;" transform="translate(379.852877 290.058875)scale(0.1 -0.1)">
       <use xlink:href="#LiberationSans-49"/>
       <use x="55.615234" xlink:href="#LiberationSans-48"/>
       <use x="111.230469" xlink:href="#LiberationSans-48"/>
       <use x="166.845703" xlink:href="#LiberationSans-48"/>
      </g>
     </g>
    </g>
    <g id="text_7">
     <!-- time_frame -->
     <defs>
      <path d="M 27.046875 0.390625 
Q 25.046875 -0.140625 22.96875 -0.453125 
Q 20.90625 -0.78125 18.171875 -0.78125 
Q 7.625 -0.78125 7.625 11.1875 
L 7.625 46.4375 
L 1.515625 46.4375 
L 1.515625 52.828125 
L 7.953125 52.828125 
L 10.546875 64.65625 
L 16.40625 64.65625 
L 16.40625 52.828125 
L 26.171875 52.828125 
L 26.171875 46.4375 
L 16.40625 46.4375 
L 16.40625 13.09375 
Q 16.40625 9.28125 17.640625 7.734375 
Q 18.890625 6.203125 21.96875 6.203125 
Q 23.25 6.203125 24.4375 6.390625 
Q 25.640625 6.59375 27.046875 6.890625 
z
" id="LiberationSans-116"/>
      <path d="M 6.6875 64.0625 
L 6.6875 72.46875 
L 15.484375 72.46875 
L 15.484375 64.0625 
z
M 6.6875 0 
L 6.6875 52.828125 
L 15.484375 52.828125 
L 15.484375 0 
z
" id="LiberationSans-105"/>
      <path d="M 37.5 0 
L 37.5 33.5 
Q 37.5 37.359375 37.015625 39.9375 
Q 36.53125 42.53125 35.375 44.109375 
Q 34.234375 45.703125 32.375 46.359375 
Q 30.515625 47.015625 27.828125 47.015625 
Q 25.046875 47.015625 22.796875 45.921875 
Q 20.5625 44.828125 18.96875 42.75 
Q 17.390625 40.671875 16.53125 37.625 
Q 15.671875 34.578125 15.671875 30.609375 
L 15.671875 0 
L 6.9375 0 
L 6.9375 41.546875 
Q 6.9375 43.21875 6.90625 45.046875 
Q 6.890625 46.875 6.828125 48.5 
Q 6.78125 50.140625 6.734375 51.3125 
Q 6.6875 52.484375 6.640625 52.828125 
L 14.9375 52.828125 
Q 14.984375 52.59375 15.03125 51.515625 
Q 15.09375 50.4375 15.15625 49.046875 
Q 15.234375 47.65625 15.28125 46.21875 
Q 15.328125 44.78125 15.328125 43.796875 
L 15.484375 43.796875 
Q 16.65625 46.09375 18.015625 47.953125 
Q 19.390625 49.8125 21.21875 51.09375 
Q 23.046875 52.390625 25.40625 53.09375 
Q 27.78125 53.8125 30.90625 53.8125 
Q 36.921875 53.8125 40.40625 51.421875 
Q 43.890625 49.03125 45.265625 43.796875 
L 45.40625 43.796875 
Q 46.578125 46.09375 48.046875 47.953125 
Q 49.515625 49.8125 51.46875 51.09375 
Q 53.421875 52.390625 55.859375 53.09375 
Q 58.296875 53.8125 61.421875 53.8125 
Q 65.4375 53.8125 68.328125 52.734375 
Q 71.234375 51.65625 73.09375 49.40625 
Q 74.953125 47.171875 75.828125 43.625 
Q 76.703125 40.09375 76.703125 35.203125 
L 76.703125 0 
L 68.015625 0 
L 68.015625 33.5 
Q 68.015625 37.359375 67.53125 39.9375 
Q 67.046875 42.53125 65.890625 44.109375 
Q 64.75 45.703125 62.890625 46.359375 
Q 61.03125 47.015625 58.34375 47.015625 
Q 55.5625 47.015625 53.3125 45.96875 
Q 51.078125 44.921875 49.484375 42.875 
Q 47.90625 40.828125 47.046875 37.75 
Q 46.1875 34.671875 46.1875 30.609375 
L 46.1875 0 
z
" id="LiberationSans-109"/>
      <path d="M 13.484375 24.5625 
Q 13.484375 20.40625 14.328125 16.90625 
Q 15.1875 13.421875 16.96875 10.90625 
Q 18.75 8.40625 21.53125 7 
Q 24.3125 5.609375 28.21875 5.609375 
Q 33.9375 5.609375 37.375 7.90625 
Q 40.828125 10.203125 42.046875 13.71875 
L 49.75 11.53125 
Q 48.921875 9.328125 47.4375 7.109375 
Q 45.953125 4.890625 43.453125 3.09375 
Q 40.96875 1.3125 37.234375 0.15625 
Q 33.5 -0.984375 28.21875 -0.984375 
Q 16.5 -0.984375 10.375 6 
Q 4.25 12.984375 4.25 26.765625 
Q 4.25 34.1875 6.09375 39.328125 
Q 7.953125 44.484375 11.171875 47.703125 
Q 14.40625 50.921875 18.703125 52.359375 
Q 23 53.8125 27.875 53.8125 
Q 34.515625 53.8125 38.984375 51.65625 
Q 43.453125 49.515625 46.15625 45.71875 
Q 48.875 41.9375 50.015625 36.8125 
Q 51.171875 31.6875 51.171875 25.734375 
L 51.171875 24.5625 
z
M 42.09375 31.296875 
Q 41.359375 39.65625 37.84375 43.484375 
Q 34.328125 47.3125 27.734375 47.3125 
Q 25.53125 47.3125 23.109375 46.609375 
Q 20.703125 45.90625 18.65625 44.09375 
Q 16.609375 42.28125 15.1875 39.171875 
Q 13.765625 36.078125 13.578125 31.296875 
z
" id="LiberationSans-101"/>
      <path d="M -1.515625 -19.875 
L -1.515625 -13.53125 
L 56.734375 -13.53125 
L 56.734375 -19.875 
z
" id="LiberationSans-95"/>
      <path d="M 17.625 46.4375 
L 17.625 0 
L 8.84375 0 
L 8.84375 46.4375 
L 1.421875 46.4375 
L 1.421875 52.828125 
L 8.84375 52.828125 
L 8.84375 58.796875 
Q 8.84375 61.671875 9.375 64.140625 
Q 9.90625 66.609375 11.34375 68.4375 
Q 12.796875 70.265625 15.28125 71.3125 
Q 17.78125 72.359375 21.734375 72.359375 
Q 23.296875 72.359375 24.96875 72.21875 
Q 26.65625 72.078125 27.9375 71.78125 
L 27.9375 65.09375 
Q 27.09375 65.234375 26 65.359375 
Q 24.90625 65.484375 24.03125 65.484375 
Q 22.078125 65.484375 20.828125 64.9375 
Q 19.578125 64.40625 18.875 63.40625 
Q 18.171875 62.40625 17.890625 60.9375 
Q 17.625 59.46875 17.625 57.5625 
L 17.625 52.828125 
L 27.9375 52.828125 
L 27.9375 46.4375 
z
" id="LiberationSans-102"/>
      <path d="M 6.9375 0 
L 6.9375 40.53125 
Q 6.9375 42.1875 6.90625 43.921875 
Q 6.890625 45.65625 6.828125 47.265625 
Q 6.78125 48.875 6.734375 50.28125 
Q 6.6875 51.703125 6.640625 52.828125 
L 14.9375 52.828125 
Q 14.984375 51.703125 15.0625 50.265625 
Q 15.140625 48.828125 15.203125 47.3125 
Q 15.28125 45.796875 15.296875 44.40625 
Q 15.328125 43.015625 15.328125 42.046875 
L 15.53125 42.046875 
Q 16.453125 45.0625 17.5 47.28125 
Q 18.5625 49.515625 19.96875 50.953125 
Q 21.390625 52.390625 23.34375 53.09375 
Q 25.296875 53.8125 28.078125 53.8125 
Q 29.15625 53.8125 30.125 53.640625 
Q 31.109375 53.46875 31.640625 53.328125 
L 31.640625 45.265625 
Q 30.765625 45.515625 29.59375 45.625 
Q 28.421875 45.75 26.953125 45.75 
Q 23.921875 45.75 21.796875 44.375 
Q 19.671875 43.015625 18.328125 40.59375 
Q 17 38.1875 16.359375 34.84375 
Q 15.71875 31.5 15.71875 27.546875 
L 15.71875 0 
z
" id="LiberationSans-114"/>
      <path d="M 20.21875 -0.984375 
Q 12.25 -0.984375 8.25 3.21875 
Q 4.25 7.421875 4.25 14.75 
Q 4.25 19.96875 6.21875 23.3125 
Q 8.203125 26.65625 11.390625 28.5625 
Q 14.59375 30.46875 18.6875 31.203125 
Q 22.796875 31.9375 27.046875 32.03125 
L 38.921875 32.234375 
L 38.921875 35.109375 
Q 38.921875 38.375 38.234375 40.671875 
Q 37.546875 42.96875 36.125 44.375 
Q 34.71875 45.796875 32.59375 46.453125 
Q 30.46875 47.125 27.59375 47.125 
Q 25.046875 47.125 23 46.75 
Q 20.953125 46.390625 19.4375 45.4375 
Q 17.921875 44.484375 16.984375 42.84375 
Q 16.0625 41.21875 15.765625 38.71875 
L 6.59375 39.546875 
Q 7.078125 42.671875 8.4375 45.28125 
Q 9.8125 47.90625 12.328125 49.796875 
Q 14.84375 51.703125 18.625 52.75 
Q 22.40625 53.8125 27.78125 53.8125 
Q 37.75 53.8125 42.765625 49.234375 
Q 47.796875 44.671875 47.796875 36.03125 
L 47.796875 13.28125 
Q 47.796875 9.375 48.828125 7.390625 
Q 49.859375 5.421875 52.734375 5.421875 
Q 53.46875 5.421875 54.203125 5.515625 
Q 54.9375 5.609375 55.609375 5.765625 
L 55.609375 0.296875 
Q 53.953125 -0.09375 52.3125 -0.28125 
Q 50.6875 -0.484375 48.828125 -0.484375 
Q 46.34375 -0.484375 44.5625 0.171875 
Q 42.78125 0.828125 41.65625 2.171875 
Q 40.53125 3.515625 39.9375 5.484375 
Q 39.359375 7.46875 39.203125 10.109375 
L 38.921875 10.109375 
Q 37.5 7.5625 35.8125 5.515625 
Q 34.125 3.46875 31.875 2.03125 
Q 29.640625 0.59375 26.78125 -0.1875 
Q 23.921875 -0.984375 20.21875 -0.984375 
z
M 22.21875 5.609375 
Q 26.421875 5.609375 29.5625 7.140625 
Q 32.71875 8.6875 34.78125 11.078125 
Q 36.859375 13.484375 37.890625 16.3125 
Q 38.921875 19.140625 38.921875 21.734375 
L 38.921875 26.078125 
L 29.296875 25.875 
Q 26.078125 25.828125 23.171875 25.40625 
Q 20.265625 25 18.0625 23.78125 
Q 15.875 22.5625 14.578125 20.359375 
Q 13.28125 18.171875 13.28125 14.59375 
Q 13.28125 10.296875 15.59375 7.953125 
Q 17.921875 5.609375 22.21875 5.609375 
z
" id="LiberationSans-97"/>
     </defs>
     <g style="fill:#262626;" transform="translate(203.317031 303.38075)scale(0.1 -0.1)">
      <use xlink:href="#LiberationSans-116"/>
      <use x="27.783203" xlink:href="#LiberationSans-105"/>
      <use x="50" xlink:href="#LiberationSans-109"/>
      <use x="133.300781" xlink:href="#LiberationSans-101"/>
      <use x="188.916016" xlink:href="#LiberationSans-95"/>
      <use x="244.53125" xlink:href="#LiberationSans-102"/>
      <use x="272.314453" xlink:href="#LiberationSans-114"/>
      <use x="305.615234" xlink:href="#LiberationSans-97"/>
      <use x="361.230469" xlink:href="#LiberationSans-109"/>
      <use x="444.53125" xlink:href="#LiberationSans-101"/>
     </g>
    </g>
   </g>
   <g id="matplotlib.axis_2">
    <g id="ytick_1">
     <g id="line2d_7">
      <defs>
       <path d="M 0 0 
L -6 0 
" id="me11467fc62" style="stroke:#262626;stroke-width:0.8;"/>
      </defs>
      <g>
       <use style="fill:#262626;stroke:#262626;stroke-width:0.8;" x="49.7625" xlink:href="#me11467fc62" y="249.22915"/>
      </g>
     </g>
     <g id="text_8">
      <!-- −1.0 -->
      <defs>
       <path d="M 4.9375 29.6875 
L 4.9375 36.8125 
L 53.515625 36.8125 
L 53.515625 29.6875 
z
" id="LiberationSans-8722"/>
       <path d="M 9.125 0 
L 9.125 10.6875 
L 18.65625 10.6875 
L 18.65625 0 
z
" id="LiberationSans-46"/>
      </defs>
      <g style="fill:#262626;" transform="translate(20.521875 252.852587)scale(0.1 -0.1)">
       <use xlink:href="#LiberationSans-8722"/>
       <use x="58.398438" xlink:href="#LiberationSans-49"/>
       <use x="114.013672" xlink:href="#LiberationSans-46"/>
       <use x="141.796875" xlink:href="#LiberationSans-48"/>
      </g>
     </g>
    </g>
    <g id="ytick_2">
     <g id="line2d_8">
      <g>
       <use style="fill:#262626;stroke:#262626;stroke-width:0.8;" x="49.7625" xlink:href="#me11467fc62" y="197.951985"/>
      </g>
     </g>
     <g id="text_9">
      <!-- −0.5 -->
      <defs>
       <path d="M 51.421875 22.40625 
Q 51.421875 17.234375 49.859375 12.9375 
Q 48.296875 8.640625 45.21875 5.53125 
Q 42.140625 2.4375 37.578125 0.71875 
Q 33.015625 -0.984375 27 -0.984375 
Q 21.578125 -0.984375 17.546875 0.28125 
Q 13.53125 1.5625 10.734375 3.78125 
Q 7.953125 6 6.3125 8.984375 
Q 4.6875 11.96875 4 15.375 
L 12.890625 16.40625 
Q 13.421875 14.453125 14.390625 12.625 
Q 15.375 10.796875 17.0625 9.34375 
Q 18.75 7.90625 21.21875 7.046875 
Q 23.6875 6.203125 27.203125 6.203125 
Q 30.609375 6.203125 33.390625 7.25 
Q 36.1875 8.296875 38.15625 10.34375 
Q 40.140625 12.40625 41.203125 15.375 
Q 42.28125 18.359375 42.28125 22.21875 
Q 42.28125 25.390625 41.25 28.046875 
Q 40.234375 30.71875 38.328125 32.640625 
Q 36.421875 34.578125 33.65625 35.640625 
Q 30.90625 36.71875 27.390625 36.71875 
Q 25.203125 36.71875 23.34375 36.328125 
Q 21.484375 35.9375 19.890625 35.25 
Q 18.3125 34.578125 17.015625 33.671875 
Q 15.71875 32.765625 14.59375 31.78125 
L 6 31.78125 
L 8.296875 68.796875 
L 47.40625 68.796875 
L 47.40625 61.328125 
L 16.3125 61.328125 
L 14.984375 39.5 
Q 17.328125 41.3125 20.84375 42.59375 
Q 24.359375 43.890625 29.203125 43.890625 
Q 34.328125 43.890625 38.421875 42.328125 
Q 42.53125 40.765625 45.40625 37.90625 
Q 48.296875 35.0625 49.859375 31.109375 
Q 51.421875 27.15625 51.421875 22.40625 
z
" id="LiberationSans-53"/>
      </defs>
      <g style="fill:#262626;" transform="translate(20.521875 201.575422)scale(0.1 -0.1)">
       <use xlink:href="#LiberationSans-8722"/>
       <use x="58.398438" xlink:href="#LiberationSans-48"/>
       <use x="114.013672" xlink:href="#LiberationSans-46"/>
       <use x="141.796875" xlink:href="#LiberationSans-53"/>
      </g>
     </g>
    </g>
    <g id="ytick_3">
     <g id="line2d_9">
      <g>
       <use style="fill:#262626;stroke:#262626;stroke-width:0.8;" x="49.7625" xlink:href="#me11467fc62" y="146.67482"/>
      </g>
     </g>
     <g id="text_10">
      <!-- 0.0 -->
      <g style="fill:#262626;" transform="translate(26.3625 150.298257)scale(0.1 -0.1)">
       <use xlink:href="#LiberationSans-48"/>
       <use x="55.615234" xlink:href="#LiberationSans-46"/>
       <use x="83.398438" xlink:href="#LiberationSans-48"/>
      </g>
     </g>
    </g>
    <g id="ytick_4">
     <g id="line2d_10">
      <g>
       <use style="fill:#262626;stroke:#262626;stroke-width:0.8;" x="49.7625" xlink:href="#me11467fc62" y="95.397655"/>
      </g>
     </g>
     <g id="text_11">
      <!-- 0.5 -->
      <g style="fill:#262626;" transform="translate(26.3625 99.021092)scale(0.1 -0.1)">
       <use xlink:href="#LiberationSans-48"/>
       <use x="55.615234" xlink:href="#LiberationSans-46"/>
       <use x="83.398438" xlink:href="#LiberationSans-53"/>
      </g>
     </g>
    </g>
    <g id="ytick_5">
     <g id="line2d_11">
      <g>
       <use style="fill:#262626;stroke:#262626;stroke-width:0.8;" x="49.7625" xlink:href="#me11467fc62" y="44.12049"/>
      </g>
     </g>
     <g id="text_12">
      <!-- 1.0 -->
      <g style="fill:#262626;" transform="translate(26.3625 47.743927)scale(0.1 -0.1)">
       <use xlink:href="#LiberationSans-49"/>
       <use x="55.615234" xlink:href="#LiberationSans-46"/>
       <use x="83.398438" xlink:href="#LiberationSans-48"/>
      </g>
     </g>
    </g>
    <g id="text_13">
     <!-- analogs -->
     <defs>
      <path d="M 40.28125 0 
L 40.28125 33.5 
Q 40.28125 37.359375 39.71875 39.9375 
Q 39.15625 42.53125 37.890625 44.109375 
Q 36.625 45.703125 34.546875 46.359375 
Q 32.46875 47.015625 29.390625 47.015625 
Q 26.265625 47.015625 23.75 45.921875 
Q 21.234375 44.828125 19.453125 42.75 
Q 17.671875 40.671875 16.6875 37.625 
Q 15.71875 34.578125 15.71875 30.609375 
L 15.71875 0 
L 6.9375 0 
L 6.9375 41.546875 
Q 6.9375 43.21875 6.90625 45.046875 
Q 6.890625 46.875 6.828125 48.5 
Q 6.78125 50.140625 6.734375 51.3125 
Q 6.6875 52.484375 6.640625 52.828125 
L 14.9375 52.828125 
Q 14.984375 52.59375 15.03125 51.515625 
Q 15.09375 50.4375 15.15625 49.046875 
Q 15.234375 47.65625 15.28125 46.21875 
Q 15.328125 44.78125 15.328125 43.796875 
L 15.484375 43.796875 
Q 16.75 46.09375 18.265625 47.953125 
Q 19.78125 49.8125 21.78125 51.09375 
Q 23.78125 52.390625 26.359375 53.09375 
Q 28.953125 53.8125 32.375 53.8125 
Q 36.765625 53.8125 39.9375 52.734375 
Q 43.109375 51.65625 45.15625 49.40625 
Q 47.21875 47.171875 48.171875 43.625 
Q 49.125 40.09375 49.125 35.203125 
L 49.125 0 
z
" id="LiberationSans-110"/>
      <path d="M 6.734375 0 
L 6.734375 72.46875 
L 15.53125 72.46875 
L 15.53125 0 
z
" id="LiberationSans-108"/>
      <path d="M 51.421875 26.46875 
Q 51.421875 12.59375 45.3125 5.796875 
Q 39.203125 -0.984375 27.59375 -0.984375 
Q 22.078125 -0.984375 17.71875 0.671875 
Q 13.375 2.34375 10.375 5.765625 
Q 7.375 9.1875 5.78125 14.328125 
Q 4.203125 19.484375 4.203125 26.46875 
Q 4.203125 53.8125 27.875 53.8125 
Q 34.03125 53.8125 38.5 52.09375 
Q 42.96875 50.390625 45.828125 46.96875 
Q 48.6875 43.5625 50.046875 38.421875 
Q 51.421875 33.296875 51.421875 26.46875 
z
M 42.1875 26.46875 
Q 42.1875 32.625 41.234375 36.625 
Q 40.28125 40.625 38.453125 43.015625 
Q 36.625 45.40625 33.984375 46.359375 
Q 31.34375 47.3125 28.03125 47.3125 
Q 24.65625 47.3125 21.9375 46.3125 
Q 19.234375 45.3125 17.328125 42.890625 
Q 15.4375 40.484375 14.421875 36.46875 
Q 13.421875 32.46875 13.421875 26.46875 
Q 13.421875 20.3125 14.5 16.28125 
Q 15.578125 12.25 17.453125 9.859375 
Q 19.34375 7.46875 21.90625 6.484375 
Q 24.46875 5.515625 27.484375 5.515625 
Q 30.859375 5.515625 33.59375 6.46875 
Q 36.328125 7.421875 38.234375 9.8125 
Q 40.140625 12.203125 41.15625 16.25 
Q 42.1875 20.3125 42.1875 26.46875 
z
" id="LiberationSans-111"/>
      <path d="M 26.765625 -20.75 
Q 22.21875 -20.75 18.703125 -19.8125 
Q 15.1875 -18.890625 12.6875 -17.15625 
Q 10.203125 -15.4375 8.640625 -13.03125 
Q 7.078125 -10.640625 6.390625 -7.71875 
L 15.234375 -6.453125 
Q 16.109375 -10.109375 19.109375 -12.078125 
Q 22.125 -14.0625 27 -14.0625 
Q 29.984375 -14.0625 32.421875 -13.234375 
Q 34.859375 -12.40625 36.5625 -10.5625 
Q 38.28125 -8.734375 39.203125 -5.796875 
Q 40.140625 -2.875 40.140625 1.3125 
L 40.140625 9.8125 
L 40.046875 9.8125 
Q 39.0625 7.8125 37.625 5.984375 
Q 36.1875 4.15625 34.109375 2.734375 
Q 32.03125 1.3125 29.296875 0.453125 
Q 26.5625 -0.390625 23.046875 -0.390625 
Q 18.015625 -0.390625 14.421875 1.296875 
Q 10.84375 2.984375 8.5625 6.34375 
Q 6.296875 9.71875 5.25 14.71875 
Q 4.203125 19.734375 4.203125 26.3125 
Q 4.203125 32.671875 5.25 37.75 
Q 6.296875 42.828125 8.65625 46.359375 
Q 11.03125 49.90625 14.8125 51.78125 
Q 18.609375 53.65625 24.03125 53.65625 
Q 29.640625 53.65625 33.765625 51.09375 
Q 37.890625 48.53125 40.140625 43.796875 
L 40.234375 43.796875 
Q 40.234375 45.015625 40.296875 46.53125 
Q 40.375 48.046875 40.453125 49.390625 
Q 40.53125 50.734375 40.625 51.703125 
Q 40.71875 52.6875 40.828125 52.828125 
L 49.171875 52.828125 
Q 49.125 52.390625 49.078125 51.34375 
Q 49.03125 50.296875 48.96875 48.828125 
Q 48.921875 47.359375 48.890625 45.578125 
Q 48.875 43.796875 48.875 41.890625 
L 48.875 1.515625 
Q 48.875 -9.578125 43.421875 -15.15625 
Q 37.984375 -20.75 26.765625 -20.75 
z
M 40.140625 26.421875 
Q 40.140625 31.9375 38.9375 35.859375 
Q 37.75 39.796875 35.796875 42.28125 
Q 33.84375 44.78125 31.328125 45.953125 
Q 28.8125 47.125 26.171875 47.125 
Q 22.796875 47.125 20.375 45.953125 
Q 17.96875 44.78125 16.375 42.265625 
Q 14.796875 39.75 14.03125 35.8125 
Q 13.28125 31.890625 13.28125 26.421875 
Q 13.28125 20.703125 14.03125 16.8125 
Q 14.796875 12.9375 16.359375 10.546875 
Q 17.921875 8.15625 20.3125 7.125 
Q 22.703125 6.109375 26.03125 6.109375 
Q 28.65625 6.109375 31.171875 7.21875 
Q 33.6875 8.34375 35.6875 10.78125 
Q 37.703125 13.234375 38.921875 17.09375 
Q 40.140625 20.953125 40.140625 26.421875 
z
" id="LiberationSans-103"/>
      <path d="M 46.390625 14.59375 
Q 46.390625 10.890625 44.9375 7.984375 
Q 43.5 5.078125 40.765625 3.09375 
Q 38.03125 1.125 34.046875 0.0625 
Q 30.078125 -0.984375 24.953125 -0.984375 
Q 20.359375 -0.984375 16.671875 -0.265625 
Q 12.984375 0.4375 10.203125 2 
Q 7.421875 3.5625 5.53125 6.125 
Q 3.65625 8.6875 2.78125 12.40625 
L 10.546875 13.921875 
Q 11.671875 9.671875 15.1875 7.6875 
Q 18.703125 5.71875 24.953125 5.71875 
Q 27.78125 5.71875 30.140625 6.109375 
Q 32.515625 6.5 34.21875 7.453125 
Q 35.9375 8.40625 36.890625 9.984375 
Q 37.84375 11.578125 37.84375 13.921875 
Q 37.84375 16.3125 36.71875 17.84375 
Q 35.59375 19.390625 33.59375 20.40625 
Q 31.59375 21.4375 28.734375 22.1875 
Q 25.875 22.953125 22.46875 23.875 
Q 19.28125 24.703125 16.15625 25.734375 
Q 13.03125 26.765625 10.515625 28.4375 
Q 8.015625 30.125 6.453125 32.609375 
Q 4.890625 35.109375 4.890625 38.875 
Q 4.890625 46.09375 10.03125 49.875 
Q 15.1875 53.65625 25.046875 53.65625 
Q 33.796875 53.65625 38.9375 50.578125 
Q 44.09375 47.515625 45.453125 40.71875 
L 37.546875 39.75 
Q 37.109375 41.796875 35.9375 43.1875 
Q 34.765625 44.578125 33.109375 45.4375 
Q 31.453125 46.296875 29.375 46.65625 
Q 27.296875 47.015625 25.046875 47.015625 
Q 19.09375 47.015625 16.25 45.203125 
Q 13.421875 43.40625 13.421875 39.75 
Q 13.421875 37.59375 14.46875 36.203125 
Q 15.53125 34.8125 17.40625 33.859375 
Q 19.28125 32.90625 21.921875 32.203125 
Q 24.5625 31.5 27.734375 30.71875 
Q 29.828125 30.171875 32.03125 29.5625 
Q 34.234375 28.953125 36.296875 28.09375 
Q 38.375 27.25 40.203125 26.09375 
Q 42.046875 24.953125 43.40625 23.34375 
Q 44.78125 21.734375 45.578125 19.578125 
Q 46.390625 17.4375 46.390625 14.59375 
z
" id="LiberationSans-115"/>
     </defs>
     <g style="fill:#262626;" transform="translate(14.446875 157.769281)rotate(-90)scale(0.1 -0.1)">
      <use xlink:href="#LiberationSans-97"/>
      <use x="55.615234" xlink:href="#LiberationSans-110"/>
      <use x="111.230469" xlink:href="#LiberationSans-97"/>
      <use x="166.845703" xlink:href="#LiberationSans-108"/>
      <use x="189.0625" xlink:href="#LiberationSans-111"/>
      <use x="244.677734" xlink:href="#LiberationSans-103"/>
      <use x="300.292969" xlink:href="#LiberationSans-115"/>
     </g>
    </g>
   </g>
   <g id="line2d_12">
    <path clip-path="url(#p1c485e02cd)" d="M 65.995227 194.281437 
L 66.320207 178.819013 
L 66.645186 208.449304 
L 67.295145 76.258782 
L 67.945104 223.910535 
L 68.270084 197.587726 
L 68.595063 133.781306 
L 68.920043 129.612352 
L 69.245023 130.900753 
L 69.570002 233.435066 
L 69.894982 94.639595 
L 70.219961 62.697551 
L 70.544941 144.517293 
L 71.1949 61.756657 
L 71.519879 117.421658 
L 71.844859 110.919104 
L 72.169838 101.262857 
L 72.494818 195.797841 
L 73.144777 76.491741 
L 73.469756 188.483609 
L 73.794736 65.211711 
L 74.444695 162.432323 
L 74.769674 121.408928 
L 75.094654 166.804203 
L 75.419633 77.340791 
L 75.744613 150.301432 
L 76.069593 64.382485 
L 76.394572 144.663097 
L 76.719552 113.781874 
L 77.044531 44.583129 
L 77.369511 219.085183 
L 77.69449 98.119621 
L 78.01947 220.745253 
L 78.344449 77.170394 
L 78.669429 126.891396 
L 78.994408 56.8045 
L 79.319388 71.613952 
L 79.644367 233.872246 
L 79.969347 221.067209 
L 80.294326 125.923786 
L 80.619306 142.918329 
L 80.944285 214.654982 
L 81.269265 222.696452 
L 81.594244 133.549756 
L 81.919224 239.194916 
L 82.244204 70.018473 
L 82.569183 83.689454 
L 82.894163 88.142967 
L 83.219142 245.947996 
L 83.544122 239.45758 
L 84.194081 45.263829 
L 84.51906 179.017132 
L 84.84404 178.594893 
L 85.169019 221.687576 
L 85.493999 110.917037 
L 85.818978 116.590161 
L 86.143958 228.447045 
L 86.468937 153.358842 
L 86.793917 112.406309 
L 87.118896 148.004716 
L 87.768855 81.805022 
L 88.093835 108.562465 
L 88.418814 122.858784 
L 88.743794 74.150396 
L 89.068774 64.510636 
L 89.393753 169.465174 
L 89.718733 213.694097 
L 90.043712 81.478898 
L 90.368692 205.386536 
L 90.693671 58.693323 
L 91.018651 244.536685 
L 91.34363 60.268452 
L 91.66861 128.382616 
L 91.993589 90.322832 
L 92.318569 167.494869 
L 92.643548 45.81955 
L 92.968528 202.556381 
L 93.293507 195.009975 
L 93.618487 238.67991 
L 93.943466 56.329919 
L 94.268446 155.69359 
L 94.593425 110.811075 
L 94.918405 108.229103 
L 95.243385 69.861198 
L 95.568364 112.847223 
L 95.893344 133.953738 
L 96.218323 103.536669 
L 96.543303 95.198536 
L 96.868282 211.093718 
L 97.193262 226.73549 
L 97.518241 233.877002 
L 97.843221 172.507539 
L 98.49318 122.954024 
L 98.818159 52.727973 
L 99.143139 181.381703 
L 99.468118 93.167293 
L 99.793098 140.2431 
L 100.118077 204.086799 
L 100.768036 50.85294 
L 101.093016 223.732441 
L 101.417995 145.181677 
L 101.742975 238.643829 
L 102.717914 76.721089 
L 103.042893 99.432466 
L 103.367873 154.293216 
L 103.692852 62.739689 
L 104.017832 187.13975 
L 104.342811 94.580623 
L 104.667791 152.005794 
L 104.99277 64.911174 
L 105.31775 85.668772 
L 105.642729 64.329916 
L 105.967709 205.28506 
L 106.292688 112.18571 
L 106.617668 97.76391 
L 106.942647 96.953555 
L 107.267627 145.854293 
L 107.592606 246.92157 
L 107.917586 195.607432 
L 108.242566 182.91734 
L 108.567545 74.469061 
L 108.892525 76.756187 
L 109.217504 227.758354 
L 109.542484 54.409585 
L 109.867463 211.805539 
L 110.192443 164.240438 
L 110.517422 205.098593 
L 110.842402 72.76751 
L 111.167381 95.520303 
L 111.492361 176.71733 
L 111.81734 109.369939 
L 112.14232 211.413905 
L 112.467299 170.816705 
L 112.792279 171.881118 
L 113.117258 200.426276 
L 113.442238 69.48996 
L 113.767217 109.992011 
L 114.092197 191.811173 
L 114.417176 199.568085 
L 114.742156 245.546737 
L 115.067136 178.142128 
L 115.392115 141.183798 
L 115.717095 192.268231 
L 116.042074 105.559091 
L 116.367054 164.775756 
L 116.692033 184.349622 
L 117.017013 56.620292 
L 117.341992 195.326414 
L 117.666972 167.543063 
L 117.991951 170.817998 
L 118.316931 199.75728 
L 118.64191 204.622787 
L 118.96689 187.208389 
L 119.291869 71.966827 
L 119.941828 109.550252 
L 120.266808 155.473367 
L 120.591787 145.08441 
L 121.241747 233.986312 
L 121.566726 181.329865 
L 121.891706 147.58063 
L 122.216685 237.473747 
L 122.541665 231.131735 
L 122.866644 195.280397 
L 123.191624 173.937786 
L 123.516603 168.556466 
L 123.841583 225.049697 
L 124.166562 202.911234 
L 124.491542 195.563032 
L 124.816521 235.356651 
L 125.141501 182.343277 
L 125.46648 234.41588 
L 125.79146 104.943854 
L 126.116439 170.04741 
L 126.441419 182.209405 
L 126.766398 223.278357 
L 127.091378 202.771288 
L 127.416357 201.499296 
L 127.741337 47.155234 
L 128.066317 77.891758 
L 128.391296 246.098721 
L 128.716276 122.710623 
L 129.041255 196.739773 
L 129.366235 227.820538 
L 129.691214 104.504528 
L 130.016194 222.235712 
L 130.341173 158.214073 
L 130.666153 119.5666 
L 130.991132 135.497473 
L 131.316112 48.708956 
L 131.641091 88.066535 
L 131.966071 90.435384 
L 132.61603 247.507161 
L 132.941009 98.595108 
L 133.265989 44.175442 
L 133.590968 165.97983 
L 133.915948 47.090771 
L 134.240928 220.163589 
L 134.565907 188.411899 
L 134.890887 214.211577 
L 135.540846 85.761363 
L 135.865825 179.356487 
L 136.190805 63.353747 
L 136.515784 137.479714 
L 136.840764 153.766572 
L 137.165743 87.801283 
L 137.490723 228.42221 
L 137.815702 90.525817 
L 138.140682 199.39759 
L 138.465661 191.632064 
L 139.11562 64.234589 
L 139.4406 130.592875 
L 139.765579 116.124018 
L 140.090559 89.942874 
L 140.415538 196.039396 
L 140.740518 79.55636 
L 141.065498 163.501904 
L 141.390477 213.200646 
L 141.715457 177.4169 
L 142.040436 198.745527 
L 142.365416 202.318009 
L 142.690395 191.272991 
L 143.015375 212.118673 
L 143.340354 112.277737 
L 143.665334 130.267818 
L 143.990313 116.228102 
L 144.315293 178.728232 
L 144.640272 91.350163 
L 144.965252 222.645274 
L 145.290231 132.084065 
L 145.615211 192.73136 
L 145.94019 141.01179 
L 146.26517 182.848362 
L 146.590149 87.088341 
L 146.915129 66.421577 
L 147.240109 96.91931 
L 147.565088 213.21541 
L 147.890068 192.851568 
L 148.215047 60.660849 
L 148.540027 159.551515 
L 148.865006 56.184897 
L 149.189986 168.73391 
L 149.514965 54.011925 
L 149.839945 59.352067 
L 150.164924 113.749365 
L 150.489904 247.418646 
L 151.139863 62.326934 
L 151.464842 67.685365 
L 151.789822 210.794289 
L 152.114801 167.353363 
L 152.439781 77.858828 
L 152.76476 130.701398 
L 153.08974 75.440739 
L 153.414719 79.693021 
L 153.739699 63.096731 
L 154.064679 225.186192 
L 154.389658 219.444267 
L 154.714638 232.244301 
L 155.039617 57.397411 
L 155.689576 236.035477 
L 156.014556 183.280582 
L 156.339535 177.151374 
L 156.664515 83.181419 
L 156.989494 98.37647 
L 157.314474 107.829896 
L 157.639453 244.744746 
L 157.964433 62.437555 
L 158.289412 205.016898 
L 158.614392 120.203208 
L 158.939371 236.549529 
L 159.264351 232.507442 
L 159.58933 247.264763 
L 159.91431 133.152489 
L 160.23929 120.137929 
L 160.564269 238.878894 
L 160.889249 189.648184 
L 161.214228 74.588476 
L 161.539208 228.449926 
L 161.864187 204.813451 
L 162.189167 162.182838 
L 162.514146 76.471437 
L 162.839126 196.957402 
L 163.164105 44.707713 
L 163.489085 176.361875 
L 163.814064 169.965183 
L 164.139044 224.18411 
L 164.464023 109.71467 
L 164.789003 199.292332 
L 165.113982 120.24296 
L 165.438962 203.457567 
L 165.763941 169.673189 
L 166.088921 73.518285 
L 166.4139 97.673148 
L 166.73888 217.521217 
L 167.06386 124.582942 
L 167.388839 120.289508 
L 167.713819 230.652771 
L 168.038798 153.688376 
L 168.363778 195.763804 
L 168.688757 153.416712 
L 169.013737 89.84516 
L 169.338716 216.768743 
L 169.663696 223.938389 
L 169.988675 193.990004 
L 170.313655 53.909208 
L 170.638634 95.843928 
L 170.963614 245.238584 
L 171.288593 166.979584 
L 171.613573 196.434595 
L 171.938552 118.340173 
L 172.263532 155.02429 
L 172.588511 51.40215 
L 172.913491 204.314773 
L 173.238471 128.654708 
L 173.88843 79.898724 
L 174.213409 165.755867 
L 174.538389 108.335518 
L 174.863368 187.039902 
L 175.188348 159.909232 
L 175.513327 65.528269 
L 175.838307 54.394873 
L 176.163286 101.793487 
L 176.488266 172.446335 
L 176.813245 81.028195 
L 177.138225 243.923587 
L 177.463204 228.155074 
L 177.788184 113.575669 
L 178.113163 189.491545 
L 178.438143 54.091598 
L 178.763122 159.789342 
L 179.088102 161.162707 
L 179.413081 110.14917 
L 179.738061 91.794191 
L 180.38802 205.335711 
L 180.713 90.61685 
L 181.037979 183.522329 
L 181.362959 213.312414 
L 181.687938 119.674277 
L 182.012918 230.676319 
L 182.337897 49.996304 
L 182.662877 119.518994 
L 182.987856 47.013441 
L 183.312836 179.719174 
L 183.637815 50.026561 
L 183.962795 219.373072 
L 184.287774 240.882299 
L 184.612754 242.463833 
L 184.937733 153.880211 
L 185.262713 232.20427 
L 185.587692 144.179081 
L 185.912672 182.05596 
L 186.237652 180.388737 
L 186.562631 118.86024 
L 186.887611 215.776336 
L 187.21259 92.002415 
L 187.53757 129.849568 
L 187.862549 61.566083 
L 188.187529 174.397172 
L 188.512508 47.665795 
L 188.837488 131.121913 
L 189.162467 49.575979 
L 189.487447 243.678775 
L 189.812426 99.914902 
L 190.137406 81.733003 
L 190.462385 238.322848 
L 190.787365 130.477458 
L 191.112344 84.743841 
L 191.437324 134.155249 
L 191.762303 236.14043 
L 192.087283 106.997115 
L 192.412262 236.800198 
L 192.737242 81.5592 
L 193.062222 240.402466 
L 193.387201 221.047757 
L 193.712181 192.8022 
L 194.36214 48.969443 
L 194.687119 225.062662 
L 195.012099 219.958571 
L 195.337078 173.570637 
L 195.662058 77.713363 
L 195.987037 153.396035 
L 196.312017 183.26403 
L 196.636996 134.121384 
L 196.961976 195.793586 
L 197.286955 166.947779 
L 197.611935 181.008953 
L 197.936914 84.292862 
L 198.261894 59.656296 
L 198.586873 93.434315 
L 198.911853 159.169306 
L 199.236833 145.785678 
L 199.561812 223.575452 
L 199.886792 96.04073 
L 200.211771 126.886822 
L 200.536751 64.130892 
L 200.86173 208.082067 
L 201.18671 93.402743 
L 201.511689 108.797063 
L 201.836669 194.701928 
L 202.161648 112.344011 
L 202.486628 59.632164 
L 202.811607 60.849975 
L 203.136587 101.627507 
L 203.461566 239.368938 
L 203.786546 70.32018 
L 204.111525 114.313061 
L 204.436505 185.556396 
L 204.761484 210.822479 
L 205.411443 238.925127 
L 205.736423 94.556043 
L 206.061403 200.855708 
L 206.386382 244.254662 
L 206.711362 167.745499 
L 207.036341 150.242258 
L 207.361321 214.518564 
L 207.6863 240.194454 
L 208.01128 210.437875 
L 208.336259 109.939292 
L 208.661239 232.360259 
L 208.986218 135.386248 
L 209.311198 219.198783 
L 209.636177 209.091606 
L 209.961157 168.605472 
L 210.286136 228.549 
L 210.611116 213.703611 
L 210.936095 177.655988 
L 211.261075 181.611182 
L 211.586054 95.547079 
L 211.911034 233.890651 
L 212.236014 72.743252 
L 212.885973 92.117631 
L 213.210952 185.774199 
L 213.535932 80.44897 
L 213.860911 211.73486 
L 214.185891 223.711744 
L 214.51087 240.008216 
L 214.83585 56.56846 
L 215.160829 186.053447 
L 215.485809 61.017776 
L 215.810788 193.313747 
L 216.135768 63.079512 
L 216.460747 63.825473 
L 216.785727 59.775194 
L 217.110706 147.463783 
L 217.435686 71.616067 
L 217.760665 54.218831 
L 218.085645 182.647404 
L 218.410624 163.314382 
L 218.735604 101.706759 
L 219.060584 187.622749 
L 219.385563 94.616333 
L 219.710543 234.073231 
L 220.035522 141.855098 
L 220.360502 224.141595 
L 220.685481 189.065965 
L 221.010461 196.182842 
L 221.33544 77.156916 
L 221.66042 209.537085 
L 221.985399 83.40948 
L 222.310379 86.381007 
L 222.960338 201.265873 
L 223.285317 202.690745 
L 223.610297 153.869078 
L 223.935276 247.422346 
L 224.585235 53.805818 
L 224.910215 217.497428 
L 225.560174 51.960012 
L 225.885154 72.728607 
L 226.210133 74.808824 
L 226.535113 80.660612 
L 226.860092 185.845732 
L 227.185072 66.555925 
L 227.510051 56.152092 
L 227.835031 147.53783 
L 228.16001 176.503557 
L 228.48499 164.267191 
L 228.809969 180.680514 
L 229.134949 205.660288 
L 229.459928 122.380013 
L 229.784908 133.835656 
L 230.109887 154.348946 
L 230.434867 229.570431 
L 230.759846 85.779502 
L 231.084826 213.348761 
L 231.409805 225.731482 
L 231.734785 121.431811 
L 232.059765 167.463739 
L 232.384744 236.961913 
L 232.709724 176.299001 
L 233.034703 90.930316 
L 233.359683 123.03621 
L 234.009642 209.888326 
L 234.334621 119.642397 
L 234.659601 67.183871 
L 234.98458 116.673019 
L 235.30956 82.49553 
L 235.634539 142.259274 
L 236.284498 65.405277 
L 236.609478 90.643446 
L 236.934457 62.610225 
L 237.259437 160.798684 
L 237.584416 63.765745 
L 237.909396 121.740327 
L 238.234376 70.774613 
L 238.559355 241.152682 
L 238.884335 114.297929 
L 239.209314 75.302118 
L 239.534294 213.498804 
L 239.859273 113.490919 
L 240.184253 80.023794 
L 240.509232 190.16824 
L 240.834212 166.109618 
L 241.159191 132.416134 
L 241.484171 142.743361 
L 241.80915 241.191066 
L 242.13413 228.990648 
L 242.459109 228.622584 
L 242.784089 195.435731 
L 243.109068 198.800291 
L 243.434048 96.992911 
L 243.759027 131.754316 
L 244.084007 92.531039 
L 244.408986 234.892863 
L 244.733966 149.707508 
L 245.058946 182.819975 
L 245.383925 74.899237 
L 245.708905 104.055464 
L 246.033884 70.93671 
L 246.358864 239.706545 
L 246.683843 101.38201 
L 247.008823 138.46876 
L 247.333802 80.014499 
L 247.658782 145.206121 
L 247.983761 138.42759 
L 248.308741 238.611211 
L 248.63372 112.109321 
L 248.9587 193.205796 
L 249.283679 245.189756 
L 249.608659 235.602312 
L 249.933638 52.881581 
L 250.258618 178.245701 
L 250.583597 71.179321 
L 250.908577 52.391038 
L 251.233557 55.756881 
L 251.558536 68.379667 
L 251.883516 65.688914 
L 252.208495 189.951097 
L 252.533475 218.161363 
L 252.858454 118.110862 
L 253.183434 149.114466 
L 253.508413 228.975342 
L 253.833393 110.259558 
L 254.158372 133.781688 
L 254.483352 72.206552 
L 254.808331 124.280278 
L 255.133311 131.507818 
L 255.45829 158.827154 
L 255.78327 154.307514 
L 256.108249 53.477295 
L 256.433229 220.832674 
L 257.083188 114.713305 
L 257.733147 191.139172 
L 258.058127 190.289664 
L 258.383106 201.304271 
L 258.708086 178.691625 
L 259.033065 70.441105 
L 259.683024 199.954106 
L 260.008004 170.35939 
L 260.332983 227.522416 
L 260.657963 63.803591 
L 260.982942 165.504239 
L 261.307922 48.142424 
L 261.632901 177.945938 
L 261.957881 77.685282 
L 262.28286 196.642302 
L 262.60784 233.609532 
L 262.932819 242.720362 
L 263.257799 124.898756 
L 263.582778 185.322691 
L 263.907758 158.259381 
L 264.232738 81.317553 
L 264.557717 198.340033 
L 264.882697 185.921854 
L 265.207676 75.843378 
L 265.532656 148.15934 
L 265.857635 79.467857 
L 266.182615 172.420878 
L 266.507594 167.520017 
L 266.832574 214.947624 
L 267.157553 61.27868 
L 267.482533 65.291048 
L 267.807512 47.357717 
L 268.132492 166.683759 
L 268.457471 81.324136 
L 268.782451 164.118546 
L 269.10743 156.048534 
L 269.43241 78.989086 
L 269.757389 212.849689 
L 270.082369 204.041469 
L 270.407348 184.675662 
L 270.732328 87.566805 
L 271.057308 172.79509 
L 271.382287 175.765748 
L 271.707267 44.363268 
L 272.032246 170.507186 
L 272.357226 198.409267 
L 272.682205 121.402627 
L 273.007185 84.756627 
L 273.332164 234.95198 
L 273.657144 122.288994 
L 273.982123 241.899498 
L 274.307103 141.273827 
L 274.632082 196.517954 
L 274.957062 186.334282 
L 275.282041 153.423723 
L 275.607021 59.071381 
L 275.932 103.465131 
L 276.25698 57.074005 
L 276.581959 113.863381 
L 276.906939 247.771289 
L 277.231919 194.755326 
L 277.556898 63.44735 
L 277.881878 117.252901 
L 278.206857 47.884801 
L 278.531837 217.239579 
L 278.856816 188.363599 
L 279.181796 174.904405 
L 279.506775 182.249313 
L 279.831755 197.543505 
L 280.481714 117.488242 
L 281.131673 232.882005 
L 281.456652 103.902993 
L 281.781632 155.080879 
L 282.106611 135.08981 
L 282.431591 155.822531 
L 282.75657 66.609115 
L 283.08155 134.625712 
L 283.406529 59.857074 
L 283.731509 144.505726 
L 284.056489 189.216784 
L 284.381468 176.324797 
L 284.706448 142.13591 
L 285.031427 140.523726 
L 285.356407 108.250235 
L 285.681386 203.183307 
L 286.006366 114.094765 
L 286.331345 89.534007 
L 286.656325 110.454274 
L 286.981304 150.402032 
L 287.306284 45.82686 
L 287.631263 166.198465 
L 287.956243 227.366492 
L 288.281222 80.731521 
L 288.606202 205.704842 
L 288.931181 102.928102 
L 289.256161 212.519564 
L 289.58114 245.767451 
L 289.90612 216.453072 
L 290.2311 171.905503 
L 290.556079 227.360824 
L 290.881059 208.683458 
L 291.206038 92.397679 
L 291.531018 91.319355 
L 291.855997 81.555235 
L 292.180977 76.700926 
L 292.505956 162.994107 
L 292.830936 71.287201 
L 293.155915 141.354942 
L 293.480895 152.705606 
L 293.805874 101.851126 
L 294.130854 205.373142 
L 294.455833 87.296401 
L 295.105792 223.119758 
L 295.430772 224.757243 
L 295.755751 215.405348 
L 296.080731 66.56497 
L 296.40571 45.979221 
L 296.73069 176.010732 
L 297.380649 204.357329 
L 297.705629 80.257256 
L 298.030608 206.318883 
L 298.355588 59.690262 
L 298.680567 112.349808 
L 299.005547 65.220471 
L 299.330526 135.596931 
L 299.655506 107.564729 
L 299.980485 122.172929 
L 300.305465 78.743764 
L 300.630444 77.786859 
L 300.955424 128.257498 
L 301.280403 119.496353 
L 301.605383 60.144415 
L 301.930362 58.505481 
L 302.255342 112.985767 
L 302.580321 247.63868 
L 302.905301 227.813505 
L 303.230281 73.257707 
L 303.55526 231.853551 
L 303.88024 205.434517 
L 304.205219 201.942029 
L 304.530199 126.1158 
L 304.855178 130.956769 
L 305.180158 189.867109 
L 305.505137 206.646261 
L 305.830117 92.41701 
L 306.155096 57.358991 
L 306.480076 238.398247 
L 306.805055 221.912683 
L 307.130035 117.515755 
L 307.455014 84.231242 
L 307.779994 86.949502 
L 308.104973 101.615903 
L 308.429953 67.209991 
L 308.754932 204.649012 
L 309.079912 227.222847 
L 309.404891 123.012876 
L 309.729871 80.573244 
L 310.054851 129.846971 
L 310.37983 51.710026 
L 310.70481 86.051989 
L 311.029789 105.490683 
L 311.354769 236.869857 
L 311.679748 227.130283 
L 312.004728 88.252155 
L 312.329707 208.568834 
L 312.654687 243.314805 
L 312.979666 62.424246 
L 313.304646 66.517253 
L 313.629625 204.416225 
L 313.954605 89.20209 
L 314.279584 239.388106 
L 314.604564 190.761285 
L 314.929543 121.309666 
L 315.254523 92.694529 
L 315.579502 247.096186 
L 315.904482 182.320938 
L 316.229462 205.265019 
L 316.554441 44.370639 
L 317.52938 233.712146 
L 317.854359 126.436696 
L 318.179339 117.610621 
L 318.504318 81.777224 
L 318.829298 190.039538 
L 319.154277 47.929751 
L 319.479257 159.090921 
L 319.804236 188.528523 
L 320.129216 177.759174 
L 320.454195 142.657551 
L 320.779175 57.103547 
L 321.429134 130.858963 
L 321.754113 215.835329 
L 322.079093 218.595492 
L 322.404072 146.224214 
L 322.729052 99.764684 
L 323.054032 95.190049 
L 323.379011 202.892153 
L 323.703991 228.697873 
L 324.02897 170.372871 
L 324.35395 60.90401 
L 324.678929 137.369603 
L 325.003909 183.573915 
L 325.328888 182.848261 
L 325.653868 222.136953 
L 326.303827 86.913811 
L 326.628806 50.569375 
L 327.278765 214.931922 
L 327.603745 109.150108 
L 327.928724 94.004692 
L 328.253704 234.52291 
L 328.578683 74.858252 
L 328.903663 79.127946 
L 329.228643 152.306887 
L 329.553622 134.281638 
L 329.878602 102.902978 
L 330.203581 110.422249 
L 330.528561 245.837477 
L 330.85354 224.116609 
L 331.17852 215.880419 
L 331.503499 94.233481 
L 331.828479 158.9642 
L 332.153458 137.341837 
L 332.478438 90.744265 
L 332.803417 179.290733 
L 333.128397 95.625279 
L 333.453376 158.509738 
L 334.103335 180.920323 
L 334.428315 51.310612 
L 334.753294 90.890718 
L 335.078274 245.086787 
L 335.403253 52.854942 
L 335.728233 90.179766 
L 336.053213 218.632124 
L 336.378192 233.571539 
L 336.703172 186.015872 
L 337.028151 121.204113 
L 337.353131 122.770085 
L 337.67811 192.6499 
L 338.00309 157.817352 
L 338.653049 238.855023 
L 338.978028 143.19403 
L 339.303008 178.058263 
L 339.627987 137.879262 
L 339.952967 55.092301 
L 340.277946 219.822657 
L 340.602926 248.826723 
L 340.927905 233.460762 
L 341.252885 154.323671 
L 341.577864 104.231268 
L 342.552803 176.628246 
L 342.877783 185.650763 
L 343.202762 172.049597 
L 343.527742 123.777524 
L 343.852721 214.821361 
L 344.177701 91.016107 
L 344.50268 131.239729 
L 344.82766 194.022846 
L 345.152639 146.438337 
L 345.477619 51.754903 
L 345.802598 245.02616 
L 346.127578 208.305328 
L 346.777537 118.279634 
L 347.102516 205.699294 
L 347.427496 58.190134 
L 347.752475 117.432065 
L 348.077455 69.260259 
L 348.402434 181.68319 
L 348.727414 79.203519 
L 349.052394 171.653113 
L 349.377373 197.387572 
L 349.702353 62.240745 
L 350.027332 230.314342 
L 350.352312 55.834492 
L 350.677291 155.18371 
L 351.002271 45.633069 
L 351.32725 138.553613 
L 351.65223 93.861766 
L 351.977209 247.778823 
L 352.302189 147.358484 
L 352.627168 97.971056 
L 352.952148 88.664549 
L 353.277127 216.812017 
L 353.602107 163.29458 
L 353.927086 163.273862 
L 354.252066 227.971522 
L 354.902025 83.687395 
L 355.227005 187.659481 
L 355.551984 160.504369 
L 355.876964 52.128202 
L 356.201943 242.725549 
L 356.526923 127.902913 
L 356.851902 96.743969 
L 357.176882 93.165573 
L 357.501861 102.384061 
L 357.826841 100.227668 
L 358.15182 237.125141 
L 358.4768 139.673104 
L 358.801779 88.635413 
L 359.126759 229.935593 
L 359.451738 246.757606 
L 359.776718 82.155464 
L 360.101697 103.131402 
L 360.426677 164.682044 
L 360.751656 56.345698 
L 361.076636 91.993242 
L 361.401615 50.712489 
L 361.726595 58.618542 
L 362.051575 150.511664 
L 362.376554 94.431803 
L 362.701534 111.972201 
L 363.026513 82.79471 
L 363.351493 87.667437 
L 363.676472 217.799946 
L 364.001452 201.287968 
L 364.326431 194.725302 
L 364.651411 81.348007 
L 364.97639 82.939005 
L 365.30137 147.631581 
L 365.626349 130.095423 
L 365.951329 79.620255 
L 366.276308 185.113495 
L 366.601288 238.937048 
L 367.251247 61.817851 
L 367.576226 87.097264 
L 368.226186 235.943983 
L 368.551165 118.591444 
L 368.876145 78.067861 
L 369.201124 112.84244 
L 369.851083 223.928255 
L 370.176063 62.421465 
L 370.501042 192.627707 
L 370.826022 203.225936 
L 371.151001 81.865269 
L 371.475981 47.972443 
L 371.80096 113.824564 
L 372.12594 121.075108 
L 372.775899 245.042174 
L 373.100878 209.889746 
L 373.425858 129.357406 
L 373.750837 218.192833 
L 374.075817 67.946772 
L 374.400796 210.639045 
L 374.725776 142.141005 
L 375.050756 144.210799 
L 375.375735 125.354671 
L 375.700715 182.069586 
L 376.025694 70.05972 
L 376.350674 158.099057 
L 376.675653 105.621588 
L 377.000633 118.798325 
L 377.325612 225.199422 
L 377.650592 121.520427 
L 377.975571 136.275261 
L 378.300551 64.917675 
L 378.62553 68.553723 
L 378.95051 218.267016 
L 379.275489 232.474819 
L 379.600469 188.805734 
L 379.925448 46.866309 
L 380.250428 244.804181 
L 380.575407 111.213124 
L 380.900387 124.417713 
L 381.225367 116.610345 
L 381.550346 204.456823 
L 381.875326 202.727459 
L 382.200305 160.900729 
L 382.525285 229.567883 
L 382.850264 233.925334 
L 383.175244 231.105861 
L 383.500223 131.70616 
L 383.825203 167.64885 
L 384.150182 189.005805 
L 384.475162 184.45186 
L 384.800141 206.713549 
L 385.125121 164.825842 
L 385.4501 207.580181 
L 385.77508 106.053861 
L 386.100059 223.809518 
L 386.425039 54.736487 
L 386.750018 230.806507 
L 387.074998 55.717187 
L 387.399977 78.313135 
L 387.724957 109.609199 
L 388.049937 62.10818 
L 388.374916 220.674169 
L 388.699896 213.065463 
L 389.024875 197.510469 
L 389.349855 199.016185 
L 389.674834 185.471477 
L 389.999814 131.162268 
L 390.324793 243.450703 
L 390.649773 170.82173 
L 390.649773 170.82173 
" style="fill:none;stroke:#1f77b4;stroke-linecap:round;stroke-width:1.5;"/>
   </g>
   <g id="line2d_13">
    <path clip-path="url(#p1c485e02cd)" d="M 65.995227 192.214705 
L 66.320207 175.782334 
L 66.645186 204.535386 
L 67.295145 71.107477 
L 67.945104 218.787222 
L 68.270084 193.182053 
L 68.595063 130.61614 
L 68.920043 128.166152 
L 69.245023 131.535471 
L 69.570002 236.330569 
L 69.894982 99.738917 
L 70.219961 69.676739 
L 70.544941 152.79639 
L 71.1949 70.16281 
L 71.519879 124.516554 
L 71.844859 115.877962 
L 72.169838 103.46415 
L 72.494818 194.904883 
L 73.144777 69.726027 
L 73.469756 179.579879 
L 73.794736 55.048063 
L 74.444695 152.899765 
L 74.769674 113.749703 
L 75.094654 161.850938 
L 75.419633 75.642312 
L 75.744613 152.054622 
L 76.069593 69.405919 
L 76.394572 152.415175 
L 76.719552 123.419713 
L 77.044531 55.055096 
L 77.369511 229.248121 
L 77.69449 106.865042 
L 78.01947 227.116862 
L 78.344449 80.463709 
L 78.669429 126.732112 
L 78.994408 53.201853 
L 79.319388 64.981998 
L 79.644367 225.00758 
L 79.969347 211.069882 
L 80.294326 116.062165 
L 80.619306 134.463794 
L 80.944285 208.716893 
L 81.269265 220.073478 
L 81.594244 134.611875 
L 81.919224 243.817645 
L 82.244204 77.585428 
L 82.569183 93.168575 
L 82.894163 98.23103 
L 83.219142 255.257676 
L 83.544122 246.705918 
L 84.194081 45.719537 
L 84.51906 175.605008 
L 84.84404 171.670525 
L 85.169019 212.081063 
L 85.493999 99.825004 
L 85.818978 105.419814 
L 86.143958 218.637763 
L 86.468937 146.197784 
L 86.793917 108.857589 
L 87.118896 148.580756 
L 87.768855 90.100063 
L 88.093835 119.493153 
L 88.418814 135.145347 
L 88.743794 86.36158 
L 89.068774 75.243871 
L 89.393753 177.520848 
L 89.718733 218.215777 
L 90.043712 82.037255 
L 90.368692 202.0052 
L 90.693671 51.825016 
L 91.018651 234.995675 
L 91.34363 49.126523 
L 91.66861 116.842911 
L 91.993589 79.590366 
L 92.318569 158.655734 
L 92.643548 39.735 
L 92.968528 199.780495 
L 93.293507 195.735924 
L 93.618487 242.713894 
L 93.943466 63.099507 
L 94.268446 164.305247 
L 94.593425 120.159186 
L 94.918405 117.13973 
L 95.243385 77.249644 
L 95.568364 117.869787 
L 95.893344 136.129771 
L 96.218323 102.817926 
L 96.543303 91.974447 
L 96.868282 206.131552 
L 97.193262 221.057295 
L 97.518241 228.584548 
L 97.843221 168.585778 
L 98.49318 123.43648 
L 98.818159 55.376166 
L 99.143139 185.604833 
L 99.468118 98.068215 
L 100.118077 207.218252 
L 100.768036 49.014862 
L 101.093016 219.081084 
L 101.417995 138.102417 
L 101.742975 229.941613 
L 102.717914 70.208853 
L 103.042893 95.899681 
L 103.367873 154.426942 
L 103.692852 66.80264 
L 104.017832 194.926318 
L 104.342811 105.427034 
L 104.667791 164.853459 
L 104.99277 78.419074 
L 105.31775 98.36643 
L 105.642729 74.794554 
L 105.967709 212.317277 
L 106.292688 114.953878 
L 106.617668 95.898865 
L 106.942647 90.590941 
L 107.267627 135.623421 
L 107.592606 233.875017 
L 107.917586 181.091817 
L 108.242566 168.403472 
L 108.567545 61.375004 
L 108.892525 66.296521 
L 109.217504 220.83607 
L 109.542484 51.549226 
L 109.867463 213.125568 
L 110.192443 169.46553 
L 110.517422 213.605535 
L 110.842402 83.658904 
L 111.167381 107.725893 
L 111.492361 189.114749 
L 111.81734 120.903343 
L 112.14232 221.190397 
L 112.467299 178.170605 
L 112.792279 176.403393 
L 113.117258 201.963395 
L 113.442238 68.121407 
L 113.767217 105.998181 
L 114.092197 185.638466 
L 114.417176 191.78579 
L 114.742156 236.79025 
L 115.067136 169.049433 
L 115.392115 132.340365 
L 115.717095 184.17299 
L 116.042074 98.613472 
L 116.367054 159.290403 
L 116.692033 180.560541 
L 117.017013 54.70473 
L 117.341992 195.413237 
L 117.666972 169.712279 
L 117.991951 175.081784 
L 118.316931 206.02456 
L 118.64191 212.658114 
L 118.96689 196.596995 
L 119.291869 82.101543 
L 119.941828 118.757556 
L 120.266808 162.908952 
L 120.591787 149.981043 
L 121.241747 232.37828 
L 121.566726 176.343554 
L 121.891706 139.557736 
L 122.216685 227.05538 
L 122.541665 219.20754 
L 122.866644 182.907493 
L 123.191624 162.240187 
L 123.516603 158.620976 
L 123.841583 217.827593 
L 124.166562 199.128689 
L 124.491542 195.645186 
L 124.816521 239.374438 
L 125.141501 189.990585 
L 125.46648 245.021485 
L 125.79146 117.521513 
L 126.116439 183.385191 
L 126.441419 194.990928 
L 126.766398 234.217317 
L 127.091378 210.7397 
L 127.416357 205.638319 
L 127.741337 46.965078 
L 128.066317 73.300484 
L 128.391296 237.500424 
L 128.716276 110.950712 
L 129.041255 183.03671 
L 129.366235 213.634746 
L 129.691214 91.371937 
L 130.016194 211.588373 
L 130.341173 151.212184 
L 130.666153 116.961677 
L 130.991132 137.546049 
L 131.316112 55.150999 
L 131.641091 98.170593 
L 131.966071 103.100776 
L 132.61603 261.216 
L 132.941009 110.754593 
L 133.265989 53.598169 
L 133.590968 171.767621 
L 133.915948 48.725728 
L 134.240928 217.558028 
L 134.565907 181.906379 
L 134.890887 204.519151 
L 135.540846 72.817763 
L 135.865825 166.552832 
L 136.190805 51.82583 
L 136.515784 128.220705 
L 136.840764 147.55837 
L 137.165743 85.162382 
L 137.490723 229.571418 
L 137.815702 95.362762 
L 138.140682 207.502285 
L 138.465661 202.287011 
L 139.11562 76.905621 
L 139.4406 142.481649 
L 139.765579 126.070715 
L 140.090559 96.973947 
L 140.415538 199.479707 
L 140.740518 79.109329 
L 141.065498 159.287056 
L 141.390477 205.743345 
L 141.715457 167.586406 
L 142.040436 187.646889 
L 142.365416 191.155511 
L 142.690395 181.204897 
L 143.015375 204.121772 
L 143.340354 107.040326 
L 143.665334 128.127857 
L 143.990313 117.16469 
L 144.315293 182.399858 
L 144.640272 97.164858 
L 144.965252 229.848863 
L 145.290231 139.853049 
L 145.615211 200.258353 
L 145.94019 147.577428 
L 146.26517 187.876995 
L 146.590149 90.186409 
L 146.915129 67.401846 
L 147.240109 95.814141 
L 147.565088 210.272861 
L 147.890068 188.502405 
L 148.215047 55.457928 
L 148.540027 154.100612 
L 148.865006 51.08264 
L 149.189986 164.515346 
L 149.514965 51.10712 
L 149.839945 58.054711 
L 150.164924 114.200513 
L 150.489904 249.599248 
L 151.139863 67.221279 
L 151.464842 73.224913 
L 151.789822 216.338097 
L 152.114801 172.214327 
L 152.439781 81.374749 
L 152.76476 132.312749 
L 153.08974 74.773865 
L 153.414719 76.63506 
L 153.739699 57.847069 
L 154.064679 218.269211 
L 154.389658 211.666555 
L 154.714638 224.591647 
L 155.039617 50.892224 
L 155.689576 234.32544 
L 156.014556 184.643629 
L 156.339535 181.522145 
L 156.664515 90.081402 
L 156.989494 106.972016 
L 157.314474 117.051877 
L 157.639453 253.444463 
L 157.964433 69.547002 
L 158.289412 209.691847 
L 158.614392 121.934851 
L 158.939371 235.227769 
L 159.264351 228.42248 
L 159.58933 241.045596 
L 159.91431 125.656987 
L 160.23929 112.322522 
L 160.564269 231.672053 
L 160.889249 183.836491 
L 161.214228 70.723464 
L 161.539208 226.792598 
L 161.864187 205.322366 
L 162.189167 164.537606 
L 162.514146 80.130067 
L 162.839126 201.247739 
L 163.164105 48.938676 
L 163.489085 179.933441 
L 163.814064 172.457883 
L 164.139044 225.409577 
L 164.464023 109.719681 
L 164.789003 198.325129 
L 165.113982 118.694496 
L 165.438962 201.787167 
L 165.763941 168.328196 
L 166.088921 72.860639 
L 166.4139 97.929256 
L 166.73888 218.762297 
L 167.06386 126.72679 
L 167.388839 123.116605 
L 167.713819 233.83768 
L 168.038798 156.840517 
L 168.363778 198.469032 
L 168.688757 155.278808 
L 169.013737 90.528651 
L 169.338716 216.041053 
L 169.663696 221.701698 
L 169.988675 190.291808 
L 170.313655 48.935727 
L 170.638634 89.911419 
L 170.963614 238.784281 
L 171.288593 160.536443 
L 171.613573 190.582148 
L 171.938552 113.643495 
L 172.263532 151.976353 
L 172.588511 50.378023 
L 172.913491 205.540414 
L 173.238471 132.186495 
L 173.88843 87.481941 
L 174.213409 174.737696 
L 174.538389 118.10856 
L 174.863368 196.897579 
L 175.188348 169.085583 
L 175.513327 73.244747 
L 175.838307 59.920809 
L 176.163286 104.521438 
L 176.488266 171.967499 
L 176.813245 77.188468 
L 177.138225 236.851347 
L 177.463204 218.256888 
L 177.788184 101.499929 
L 178.113163 176.073019 
L 178.438143 40.292421 
L 178.763122 146.641622 
L 179.088102 149.709721 
L 179.413081 101.379498 
L 179.738061 86.570239 
L 180.38802 208.936604 
L 180.713 98.899714 
L 181.037979 196.169604 
L 181.362959 229.593128 
L 181.687938 138.451796 
L 182.012918 250.459191 
L 182.337897 69.040496 
L 182.662877 135.982235 
L 182.987856 59.151952 
L 183.312836 186.10129 
L 183.637815 49.727783 
L 183.962795 212.121324 
L 184.287774 227.12772 
L 184.612754 223.35448 
L 184.937733 131.146389 
L 185.262713 207.97526 
L 185.587692 120.758691 
L 185.912672 161.681376 
L 186.237652 164.998719 
L 186.562631 109.897039 
L 186.887611 214.041845 
L 187.21259 97.582853 
L 187.53757 142.116619 
L 187.862549 79.256504 
L 188.187529 195.760179 
L 188.512508 70.655318 
L 188.837488 153.609961 
L 189.162467 69.565977 
L 189.487447 259.494816 
L 189.812426 110.342392 
L 190.137406 86.10028 
L 190.462385 236.527797 
L 190.787365 122.960158 
L 191.112344 72.409505 
L 191.437324 118.266381 
L 191.762303 218.192153 
L 192.087283 88.578506 
L 192.412262 219.452162 
L 192.737242 66.646561 
L 193.062222 229.012544 
L 193.387201 213.918821 
L 193.712181 190.280446 
L 194.36214 55.126579 
L 194.687119 234.627755 
L 195.012099 232.008617 
L 195.337078 187.064805 
L 195.662058 91.570435 
L 195.987037 166.571786 
L 196.312017 194.824534 
L 196.636996 143.299233 
L 196.961976 202.022546 
L 197.286955 169.879403 
L 197.611935 180.514808 
L 197.936914 80.458462 
L 198.261894 52.775816 
L 198.586873 84.00938 
L 198.911853 147.90177 
L 199.236833 133.548158 
L 199.561812 211.351685 
L 199.886792 84.840662 
L 200.211771 117.651396 
L 200.536751 57.64402 
L 200.86173 204.898586 
L 201.18671 93.792767 
L 201.511689 112.711543 
L 201.836669 201.768903 
L 202.161648 121.897288 
L 202.486628 70.771123 
L 202.811607 72.532909 
L 203.136587 112.790933 
L 203.461566 249.048463 
L 203.786546 77.747539 
L 204.111525 118.981471 
L 204.436505 187.25672 
L 204.761484 209.643754 
L 205.411443 233.204597 
L 205.736423 87.443987 
L 206.061403 192.979343 
L 206.386382 236.192829 
L 206.711362 159.988363 
L 207.036341 143.171142 
L 207.361321 208.411238 
L 207.6863 235.248337 
L 208.01128 206.795843 
L 208.336259 107.71221 
L 208.661239 231.647197 
L 208.986218 136.286283 
L 209.311198 221.804559 
L 209.636177 213.461548 
L 209.961157 174.718621 
L 210.286136 236.253016 
L 210.611116 222.669012 
L 210.936095 187.34842 
L 211.261075 191.295086 
L 211.586054 104.331752 
L 211.911034 240.818839 
L 212.236014 76.909939 
L 212.885973 88.921154 
L 213.210952 178.719043 
L 213.535932 70.033688 
L 213.860911 198.911441 
L 214.185891 209.790528 
L 214.51087 226.495798 
L 214.83585 44.963614 
L 215.160829 177.64316 
L 215.485809 56.708758 
L 215.810788 193.518166 
L 216.135768 67.665892 
L 216.460747 72.14286 
L 216.785727 70.751707 
L 217.110706 159.763831 
L 217.435686 83.825744 
L 217.760665 65.031854 
L 218.085645 191.029914 
L 218.410624 168.622813 
L 218.735604 103.739054 
L 219.060584 186.603447 
L 219.385563 91.126145 
L 219.710543 228.934661 
L 220.035522 135.989612 
L 220.360502 218.419078 
L 220.685481 184.170358 
L 221.010461 192.515527 
L 221.33544 74.79535 
L 221.66042 208.258534 
L 221.985399 82.772753 
L 222.310379 85.847285 
L 222.960338 199.609733 
L 223.285317 200.222673 
L 223.610297 150.772283 
L 223.935276 244.111793 
L 224.585235 51.799121 
L 224.910215 216.97451 
L 225.560174 55.235386 
L 225.885154 77.792261 
L 226.210133 81.232703 
L 226.535113 87.818574 
L 226.860092 193.002375 
L 227.185072 72.96388 
L 227.510051 61.147292 
L 227.835031 150.626816 
L 228.16001 177.427627 
L 228.48499 163.02611 
L 228.809969 177.514113 
L 229.134949 200.998027 
L 229.459928 116.770857 
L 229.784908 127.873764 
L 230.109887 148.609027 
L 230.434867 224.555679 
L 230.759846 81.880268 
L 231.084826 210.816204 
L 231.409805 224.668044 
L 231.734785 121.79283 
L 232.059765 169.070329 
L 232.384744 239.526876 
L 232.709724 179.457568 
L 233.034703 94.271571 
L 233.359683 126.14204 
L 234.009642 211.463782 
L 234.334621 120.102582 
L 234.659601 66.443332 
L 234.98458 114.772791 
L 235.30956 79.613507 
L 235.634539 138.708904 
L 236.284498 61.887411 
L 236.609478 87.938776 
L 236.934457 61.239356 
L 237.259437 161.201138 
L 237.584416 66.236194 
L 237.909396 126.368821 
L 238.234376 77.403486 
L 238.559355 249.357539 
L 238.884335 123.393429 
L 239.209314 84.378587 
L 239.534294 221.499595 
L 239.859273 119.325578 
L 240.184253 82.702159 
L 240.509232 188.943264 
L 241.159191 122.732066 
L 241.484171 129.477945 
L 241.80915 225.434081 
L 242.13413 212.232011 
L 242.459109 212.596598 
L 242.784089 181.919192 
L 243.109068 189.395679 
L 243.434048 92.927963 
L 243.759027 133.726382 
L 244.084007 100.615841 
L 244.408986 248.522504 
L 244.733966 167.711803 
L 245.058946 203.52582 
L 245.383925 96.286854 
L 245.708905 123.965419 
L 246.033884 87.308516 
L 246.358864 250.816121 
L 246.683843 106.040559 
L 247.008823 136.158535 
L 247.333802 70.953646 
L 247.658782 130.337874 
L 247.983761 119.328383 
L 248.308741 217.319431 
L 248.63372 90.890014 
L 249.283679 230.481368 
L 249.608659 226.490737 
L 249.933638 50.045522 
L 250.258618 181.59162 
L 250.583597 79.885786 
L 250.908577 65.054445 
L 251.233557 70.615019 
L 251.558536 83.578586 
L 251.883516 79.547844 
L 252.208495 201.181027 
L 252.533475 226.000395 
L 252.858454 122.357722 
L 253.183434 150.070363 
L 253.508413 227.318616 
L 253.833393 106.876114 
L 254.158372 129.581479 
L 254.483352 67.963321 
L 254.808331 120.521046 
L 255.133311 128.461718 
L 255.45829 156.431571 
L 255.78327 152.263549 
L 256.108249 51.345072 
L 256.433229 218.153182 
L 257.083188 110.081615 
L 257.733147 185.042245 
L 258.058127 184.308789 
L 258.383106 196.244149 
L 258.708086 175.387447 
L 259.033065 69.620606 
L 259.683024 205.274166 
L 260.008004 178.641961 
L 260.332983 238.182931 
L 260.657963 75.905797 
L 260.982942 177.852937 
L 261.307922 59.426363 
L 261.632901 186.909192 
L 261.957881 83.297781 
L 262.28286 198.241531 
L 262.60784 230.989448 
L 262.932819 236.15043 
L 263.257799 115.073699 
L 263.582778 173.262974 
L 263.907758 145.183765 
L 264.232738 68.502997 
L 264.557717 186.984978 
L 264.882697 177.024989 
L 265.207676 70.106012 
L 265.532656 145.925527 
L 265.857635 80.712653 
L 266.182615 176.782321 
L 266.507594 174.362391 
L 266.832574 223.442667 
L 267.157553 70.496936 
L 267.482533 74.304151 
L 267.807512 55.349106 
L 268.132492 173.049758 
L 268.457471 85.740193 
L 268.782451 166.556917 
L 269.10743 156.747597 
L 269.43241 78.382071 
L 269.757389 211.467444 
L 270.082369 202.403798 
L 270.407348 183.184015 
L 270.732328 86.420305 
L 271.057308 171.954247 
L 271.382287 174.97062 
L 271.707267 43.197764 
L 272.032246 168.500167 
L 272.357226 195.154743 
L 272.682205 116.67029 
L 273.007185 78.573803 
L 273.332164 227.648245 
L 273.657144 114.489588 
L 273.982123 234.459166 
L 274.307103 135.160276 
L 274.632082 192.665242 
L 274.957062 185.490455 
L 275.282041 156.017156 
L 275.607021 65.120408 
L 275.932 112.552433 
L 276.25698 68.391709 
L 276.581959 126.316929 
L 276.906939 260.118909 
L 277.231919 205.754721 
L 277.556898 71.991994 
L 277.881878 122.496773 
L 278.206857 49.349798 
L 278.531837 214.884707 
L 278.856816 182.592913 
L 279.181796 166.504995 
L 279.506775 172.272356 
L 279.831755 187.152109 
L 280.481714 109.407321 
L 281.131673 229.473004 
L 281.456652 102.805762 
L 281.781632 155.821108 
L 282.106611 136.963264 
L 282.431591 158.03522 
L 282.75657 68.430815 
L 283.08155 135.534696 
L 283.406529 59.653289 
L 283.731509 143.369706 
L 284.056489 187.697171 
L 284.381468 175.247727 
L 284.706448 142.448653 
L 285.031427 143.103747 
L 285.356407 113.715753 
L 285.681386 211.735864 
L 286.006366 125.416974 
L 286.331345 102.762644 
L 286.656325 124.243821 
L 286.981304 163.07503 
L 287.306284 55.588745 
L 287.631263 171.388562 
L 287.956243 226.709012 
L 288.281222 73.545152 
L 288.606202 192.043118 
L 288.931181 83.635323 
L 289.256161 189.18947 
L 289.58114 220.59962 
L 289.90612 192.01623 
L 290.2311 150.837059 
L 290.556079 212.04751 
L 290.881059 200.965676 
L 291.206038 93.33453 
L 291.531018 101.05056 
L 291.855997 99.282738 
L 292.180977 100.787219 
L 292.505956 191.154886 
L 292.830936 100.847072 
L 293.155915 169.534149 
L 293.480895 176.906456 
L 293.805874 119.912282 
L 294.130854 215.766122 
L 294.455833 89.248015 
L 295.105792 209.018948 
L 295.430772 204.450033 
L 295.755751 190.790345 
L 296.080731 39.804008 
L 296.40571 19.296 
L 296.73069 151.518453 
L 297.380649 189.439562 
L 297.705629 71.860198 
L 298.030608 204.895795 
L 298.355588 65.139115 
L 298.680567 124.044137 
L 299.005547 82.08098 
L 299.330526 156.194661 
L 299.655506 130.241143 
L 299.980485 145.165256 
L 300.305465 100.310207 
L 300.630444 96.329303 
L 300.955424 142.436629 
L 301.280403 128.329016 
L 301.605383 63.074688 
L 301.930362 55.448402 
L 302.255342 104.342061 
L 302.580321 234.269237 
L 302.905301 210.960894 
L 303.230281 54.420769 
L 303.55526 212.641363 
L 303.88024 187.419855 
L 304.205219 186.52094 
L 304.530199 114.386421 
L 304.855178 123.637198 
L 305.180158 187.260893 
L 305.505137 208.648485 
L 305.830117 98.551726 
L 306.155096 66.847956 
L 306.480076 250.257647 
L 306.805055 235.05597 
L 307.130035 130.841675 
L 307.455014 96.700145 
L 307.779994 97.658212 
L 308.104973 109.866563 
L 308.429953 72.56037 
L 308.754932 206.935173 
L 309.079912 226.546841 
L 309.404891 119.695392 
L 309.729871 75.089508 
L 310.054851 122.769138 
L 310.37983 43.663662 
L 310.70481 77.683933 
L 311.029789 97.44432 
L 311.354769 229.758274 
L 311.679748 221.495241 
L 312.004728 84.510381 
L 312.329707 206.963926 
L 312.654687 243.887352 
L 312.979666 65.000563 
L 313.304646 70.725169 
L 313.629625 209.735568 
L 313.954605 95.03522 
L 314.279584 245.130125 
L 314.604564 195.859346 
L 314.929543 125.30696 
L 315.254523 95.263184 
L 315.579502 248.06251 
L 315.904482 181.673245 
L 316.229462 203.136896 
L 316.554441 41.010315 
L 317.52938 228.911191 
L 317.854359 122.034975 
L 318.179339 114.017723 
L 318.504318 79.330965 
L 318.829298 188.987288 
L 319.154277 48.416793 
L 319.479257 161.15268 
L 319.804236 192.086089 
L 320.129216 182.613389 
L 320.454195 148.482874 
L 320.779175 63.454153 
L 321.429134 136.609954 
L 321.754113 220.437966 
L 322.079093 221.554542 
L 322.404072 147.14512 
L 322.729052 98.386003 
L 323.054032 91.421315 
L 323.379011 196.851621 
L 323.703991 220.731744 
L 324.02897 161.042417 
L 324.35395 50.945989 
L 324.678929 127.64465 
L 325.003909 175.005261 
L 325.328888 176.341908 
L 325.653868 218.482797 
L 326.303827 90.364149 
L 326.628806 57.603894 
L 327.278765 227.422805 
L 327.603745 122.917197 
L 327.928724 107.806244 
L 328.253704 247.043804 
L 328.578683 84.837036 
L 328.903663 85.486921 
L 329.228643 154.277869 
L 329.553622 131.510133 
L 329.878602 95.509622 
L 330.203581 99.013143 
L 330.528561 231.460269 
L 330.85354 208.156881 
L 331.17852 199.904336 
L 331.503499 79.804106 
L 331.828479 147.466917 
L 332.153458 129.842342 
L 332.478438 87.889188 
L 332.803417 181.257091 
L 333.128397 102.12038 
L 333.453376 168.817295 
L 333.778356 184.931185 
L 334.103335 195.46021 
L 334.428315 65.942624 
L 334.753294 104.270098 
L 335.078274 256.04432 
L 335.403253 60.509298 
L 335.728233 94.011888 
L 336.053213 218.522157 
L 336.378192 229.789527 
L 337.028151 112.099162 
L 337.353131 112.364804 
L 337.67811 181.915412 
L 338.00309 147.660175 
L 338.653049 231.956344 
L 338.978028 138.547764 
L 339.303008 175.76421 
L 339.627987 137.824307 
L 339.952967 57.002936 
L 340.277946 223.333476 
L 340.602926 253.544829 
L 340.927905 239.004737 
L 341.252885 160.335596 
L 341.577864 110.378358 
L 342.552803 181.519151 
L 342.877783 189.698898 
L 343.202762 175.093165 
L 343.527742 125.669845 
L 343.852721 215.429863 
L 344.177701 90.231893 
L 344.50268 128.997474 
L 344.82766 190.329139 
L 345.152639 141.398628 
L 345.477619 45.591388 
L 345.802598 238.086489 
L 346.127578 201.054085 
L 346.777537 112.07118 
L 347.102516 200.845716 
L 347.427496 55.158995 
L 347.752475 116.568521 
L 348.077455 70.757816 
L 348.402434 185.566859 
L 348.727414 85.318596 
L 349.052394 179.658918 
L 349.377373 206.759304 
L 349.702353 72.282669 
L 350.027332 240.191695 
L 350.352312 64.629674 
L 350.677291 161.975687 
L 351.002271 49.596465 
L 351.32725 139.06796 
L 351.65223 90.613367 
L 351.977209 240.834266 
L 352.302189 137.191393 
L 352.627168 85.437357 
L 352.952148 74.936586 
L 353.277127 203.279032 
L 353.602107 151.427144 
L 353.927086 154.458462 
L 354.252066 223.337506 
L 354.902025 89.035384 
L 355.227005 197.699356 
L 355.551984 174.284615 
L 355.876964 68.227198 
L 356.201943 259.401232 
L 356.526923 143.286548 
L 356.851902 109.053051 
L 357.176882 100.917293 
L 357.501861 104.58816 
L 357.826841 96.528742 
L 358.15182 227.866975 
L 358.4768 125.868088 
L 358.801779 71.842622 
L 359.126759 212.070635 
L 359.451738 229.856338 
L 359.776718 68.115185 
L 360.101697 93.472069 
L 360.426677 160.369555 
L 360.751656 57.694919 
L 361.076636 98.656261 
L 361.401615 61.753175 
L 361.726595 72.660508 
L 362.051575 165.932769 
L 362.376554 109.571813 
L 362.701534 125.32439 
L 363.026513 93.16292 
L 363.351493 94.275644 
L 363.676472 220.342413 
L 364.001452 199.911098 
L 364.326431 189.945607 
L 364.651411 73.931491 
L 364.97639 73.776413 
L 365.30137 137.632608 
L 365.626349 120.106594 
L 365.951329 70.365876 
L 366.276308 177.162353 
L 366.601288 232.690171 
L 367.251247 59.512124 
L 367.576226 86.735916 
L 368.226186 238.976462 
L 368.551165 122.98955 
L 368.876145 83.565011 
L 369.201124 119.13889 
L 369.851083 230.814784 
L 370.176063 69.042622 
L 370.501042 198.573129 
L 370.826022 208.076768 
L 371.151001 85.224488 
L 371.475981 49.508848 
L 371.80096 113.332992 
L 372.12594 118.537352 
L 372.775899 239.24746 
L 373.100878 203.2729 
L 373.425858 122.597734 
L 373.750837 211.958756 
L 374.075817 62.806625 
L 374.400796 206.991048 
L 374.725776 140.169685 
L 375.050756 143.872466 
L 375.375735 126.395167 
L 375.700715 184.074115 
L 376.025694 72.526212 
L 376.350674 160.524775 
L 376.675653 107.590966 
L 377.000633 120.05642 
L 377.325612 225.696543 
L 377.650592 121.417238 
L 377.975571 135.908207 
L 378.300551 64.737443 
L 378.62553 69.05068 
L 378.95051 219.889819 
L 379.275489 235.541218 
L 379.600469 193.410795 
L 379.925448 52.813219 
L 380.250428 251.586577 
L 380.575407 118.055411 
L 380.900387 130.364481 
L 381.225367 120.657281 
L 381.550346 205.70694 
L 381.875326 200.542598 
L 382.200305 155.021302 
L 382.525285 220.18591 
L 382.850264 221.700426 
L 383.175244 217.116621 
L 383.500223 117.34251 
L 383.825203 154.463963 
L 384.150182 178.54583 
L 384.475162 178.075694 
L 384.800141 205.417805 
L 385.125121 169.096941 
L 385.4501 217.296186 
L 385.77508 120.454124 
L 386.100059 241.542445 
L 386.425039 73.984977 
L 386.750018 249.48018 
L 387.074998 71.690854 
L 387.399977 89.685436 
L 387.724957 114.953027 
L 388.049937 60.677717 
L 388.374916 212.531485 
L 388.699896 199.098645 
L 389.024875 179.333221 
L 389.349855 178.765191 
L 389.674834 165.535845 
L 389.999814 113.884014 
L 390.324793 230.835342 
L 390.649773 164.292247 
L 390.649773 164.292247 
" style="fill:none;stroke:#ff7f0e;stroke-linecap:round;stroke-width:1.5;"/>
   </g>
   <g id="patch_3">
    <path d="M 49.7625 273.312 
L 49.7625 7.2 
" style="fill:none;stroke:#262626;stroke-linecap:square;stroke-linejoin:miter;stroke-width:1.25;"/>
   </g>
   <g id="patch_4">
    <path d="M 49.7625 273.312 
L 406.8825 273.312 
" style="fill:none;stroke:#262626;stroke-linecap:square;stroke-linejoin:miter;stroke-width:1.25;"/>
   </g>
   <g id="legend_1">
    <g id="line2d_14">
     <path d="M 58.7625 19.946875 
L 78.7625 19.946875 
" style="fill:none;stroke:#1f77b4;stroke-linecap:round;stroke-width:1.5;"/>
    </g>
    <g id="line2d_15"/>
    <g id="text_14">
     <!-- raw -->
     <defs>
      <path d="M 57.328125 0 
L 47.125 0 
L 38.671875 34.078125 
Q 38.28125 35.40625 37.859375 37.359375 
Q 37.453125 39.3125 37.0625 41.15625 
Q 36.578125 43.3125 36.140625 45.609375 
Q 35.6875 43.40625 35.203125 41.265625 
Q 34.8125 39.40625 34.34375 37.40625 
Q 33.890625 35.40625 33.5 33.890625 
L 24.8125 0 
L 14.65625 0 
L -0.140625 52.828125 
L 8.546875 52.828125 
L 17.484375 16.9375 
Q 17.828125 15.828125 18.15625 14.1875 
Q 18.5 12.546875 18.84375 10.984375 
Q 19.1875 9.1875 19.578125 7.28125 
Q 19.96875 9.125 20.40625 10.890625 
Q 20.796875 12.40625 21.1875 13.96875 
Q 21.578125 15.53125 21.875 16.546875 
L 31.453125 52.828125 
L 40.875 52.828125 
L 50.09375 16.546875 
Q 50.4375 15.28125 50.828125 13.671875 
Q 51.21875 12.0625 51.5625 10.640625 
Q 51.953125 8.984375 52.34375 7.28125 
Q 52.734375 9.125 53.125 10.890625 
Q 53.46875 12.40625 53.828125 14.03125 
Q 54.203125 15.671875 54.546875 16.9375 
L 63.875 52.828125 
L 72.46875 52.828125 
z
" id="LiberationSans-119"/>
     </defs>
     <g style="fill:#262626;" transform="translate(86.7625 23.446875)scale(0.1 -0.1)">
      <use xlink:href="#LiberationSans-114"/>
      <use x="33.300781" xlink:href="#LiberationSans-97"/>
      <use x="88.916016" xlink:href="#LiberationSans-119"/>
     </g>
    </g>
    <g id="line2d_16">
     <path d="M 58.7625 34.26875 
L 78.7625 34.26875 
" style="fill:none;stroke:#ff7f0e;stroke-linecap:round;stroke-width:1.5;"/>
    </g>
    <g id="line2d_17"/>
    <g id="text_15">
     <!-- band-stop @ 40-60Hz -->
     <defs>
      <path d="M 51.421875 26.65625 
Q 51.421875 -0.984375 31.984375 -0.984375 
Q 25.984375 -0.984375 22 1.1875 
Q 18.015625 3.375 15.53125 8.203125 
L 15.4375 8.203125 
Q 15.4375 6.9375 15.359375 5.5625 
Q 15.28125 4.203125 15.203125 3.03125 
Q 15.140625 1.859375 15.0625 1.03125 
Q 14.984375 0.203125 14.9375 0 
L 6.453125 0 
Q 6.5 0.4375 6.546875 1.484375 
Q 6.59375 2.546875 6.640625 4 
Q 6.6875 5.46875 6.703125 7.21875 
Q 6.734375 8.984375 6.734375 10.890625 
L 6.734375 72.46875 
L 15.53125 72.46875 
L 15.53125 51.8125 
Q 15.53125 50.34375 15.5 49 
Q 15.484375 47.65625 15.4375 46.625 
Q 15.375 45.40625 15.328125 44.34375 
L 15.53125 44.34375 
Q 17.96875 49.421875 22 51.609375 
Q 26.03125 53.8125 31.984375 53.8125 
Q 42 53.8125 46.703125 47.0625 
Q 51.421875 40.328125 51.421875 26.65625 
z
M 42.1875 26.375 
Q 42.1875 31.84375 41.5 35.75 
Q 40.828125 39.65625 39.3125 42.15625 
Q 37.796875 44.671875 35.453125 45.84375 
Q 33.109375 47.015625 29.734375 47.015625 
Q 26.265625 47.015625 23.609375 45.890625 
Q 20.953125 44.78125 19.171875 42.28125 
Q 17.390625 39.796875 16.453125 35.734375 
Q 15.53125 31.6875 15.53125 25.828125 
Q 15.53125 20.171875 16.453125 16.3125 
Q 17.390625 12.453125 19.171875 10.03125 
Q 20.953125 7.625 23.578125 6.5625 
Q 26.21875 5.515625 29.640625 5.515625 
Q 32.859375 5.515625 35.203125 6.640625 
Q 37.546875 7.765625 39.109375 10.25 
Q 40.671875 12.75 41.421875 16.71875 
Q 42.1875 20.703125 42.1875 26.375 
z
" id="LiberationSans-98"/>
      <path d="M 40.09375 8.5 
Q 37.640625 3.421875 33.609375 1.21875 
Q 29.59375 -0.984375 23.640625 -0.984375 
Q 13.625 -0.984375 8.90625 5.75 
Q 4.203125 12.5 4.203125 26.171875 
Q 4.203125 53.8125 23.640625 53.8125 
Q 29.640625 53.8125 33.640625 51.609375 
Q 37.640625 49.421875 40.09375 44.625 
L 40.1875 44.625 
Q 40.1875 45.125 40.15625 46.171875 
Q 40.140625 47.21875 40.109375 48.359375 
Q 40.09375 49.515625 40.09375 50.53125 
Q 40.09375 51.5625 40.09375 52 
L 40.09375 72.46875 
L 48.875 72.46875 
L 48.875 10.890625 
Q 48.875 8.984375 48.890625 7.21875 
Q 48.921875 5.46875 48.96875 4 
Q 49.03125 2.546875 49.078125 1.484375 
Q 49.125 0.4375 49.171875 0 
L 40.765625 0 
Q 40.671875 0.484375 40.59375 1.390625 
Q 40.53125 2.296875 40.453125 3.46875 
Q 40.375 4.640625 40.328125 5.9375 
Q 40.28125 7.234375 40.28125 8.5 
z
M 13.421875 26.46875 
Q 13.421875 21 14.109375 17.09375 
Q 14.796875 13.1875 16.3125 10.671875 
Q 17.828125 8.15625 20.171875 6.984375 
Q 22.515625 5.8125 25.875 5.8125 
Q 29.34375 5.8125 32 6.9375 
Q 34.671875 8.0625 36.453125 10.578125 
Q 38.234375 13.09375 39.15625 17.140625 
Q 40.09375 21.1875 40.09375 27.046875 
Q 40.09375 32.671875 39.15625 36.546875 
Q 38.234375 40.4375 36.421875 42.828125 
Q 34.625 45.21875 32 46.265625 
Q 29.390625 47.3125 25.984375 47.3125 
Q 22.75 47.3125 20.40625 46.1875 
Q 18.0625 45.0625 16.5 42.578125 
Q 14.9375 40.09375 14.171875 36.109375 
Q 13.421875 32.125 13.421875 26.46875 
z
" id="LiberationSans-100"/>
      <path d="M 4.4375 22.65625 
L 4.4375 30.46875 
L 28.859375 30.46875 
L 28.859375 22.65625 
z
" id="LiberationSans-45"/>
      <path d="M 51.421875 26.65625 
Q 51.421875 20.65625 50.4375 15.578125 
Q 49.46875 10.5 47.1875 6.828125 
Q 44.921875 3.171875 41.1875 1.09375 
Q 37.453125 -0.984375 31.984375 -0.984375 
Q 26.3125 -0.984375 22.0625 1.171875 
Q 17.828125 3.328125 15.578125 8.203125 
L 15.328125 8.203125 
Q 15.375 8.109375 15.40625 7.328125 
Q 15.4375 6.546875 15.453125 5.375 
Q 15.484375 4.203125 15.5 2.75 
Q 15.53125 1.3125 15.53125 -0.09375 
L 15.53125 -20.75 
L 6.734375 -20.75 
L 6.734375 42.046875 
Q 6.734375 43.953125 6.703125 45.703125 
Q 6.6875 47.46875 6.640625 48.90625 
Q 6.59375 50.34375 6.546875 51.359375 
Q 6.5 52.390625 6.453125 52.828125 
L 14.9375 52.828125 
Q 14.984375 52.6875 15.0625 51.796875 
Q 15.140625 50.921875 15.203125 49.671875 
Q 15.28125 48.4375 15.359375 47.015625 
Q 15.4375 45.609375 15.4375 44.34375 
L 15.625 44.34375 
Q 16.84375 46.875 18.40625 48.65625 
Q 19.96875 50.4375 21.96875 51.578125 
Q 23.96875 52.734375 26.4375 53.25 
Q 28.90625 53.765625 31.984375 53.765625 
Q 37.453125 53.765625 41.1875 51.8125 
Q 44.921875 49.859375 47.1875 46.3125 
Q 49.46875 42.78125 50.4375 37.765625 
Q 51.421875 32.765625 51.421875 26.65625 
z
M 42.1875 26.46875 
Q 42.1875 31.34375 41.59375 35.15625 
Q 41.015625 38.96875 39.578125 41.59375 
Q 38.140625 44.234375 35.734375 45.59375 
Q 33.34375 46.96875 29.734375 46.96875 
Q 26.8125 46.96875 24.21875 46.140625 
Q 21.625 45.3125 19.703125 42.96875 
Q 17.78125 40.625 16.65625 36.5 
Q 15.53125 32.375 15.53125 25.78125 
Q 15.53125 20.171875 16.453125 16.28125 
Q 17.390625 12.40625 19.171875 10.015625 
Q 20.953125 7.625 23.578125 6.5625 
Q 26.21875 5.515625 29.640625 5.515625 
Q 33.296875 5.515625 35.71875 6.921875 
Q 38.140625 8.34375 39.578125 11.03125 
Q 41.015625 13.71875 41.59375 17.59375 
Q 42.1875 21.484375 42.1875 26.46875 
z
" id="LiberationSans-112"/>
      <path id="LiberationSans-32"/>
      <path d="M 92.875 36.859375 
Q 92.875 29.828125 91.234375 24 
Q 89.59375 18.171875 86.71875 13.96875 
Q 83.84375 9.765625 79.8125 7.421875 
Q 75.78125 5.078125 71.046875 5.078125 
Q 68.3125 5.078125 66.375 5.734375 
Q 64.453125 6.390625 63.234375 7.53125 
Q 62.015625 8.6875 61.46875 10.25 
Q 60.9375 11.8125 60.9375 13.671875 
Q 60.9375 14.40625 60.984375 15.453125 
Q 61.03125 16.5 61.078125 17.09375 
L 60.796875 17.09375 
Q 59.625 14.890625 57.9375 12.71875 
Q 56.25 10.546875 53.96875 8.859375 
Q 51.703125 7.171875 48.84375 6.125 
Q 46 5.078125 42.53125 5.078125 
Q 38.421875 5.078125 35.375 6.484375 
Q 32.328125 7.90625 30.34375 10.421875 
Q 28.375 12.9375 27.390625 16.375 
Q 26.421875 19.828125 26.421875 23.875 
Q 26.421875 29.734375 28.15625 35.125 
Q 29.890625 40.53125 33.109375 44.65625 
Q 36.328125 48.78125 40.84375 51.265625 
Q 45.359375 53.765625 50.921875 53.765625 
Q 53.859375 53.765625 56.203125 53.09375 
Q 58.546875 52.4375 60.328125 51.265625 
Q 62.109375 50.09375 63.421875 48.453125 
Q 64.75 46.828125 65.625 44.875 
L 65.921875 44.875 
L 67.828125 52.6875 
L 75.4375 52.6875 
L 69.78125 27.984375 
Q 68.84375 23.875 68.40625 20.9375 
Q 67.96875 18.015625 67.96875 15.625 
Q 67.96875 13.28125 69.015625 12.15625 
Q 70.0625 11.03125 71.921875 11.03125 
Q 74.953125 11.03125 77.5625 13 
Q 80.171875 14.984375 82.09375 18.453125 
Q 84.03125 21.921875 85.125 26.609375 
Q 86.234375 31.296875 86.234375 36.765625 
Q 86.234375 43.0625 84.203125 48.484375 
Q 82.171875 53.90625 78.234375 57.859375 
Q 74.3125 61.8125 68.5 64.0625 
Q 62.703125 66.3125 55.078125 66.3125 
Q 48.53125 66.3125 42.984375 64.75 
Q 37.453125 63.1875 32.953125 60.34375 
Q 28.46875 57.515625 25.078125 53.578125 
Q 21.6875 49.65625 19.390625 44.96875 
Q 17.09375 40.28125 15.921875 34.9375 
Q 14.75 29.59375 14.75 23.96875 
Q 14.75 17.09375 16.84375 11.28125 
Q 18.953125 5.46875 22.96875 1.296875 
Q 27 -2.875 32.9375 -5.21875 
Q 38.875 -7.5625 46.578125 -7.5625 
Q 51.703125 -7.5625 56.140625 -6.75 
Q 60.59375 -5.953125 64.296875 -4.78125 
Q 68.015625 -3.609375 70.9375 -2.21875 
Q 73.875 -0.828125 76.03125 0.34375 
L 78.71875 -5.125 
Q 76.265625 -6.59375 72.96875 -8.125 
Q 69.671875 -9.671875 65.625 -10.9375 
Q 61.578125 -12.203125 56.78125 -13 
Q 52 -13.8125 46.578125 -13.8125 
Q 37.3125 -13.8125 30.109375 -11 
Q 22.90625 -8.203125 17.9375 -3.171875 
Q 12.984375 1.859375 10.421875 8.78125 
Q 7.859375 15.71875 7.859375 23.96875 
Q 7.859375 30.765625 9.390625 37.015625 
Q 10.9375 43.265625 13.8125 48.625 
Q 16.703125 54 20.84375 58.390625 
Q 25 62.796875 30.25 65.921875 
Q 35.5 69.046875 41.71875 70.75 
Q 47.953125 72.46875 54.984375 72.46875 
Q 64.796875 72.46875 71.921875 69.578125 
Q 79.046875 66.703125 83.703125 61.8125 
Q 88.375 56.9375 90.625 50.484375 
Q 92.875 44.046875 92.875 36.859375 
z
M 63.28125 36.46875 
Q 63.28125 38.921875 62.453125 40.96875 
Q 61.625 43.015625 60.078125 44.484375 
Q 58.546875 45.953125 56.375 46.75 
Q 54.203125 47.5625 51.46875 47.5625 
Q 47.265625 47.5625 44.09375 45.484375 
Q 40.921875 43.40625 38.796875 40.03125 
Q 36.671875 36.671875 35.5625 32.4375 
Q 34.46875 28.21875 34.46875 23.96875 
Q 34.46875 18.109375 36.78125 14.78125 
Q 39.109375 11.46875 43.953125 11.46875 
Q 47.3125 11.46875 50.234375 12.984375 
Q 53.171875 14.5 55.515625 16.984375 
Q 57.859375 19.484375 59.5625 22.703125 
Q 61.28125 25.921875 62.15625 29.390625 
Q 62.59375 31.15625 62.9375 33.109375 
Q 63.28125 35.0625 63.28125 36.46875 
z
" id="LiberationSans-64"/>
      <path d="M 54.734375 0 
L 54.734375 31.890625 
L 17.53125 31.890625 
L 17.53125 0 
L 8.203125 0 
L 8.203125 68.796875 
L 17.53125 68.796875 
L 17.53125 39.703125 
L 54.734375 39.703125 
L 54.734375 68.796875 
L 64.0625 68.796875 
L 64.0625 0 
z
" id="LiberationSans-72"/>
      <path d="M 2.390625 0 
L 2.390625 6.6875 
L 34.671875 46.046875 
L 4.34375 46.046875 
L 4.34375 52.828125 
L 44.578125 52.828125 
L 44.578125 46.140625 
L 12.25 6.78125 
L 46.390625 6.78125 
L 46.390625 0 
z
" id="LiberationSans-122"/>
     </defs>
     <g style="fill:#262626;" transform="translate(86.7625 37.76875)scale(0.1 -0.1)">
      <use xlink:href="#LiberationSans-98"/>
      <use x="55.615234" xlink:href="#LiberationSans-97"/>
      <use x="111.230469" xlink:href="#LiberationSans-110"/>
      <use x="166.845703" xlink:href="#LiberationSans-100"/>
      <use x="222.460938" xlink:href="#LiberationSans-45"/>
      <use x="255.761719" xlink:href="#LiberationSans-115"/>
      <use x="305.761719" xlink:href="#LiberationSans-116"/>
      <use x="333.544922" xlink:href="#LiberationSans-111"/>
      <use x="389.160156" xlink:href="#LiberationSans-112"/>
      <use x="444.775391" xlink:href="#LiberationSans-32"/>
      <use x="472.558594" xlink:href="#LiberationSans-64"/>
      <use x="574.072266" xlink:href="#LiberationSans-32"/>
      <use x="601.855469" xlink:href="#LiberationSans-52"/>
      <use x="657.470703" xlink:href="#LiberationSans-48"/>
      <use x="713.085938" xlink:href="#LiberationSans-45"/>
      <use x="746.386719" xlink:href="#LiberationSans-54"/>
      <use x="802.001953" xlink:href="#LiberationSans-48"/>
      <use x="857.617188" xlink:href="#LiberationSans-72"/>
      <use x="929.833984" xlink:href="#LiberationSans-122"/>
     </g>
    </g>
   </g>
  </g>
 </g>
 <defs>
  <clipPath id="p1c485e02cd">
   <rect height="266.112" width="357.12" x="49.7625" y="7.2"/>
  </clipPath>
 </defs>
</svg>
