<?xml version="1.0" encoding="utf-8" standalone="no"?>
<!DOCTYPE svg PUBLIC "-//W3C//DTD SVG 1.1//EN"
  "http://www.w3.org/Graphics/SVG/1.1/DTD/svg11.dtd">
<!-- Created with matplotlib (https://matplotlib.org/) -->
<svg height="312.65575pt" version="1.1" viewBox="0 0 414.0825 312.65575" width="414.0825pt" xmlns="http://www.w3.org/2000/svg" xmlns:xlink="http://www.w3.org/1999/xlink">
 <defs>
  <style type="text/css">
*{stroke-linecap:butt;stroke-linejoin:round;}
  </style>
 </defs>
 <g id="figure_1">
  <g id="patch_1">
   <path d="M 0 312.65575 
L 414.0825 312.65575 
L 414.0825 0 
L 0 0 
z
" style="fill:#ffffff;"/>
  </g>
  <g id="axes_1">
   <g id="patch_2">
    <path d="M 49.7625 273.312 
L 406.8825 273.312 
L 406.8825 7.2 
L 49.7625 7.2 
z
" style="fill:#ffffff;"/>
   </g>
   <g id="matplotlib.axis_1">
    <g id="xtick_1">
     <g id="line2d_1">
      <defs>
       <path d="M 0 0 
L 0 6 
" id="m346970be55" style="stroke:#262626;stroke-width:0.8;"/>
      </defs>
      <g>
       <use style="fill:#262626;stroke:#262626;stroke-width:0.8;" x="65.995227" xlink:href="#m346970be55" y="273.312"/>
      </g>
     </g>
     <g id="text_1">
      <!-- 0 -->
      <defs>
       <path d="M 51.703125 34.421875 
Q 51.703125 24.515625 49.828125 17.75 
Q 47.953125 10.984375 44.703125 6.8125 
Q 41.453125 2.640625 37.0625 0.828125 
Q 32.671875 -0.984375 27.6875 -0.984375 
Q 22.65625 -0.984375 18.3125 0.828125 
Q 13.96875 2.640625 10.765625 6.78125 
Q 7.5625 10.9375 5.734375 17.703125 
Q 3.90625 24.46875 3.90625 34.421875 
Q 3.90625 44.828125 5.734375 51.640625 
Q 7.5625 58.453125 10.78125 62.5 
Q 14.015625 66.546875 18.40625 68.1875 
Q 22.796875 69.828125 27.984375 69.828125 
Q 32.90625 69.828125 37.21875 68.1875 
Q 41.546875 66.546875 44.765625 62.5 
Q 48 58.453125 49.84375 51.640625 
Q 51.703125 44.828125 51.703125 34.421875 
z
M 42.78125 34.421875 
Q 42.78125 42.625 41.796875 48.0625 
Q 40.828125 53.515625 38.921875 56.765625 
Q 37.015625 60.015625 34.25 61.359375 
Q 31.5 62.703125 27.984375 62.703125 
Q 24.265625 62.703125 21.4375 61.328125 
Q 18.609375 59.96875 16.671875 56.71875 
Q 14.75 53.46875 13.765625 48.015625 
Q 12.796875 42.578125 12.796875 34.421875 
Q 12.796875 26.515625 13.796875 21.09375 
Q 14.796875 15.671875 16.71875 12.375 
Q 18.65625 9.078125 21.4375 7.640625 
Q 24.21875 6.203125 27.78125 6.203125 
Q 31.25 6.203125 34.03125 7.640625 
Q 36.8125 9.078125 38.734375 12.375 
Q 40.671875 15.671875 41.71875 21.09375 
Q 42.78125 26.515625 42.78125 34.421875 
z
" id="LiberationSans-48"/>
      </defs>
      <g style="fill:#262626;" transform="translate(63.214759 290.058875)scale(0.1 -0.1)">
       <use xlink:href="#LiberationSans-48"/>
      </g>
     </g>
    </g>
    <g id="xtick_2">
     <g id="line2d_2">
      <g>
       <use style="fill:#262626;stroke:#262626;stroke-width:0.8;" x="130.991132" xlink:href="#m346970be55" y="273.312"/>
      </g>
     </g>
     <g id="text_2">
      <!-- 200 -->
      <defs>
       <path d="M 5.03125 0 
L 5.03125 6.203125 
Q 7.515625 11.921875 11.109375 16.28125 
Q 14.703125 20.65625 18.65625 24.1875 
Q 22.609375 27.734375 26.484375 30.765625 
Q 30.375 33.796875 33.5 36.8125 
Q 36.625 39.84375 38.546875 43.15625 
Q 40.484375 46.484375 40.484375 50.6875 
Q 40.484375 53.609375 39.59375 55.828125 
Q 38.71875 58.0625 37.0625 59.5625 
Q 35.40625 61.078125 33.078125 61.828125 
Q 30.765625 62.59375 27.9375 62.59375 
Q 25.296875 62.59375 22.96875 61.859375 
Q 20.65625 61.140625 18.84375 59.671875 
Q 17.046875 58.203125 15.890625 56.03125 
Q 14.75 53.859375 14.40625 50.984375 
L 5.421875 51.8125 
Q 5.859375 55.515625 7.46875 58.78125 
Q 9.078125 62.0625 11.90625 64.53125 
Q 14.75 67 18.71875 68.40625 
Q 22.703125 69.828125 27.9375 69.828125 
Q 33.0625 69.828125 37.0625 68.609375 
Q 41.0625 67.390625 43.8125 64.984375 
Q 46.578125 62.59375 48.046875 59.078125 
Q 49.515625 55.5625 49.515625 50.984375 
Q 49.515625 47.515625 48.265625 44.390625 
Q 47.015625 41.265625 44.9375 38.421875 
Q 42.875 35.59375 40.140625 32.953125 
Q 37.40625 30.328125 34.421875 27.8125 
Q 31.453125 25.296875 28.421875 22.828125 
Q 25.390625 20.359375 22.71875 17.859375 
Q 20.0625 15.375 17.96875 12.8125 
Q 15.875 10.25 14.703125 7.46875 
L 50.59375 7.46875 
L 50.59375 0 
z
" id="LiberationSans-50"/>
      </defs>
      <g style="fill:#262626;" transform="translate(122.649726 290.058875)scale(0.1 -0.1)">
       <use xlink:href="#LiberationSans-50"/>
       <use x="55.615234" xlink:href="#LiberationSans-48"/>
       <use x="111.230469" xlink:href="#LiberationSans-48"/>
      </g>
     </g>
    </g>
    <g id="xtick_3">
     <g id="line2d_3">
      <g>
       <use style="fill:#262626;stroke:#262626;stroke-width:0.8;" x="195.987037" xlink:href="#m346970be55" y="273.312"/>
      </g>
     </g>
     <g id="text_3">
      <!-- 400 -->
      <defs>
       <path d="M 43.015625 15.578125 
L 43.015625 0 
L 34.71875 0 
L 34.71875 15.578125 
L 2.296875 15.578125 
L 2.296875 22.40625 
L 33.796875 68.796875 
L 43.015625 68.796875 
L 43.015625 22.515625 
L 52.6875 22.515625 
L 52.6875 15.578125 
z
M 34.71875 58.890625 
Q 34.625 58.640625 34.234375 57.9375 
Q 33.84375 57.234375 33.34375 56.34375 
Q 32.859375 55.46875 32.34375 54.5625 
Q 31.84375 53.65625 31.453125 53.078125 
L 13.8125 27.09375 
Q 13.578125 26.703125 13.109375 26.0625 
Q 12.640625 25.4375 12.15625 24.78125 
Q 11.671875 24.125 11.171875 23.484375 
Q 10.6875 22.859375 10.40625 22.515625 
L 34.71875 22.515625 
z
" id="LiberationSans-52"/>
      </defs>
      <g style="fill:#262626;" transform="translate(187.645631 290.058875)scale(0.1 -0.1)">
       <use xlink:href="#LiberationSans-52"/>
       <use x="55.615234" xlink:href="#LiberationSans-48"/>
       <use x="111.230469" xlink:href="#LiberationSans-48"/>
      </g>
     </g>
    </g>
    <g id="xtick_4">
     <g id="line2d_4">
      <g>
       <use style="fill:#262626;stroke:#262626;stroke-width:0.8;" x="260.982942" xlink:href="#m346970be55" y="273.312"/>
      </g>
     </g>
     <g id="text_4">
      <!-- 600 -->
      <defs>
       <path d="M 51.21875 22.515625 
Q 51.21875 17.328125 49.78125 13 
Q 48.34375 8.6875 45.53125 5.578125 
Q 42.71875 2.484375 38.5625 0.75 
Q 34.421875 -0.984375 29 -0.984375 
Q 23 -0.984375 18.5 1.3125 
Q 14.015625 3.609375 11.03125 7.921875 
Q 8.0625 12.25 6.5625 18.53125 
Q 5.078125 24.8125 5.078125 32.8125 
Q 5.078125 42 6.765625 48.921875 
Q 8.453125 55.859375 11.625 60.5 
Q 14.796875 65.140625 19.359375 67.484375 
Q 23.921875 69.828125 29.6875 69.828125 
Q 33.203125 69.828125 36.28125 69.09375 
Q 39.359375 68.359375 41.875 66.71875 
Q 44.390625 65.09375 46.28125 62.40625 
Q 48.1875 59.71875 49.3125 55.8125 
L 40.921875 54.296875 
Q 39.546875 58.734375 36.546875 60.71875 
Q 33.546875 62.703125 29.59375 62.703125 
Q 25.984375 62.703125 23.046875 60.984375 
Q 20.125 59.28125 18.0625 55.875 
Q 16.015625 52.484375 14.90625 47.359375 
Q 13.8125 42.234375 13.8125 35.40625 
Q 16.21875 39.84375 20.5625 42.15625 
Q 24.90625 44.484375 30.515625 44.484375 
Q 35.203125 44.484375 39.015625 42.96875 
Q 42.828125 41.453125 45.53125 38.59375 
Q 48.25 35.75 49.734375 31.671875 
Q 51.21875 27.59375 51.21875 22.515625 
z
M 42.28125 22.125 
Q 42.28125 25.6875 41.40625 28.5625 
Q 40.53125 31.453125 38.765625 33.46875 
Q 37.015625 35.5 34.421875 36.59375 
Q 31.84375 37.703125 28.421875 37.703125 
Q 26.03125 37.703125 23.578125 36.984375 
Q 21.140625 36.28125 19.15625 34.6875 
Q 17.1875 33.109375 15.9375 30.515625 
Q 14.703125 27.9375 14.703125 24.21875 
Q 14.703125 20.40625 15.671875 17.109375 
Q 16.65625 13.8125 18.484375 11.375 
Q 20.3125 8.9375 22.890625 7.515625 
Q 25.484375 6.109375 28.71875 6.109375 
Q 31.890625 6.109375 34.40625 7.203125 
Q 36.921875 8.296875 38.671875 10.375 
Q 40.4375 12.453125 41.359375 15.421875 
Q 42.28125 18.40625 42.28125 22.125 
z
" id="LiberationSans-54"/>
      </defs>
      <g style="fill:#262626;" transform="translate(252.641536 290.058875)scale(0.1 -0.1)">
       <use xlink:href="#LiberationSans-54"/>
       <use x="55.615234" xlink:href="#LiberationSans-48"/>
       <use x="111.230469" xlink:href="#LiberationSans-48"/>
      </g>
     </g>
    </g>
    <g id="xtick_5">
     <g id="line2d_5">
      <g>
       <use style="fill:#262626;stroke:#262626;stroke-width:0.8;" x="325.978847" xlink:href="#m346970be55" y="273.312"/>
      </g>
     </g>
     <g id="text_5">
      <!-- 800 -->
      <defs>
       <path d="M 51.265625 19.1875 
Q 51.265625 14.796875 49.875 11.109375 
Q 48.484375 7.421875 45.625 4.734375 
Q 42.78125 2.046875 38.328125 0.53125 
Q 33.890625 -0.984375 27.828125 -0.984375 
Q 21.78125 -0.984375 17.359375 0.53125 
Q 12.9375 2.046875 10.03125 4.703125 
Q 7.125 7.375 5.734375 11.0625 
Q 4.34375 14.75 4.34375 19.09375 
Q 4.34375 22.859375 5.484375 25.78125 
Q 6.640625 28.71875 8.5625 30.828125 
Q 10.5 32.953125 12.96875 34.25 
Q 15.4375 35.546875 18.0625 35.984375 
L 18.0625 36.1875 
Q 15.1875 36.859375 12.90625 38.375 
Q 10.640625 39.890625 9.09375 42.015625 
Q 7.5625 44.140625 6.75 46.71875 
Q 5.953125 49.3125 5.953125 52.203125 
Q 5.953125 55.8125 7.34375 59 
Q 8.734375 62.203125 11.46875 64.625 
Q 14.203125 67.046875 18.25 68.4375 
Q 22.3125 69.828125 27.640625 69.828125 
Q 33.25 69.828125 37.375 68.40625 
Q 41.5 67 44.203125 64.578125 
Q 46.921875 62.15625 48.234375 58.9375 
Q 49.5625 55.71875 49.5625 52.09375 
Q 49.5625 49.265625 48.75 46.671875 
Q 47.953125 44.09375 46.40625 41.96875 
Q 44.875 39.84375 42.59375 38.34375 
Q 40.328125 36.859375 37.359375 36.28125 
L 37.359375 36.078125 
Q 40.328125 35.59375 42.859375 34.296875 
Q 45.40625 33.015625 47.265625 30.890625 
Q 49.125 28.765625 50.1875 25.828125 
Q 51.265625 22.90625 51.265625 19.1875 
z
M 40.4375 51.609375 
Q 40.4375 54.203125 39.765625 56.34375 
Q 39.109375 58.5 37.59375 60.03125 
Q 36.078125 61.578125 33.640625 62.421875 
Q 31.203125 63.28125 27.640625 63.28125 
Q 24.171875 63.28125 21.78125 62.421875 
Q 19.390625 61.578125 17.84375 60.03125 
Q 16.3125 58.5 15.625 56.34375 
Q 14.9375 54.203125 14.9375 51.609375 
Q 14.9375 49.5625 15.46875 47.40625 
Q 16.015625 45.265625 17.421875 43.5 
Q 18.84375 41.75 21.328125 40.625 
Q 23.828125 39.5 27.734375 39.5 
Q 31.890625 39.5 34.40625 40.625 
Q 36.921875 41.75 38.25 43.5 
Q 39.59375 45.265625 40.015625 47.40625 
Q 40.4375 49.5625 40.4375 51.609375 
z
M 42.140625 20.015625 
Q 42.140625 22.515625 41.453125 24.828125 
Q 40.765625 27.15625 39.109375 28.9375 
Q 37.453125 30.71875 34.640625 31.8125 
Q 31.84375 32.90625 27.640625 32.90625 
Q 23.78125 32.90625 21.0625 31.8125 
Q 18.359375 30.71875 16.671875 28.90625 
Q 14.984375 27.09375 14.203125 24.71875 
Q 13.421875 22.359375 13.421875 19.828125 
Q 13.421875 16.65625 14.203125 14.03125 
Q 14.984375 11.421875 16.6875 9.546875 
Q 18.40625 7.671875 21.1875 6.640625 
Q 23.96875 5.609375 27.9375 5.609375 
Q 31.9375 5.609375 34.671875 6.640625 
Q 37.40625 7.671875 39.0625 9.546875 
Q 40.71875 11.421875 41.421875 14.078125 
Q 42.140625 16.75 42.140625 20.015625 
z
" id="LiberationSans-56"/>
      </defs>
      <g style="fill:#262626;" transform="translate(317.637441 290.058875)scale(0.1 -0.1)">
       <use xlink:href="#LiberationSans-56"/>
       <use x="55.615234" xlink:href="#LiberationSans-48"/>
       <use x="111.230469" xlink:href="#LiberationSans-48"/>
      </g>
     </g>
    </g>
    <g id="xtick_6">
     <g id="line2d_6">
      <g>
       <use style="fill:#262626;stroke:#262626;stroke-width:0.8;" x="390.974752" xlink:href="#m346970be55" y="273.312"/>
      </g>
     </g>
     <g id="text_6">
      <!-- 1000 -->
      <defs>
       <path d="M 7.625 0 
L 7.625 7.46875 
L 25.140625 7.46875 
L 25.140625 60.40625 
L 9.625 49.3125 
L 9.625 57.625 
L 25.875 68.796875 
L 33.984375 68.796875 
L 33.984375 7.46875 
L 50.734375 7.46875 
L 50.734375 0 
z
" id="LiberationSans-49"/>
      </defs>
      <g style="fill:#262626;" transform="translate(379.852877 290.058875)scale(0.1 -0.1)">
       <use xlink:href="#LiberationSans-49"/>
       <use x="55.615234" xlink:href="#LiberationSans-48"/>
       <use x="111.230469" xlink:href="#LiberationSans-48"/>
       <use x="166.845703" xlink:href="#LiberationSans-48"/>
      </g>
     </g>
    </g>
    <g id="text_7">
     <!-- time_frame -->
     <defs>
      <path d="M 27.046875 0.390625 
Q 25.046875 -0.140625 22.96875 -0.453125 
Q 20.90625 -0.78125 18.171875 -0.78125 
Q 7.625 -0.78125 7.625 11.1875 
L 7.625 46.4375 
L 1.515625 46.4375 
L 1.515625 52.828125 
L 7.953125 52.828125 
L 10.546875 64.65625 
L 16.40625 64.65625 
L 16.40625 52.828125 
L 26.171875 52.828125 
L 26.171875 46.4375 
L 16.40625 46.4375 
L 16.40625 13.09375 
Q 16.40625 9.28125 17.640625 7.734375 
Q 18.890625 6.203125 21.96875 6.203125 
Q 23.25 6.203125 24.4375 6.390625 
Q 25.640625 6.59375 27.046875 6.890625 
z
" id="LiberationSans-116"/>
      <path d="M 6.6875 64.0625 
L 6.6875 72.46875 
L 15.484375 72.46875 
L 15.484375 64.0625 
z
M 6.6875 0 
L 6.6875 52.828125 
L 15.484375 52.828125 
L 15.484375 0 
z
" id="LiberationSans-105"/>
      <path d="M 37.5 0 
L 37.5 33.5 
Q 37.5 37.359375 37.015625 39.9375 
Q 36.53125 42.53125 35.375 44.109375 
Q 34.234375 45.703125 32.375 46.359375 
Q 30.515625 47.015625 27.828125 47.015625 
Q 25.046875 47.015625 22.796875 45.921875 
Q 20.5625 44.828125 18.96875 42.75 
Q 17.390625 40.671875 16.53125 37.625 
Q 15.671875 34.578125 15.671875 30.609375 
L 15.671875 0 
L 6.9375 0 
L 6.9375 41.546875 
Q 6.9375 43.21875 6.90625 45.046875 
Q 6.890625 46.875 6.828125 48.5 
Q 6.78125 50.140625 6.734375 51.3125 
Q 6.6875 52.484375 6.640625 52.828125 
L 14.9375 52.828125 
Q 14.984375 52.59375 15.03125 51.515625 
Q 15.09375 50.4375 15.15625 49.046875 
Q 15.234375 47.65625 15.28125 46.21875 
Q 15.328125 44.78125 15.328125 43.796875 
L 15.484375 43.796875 
Q 16.65625 46.09375 18.015625 47.953125 
Q 19.390625 49.8125 21.21875 51.09375 
Q 23.046875 52.390625 25.40625 53.09375 
Q 27.78125 53.8125 30.90625 53.8125 
Q 36.921875 53.8125 40.40625 51.421875 
Q 43.890625 49.03125 45.265625 43.796875 
L 45.40625 43.796875 
Q 46.578125 46.09375 48.046875 47.953125 
Q 49.515625 49.8125 51.46875 51.09375 
Q 53.421875 52.390625 55.859375 53.09375 
Q 58.296875 53.8125 61.421875 53.8125 
Q 65.4375 53.8125 68.328125 52.734375 
Q 71.234375 51.65625 73.09375 49.40625 
Q 74.953125 47.171875 75.828125 43.625 
Q 76.703125 40.09375 76.703125 35.203125 
L 76.703125 0 
L 68.015625 0 
L 68.015625 33.5 
Q 68.015625 37.359375 67.53125 39.9375 
Q 67.046875 42.53125 65.890625 44.109375 
Q 64.75 45.703125 62.890625 46.359375 
Q 61.03125 47.015625 58.34375 47.015625 
Q 55.5625 47.015625 53.3125 45.96875 
Q 51.078125 44.921875 49.484375 42.875 
Q 47.90625 40.828125 47.046875 37.75 
Q 46.1875 34.671875 46.1875 30.609375 
L 46.1875 0 
z
" id="LiberationSans-109"/>
      <path d="M 13.484375 24.5625 
Q 13.484375 20.40625 14.328125 16.90625 
Q 15.1875 13.421875 16.96875 10.90625 
Q 18.75 8.40625 21.53125 7 
Q 24.3125 5.609375 28.21875 5.609375 
Q 33.9375 5.609375 37.375 7.90625 
Q 40.828125 10.203125 42.046875 13.71875 
L 49.75 11.53125 
Q 48.921875 9.328125 47.4375 7.109375 
Q 45.953125 4.890625 43.453125 3.09375 
Q 40.96875 1.3125 37.234375 0.15625 
Q 33.5 -0.984375 28.21875 -0.984375 
Q 16.5 -0.984375 10.375 6 
Q 4.25 12.984375 4.25 26.765625 
Q 4.25 34.1875 6.09375 39.328125 
Q 7.953125 44.484375 11.171875 47.703125 
Q 14.40625 50.921875 18.703125 52.359375 
Q 23 53.8125 27.875 53.8125 
Q 34.515625 53.8125 38.984375 51.65625 
Q 43.453125 49.515625 46.15625 45.71875 
Q 48.875 41.9375 50.015625 36.8125 
Q 51.171875 31.6875 51.171875 25.734375 
L 51.171875 24.5625 
z
M 42.09375 31.296875 
Q 41.359375 39.65625 37.84375 43.484375 
Q 34.328125 47.3125 27.734375 47.3125 
Q 25.53125 47.3125 23.109375 46.609375 
Q 20.703125 45.90625 18.65625 44.09375 
Q 16.609375 42.28125 15.1875 39.171875 
Q 13.765625 36.078125 13.578125 31.296875 
z
" id="LiberationSans-101"/>
      <path d="M -1.515625 -19.875 
L -1.515625 -13.53125 
L 56.734375 -13.53125 
L 56.734375 -19.875 
z
" id="LiberationSans-95"/>
      <path d="M 17.625 46.4375 
L 17.625 0 
L 8.84375 0 
L 8.84375 46.4375 
L 1.421875 46.4375 
L 1.421875 52.828125 
L 8.84375 52.828125 
L 8.84375 58.796875 
Q 8.84375 61.671875 9.375 64.140625 
Q 9.90625 66.609375 11.34375 68.4375 
Q 12.796875 70.265625 15.28125 71.3125 
Q 17.78125 72.359375 21.734375 72.359375 
Q 23.296875 72.359375 24.96875 72.21875 
Q 26.65625 72.078125 27.9375 71.78125 
L 27.9375 65.09375 
Q 27.09375 65.234375 26 65.359375 
Q 24.90625 65.484375 24.03125 65.484375 
Q 22.078125 65.484375 20.828125 64.9375 
Q 19.578125 64.40625 18.875 63.40625 
Q 18.171875 62.40625 17.890625 60.9375 
Q 17.625 59.46875 17.625 57.5625 
L 17.625 52.828125 
L 27.9375 52.828125 
L 27.9375 46.4375 
z
" id="LiberationSans-102"/>
      <path d="M 6.9375 0 
L 6.9375 40.53125 
Q 6.9375 42.1875 6.90625 43.921875 
Q 6.890625 45.65625 6.828125 47.265625 
Q 6.78125 48.875 6.734375 50.28125 
Q 6.6875 51.703125 6.640625 52.828125 
L 14.9375 52.828125 
Q 14.984375 51.703125 15.0625 50.265625 
Q 15.140625 48.828125 15.203125 47.3125 
Q 15.28125 45.796875 15.296875 44.40625 
Q 15.328125 43.015625 15.328125 42.046875 
L 15.53125 42.046875 
Q 16.453125 45.0625 17.5 47.28125 
Q 18.5625 49.515625 19.96875 50.953125 
Q 21.390625 52.390625 23.34375 53.09375 
Q 25.296875 53.8125 28.078125 53.8125 
Q 29.15625 53.8125 30.125 53.640625 
Q 31.109375 53.46875 31.640625 53.328125 
L 31.640625 45.265625 
Q 30.765625 45.515625 29.59375 45.625 
Q 28.421875 45.75 26.953125 45.75 
Q 23.921875 45.75 21.796875 44.375 
Q 19.671875 43.015625 18.328125 40.59375 
Q 17 38.1875 16.359375 34.84375 
Q 15.71875 31.5 15.71875 27.546875 
L 15.71875 0 
z
" id="LiberationSans-114"/>
      <path d="M 20.21875 -0.984375 
Q 12.25 -0.984375 8.25 3.21875 
Q 4.25 7.421875 4.25 14.75 
Q 4.25 19.96875 6.21875 23.3125 
Q 8.203125 26.65625 11.390625 28.5625 
Q 14.59375 30.46875 18.6875 31.203125 
Q 22.796875 31.9375 27.046875 32.03125 
L 38.921875 32.234375 
L 38.921875 35.109375 
Q 38.921875 38.375 38.234375 40.671875 
Q 37.546875 42.96875 36.125 44.375 
Q 34.71875 45.796875 32.59375 46.453125 
Q 30.46875 47.125 27.59375 47.125 
Q 25.046875 47.125 23 46.75 
Q 20.953125 46.390625 19.4375 45.4375 
Q 17.921875 44.484375 16.984375 42.84375 
Q 16.0625 41.21875 15.765625 38.71875 
L 6.59375 39.546875 
Q 7.078125 42.671875 8.4375 45.28125 
Q 9.8125 47.90625 12.328125 49.796875 
Q 14.84375 51.703125 18.625 52.75 
Q 22.40625 53.8125 27.78125 53.8125 
Q 37.75 53.8125 42.765625 49.234375 
Q 47.796875 44.671875 47.796875 36.03125 
L 47.796875 13.28125 
Q 47.796875 9.375 48.828125 7.390625 
Q 49.859375 5.421875 52.734375 5.421875 
Q 53.46875 5.421875 54.203125 5.515625 
Q 54.9375 5.609375 55.609375 5.765625 
L 55.609375 0.296875 
Q 53.953125 -0.09375 52.3125 -0.28125 
Q 50.6875 -0.484375 48.828125 -0.484375 
Q 46.34375 -0.484375 44.5625 0.171875 
Q 42.78125 0.828125 41.65625 2.171875 
Q 40.53125 3.515625 39.9375 5.484375 
Q 39.359375 7.46875 39.203125 10.109375 
L 38.921875 10.109375 
Q 37.5 7.5625 35.8125 5.515625 
Q 34.125 3.46875 31.875 2.03125 
Q 29.640625 0.59375 26.78125 -0.1875 
Q 23.921875 -0.984375 20.21875 -0.984375 
z
M 22.21875 5.609375 
Q 26.421875 5.609375 29.5625 7.140625 
Q 32.71875 8.6875 34.78125 11.078125 
Q 36.859375 13.484375 37.890625 16.3125 
Q 38.921875 19.140625 38.921875 21.734375 
L 38.921875 26.078125 
L 29.296875 25.875 
Q 26.078125 25.828125 23.171875 25.40625 
Q 20.265625 25 18.0625 23.78125 
Q 15.875 22.5625 14.578125 20.359375 
Q 13.28125 18.171875 13.28125 14.59375 
Q 13.28125 10.296875 15.59375 7.953125 
Q 17.921875 5.609375 22.21875 5.609375 
z
" id="LiberationSans-97"/>
     </defs>
     <g style="fill:#262626;" transform="translate(203.317031 303.38075)scale(0.1 -0.1)">
      <use xlink:href="#LiberationSans-116"/>
      <use x="27.783203" xlink:href="#LiberationSans-105"/>
      <use x="50" xlink:href="#LiberationSans-109"/>
      <use x="133.300781" xlink:href="#LiberationSans-101"/>
      <use x="188.916016" xlink:href="#LiberationSans-95"/>
      <use x="244.53125" xlink:href="#LiberationSans-102"/>
      <use x="272.314453" xlink:href="#LiberationSans-114"/>
      <use x="305.615234" xlink:href="#LiberationSans-97"/>
      <use x="361.230469" xlink:href="#LiberationSans-109"/>
      <use x="444.53125" xlink:href="#LiberationSans-101"/>
     </g>
    </g>
   </g>
   <g id="matplotlib.axis_2">
    <g id="ytick_1">
     <g id="line2d_7">
      <defs>
       <path d="M 0 0 
L -6 0 
" id="m384c2cc853" style="stroke:#262626;stroke-width:0.8;"/>
      </defs>
      <g>
       <use style="fill:#262626;stroke:#262626;stroke-width:0.8;" x="49.7625" xlink:href="#m384c2cc853" y="243.393158"/>
      </g>
     </g>
     <g id="text_8">
      <!-- −1.0 -->
      <defs>
       <path d="M 4.9375 29.6875 
L 4.9375 36.8125 
L 53.515625 36.8125 
L 53.515625 29.6875 
z
" id="LiberationSans-8722"/>
       <path d="M 9.125 0 
L 9.125 10.6875 
L 18.65625 10.6875 
L 18.65625 0 
z
" id="LiberationSans-46"/>
      </defs>
      <g style="fill:#262626;" transform="translate(20.521875 247.016595)scale(0.1 -0.1)">
       <use xlink:href="#LiberationSans-8722"/>
       <use x="58.398438" xlink:href="#LiberationSans-49"/>
       <use x="114.013672" xlink:href="#LiberationSans-46"/>
       <use x="141.796875" xlink:href="#LiberationSans-48"/>
      </g>
     </g>
    </g>
    <g id="ytick_2">
     <g id="line2d_8">
      <g>
       <use style="fill:#262626;stroke:#262626;stroke-width:0.8;" x="49.7625" xlink:href="#m384c2cc853" y="190.719282"/>
      </g>
     </g>
     <g id="text_9">
      <!-- −0.5 -->
      <defs>
       <path d="M 51.421875 22.40625 
Q 51.421875 17.234375 49.859375 12.9375 
Q 48.296875 8.640625 45.21875 5.53125 
Q 42.140625 2.4375 37.578125 0.71875 
Q 33.015625 -0.984375 27 -0.984375 
Q 21.578125 -0.984375 17.546875 0.28125 
Q 13.53125 1.5625 10.734375 3.78125 
Q 7.953125 6 6.3125 8.984375 
Q 4.6875 11.96875 4 15.375 
L 12.890625 16.40625 
Q 13.421875 14.453125 14.390625 12.625 
Q 15.375 10.796875 17.0625 9.34375 
Q 18.75 7.90625 21.21875 7.046875 
Q 23.6875 6.203125 27.203125 6.203125 
Q 30.609375 6.203125 33.390625 7.25 
Q 36.1875 8.296875 38.15625 10.34375 
Q 40.140625 12.40625 41.203125 15.375 
Q 42.28125 18.359375 42.28125 22.21875 
Q 42.28125 25.390625 41.25 28.046875 
Q 40.234375 30.71875 38.328125 32.640625 
Q 36.421875 34.578125 33.65625 35.640625 
Q 30.90625 36.71875 27.390625 36.71875 
Q 25.203125 36.71875 23.34375 36.328125 
Q 21.484375 35.9375 19.890625 35.25 
Q 18.3125 34.578125 17.015625 33.671875 
Q 15.71875 32.765625 14.59375 31.78125 
L 6 31.78125 
L 8.296875 68.796875 
L 47.40625 68.796875 
L 47.40625 61.328125 
L 16.3125 61.328125 
L 14.984375 39.5 
Q 17.328125 41.3125 20.84375 42.59375 
Q 24.359375 43.890625 29.203125 43.890625 
Q 34.328125 43.890625 38.421875 42.328125 
Q 42.53125 40.765625 45.40625 37.90625 
Q 48.296875 35.0625 49.859375 31.109375 
Q 51.421875 27.15625 51.421875 22.40625 
z
" id="LiberationSans-53"/>
      </defs>
      <g style="fill:#262626;" transform="translate(20.521875 194.34272)scale(0.1 -0.1)">
       <use xlink:href="#LiberationSans-8722"/>
       <use x="58.398438" xlink:href="#LiberationSans-48"/>
       <use x="114.013672" xlink:href="#LiberationSans-46"/>
       <use x="141.796875" xlink:href="#LiberationSans-53"/>
      </g>
     </g>
    </g>
    <g id="ytick_3">
     <g id="line2d_9">
      <g>
       <use style="fill:#262626;stroke:#262626;stroke-width:0.8;" x="49.7625" xlink:href="#m384c2cc853" y="138.045407"/>
      </g>
     </g>
     <g id="text_10">
      <!-- 0.0 -->
      <g style="fill:#262626;" transform="translate(26.3625 141.668845)scale(0.1 -0.1)">
       <use xlink:href="#LiberationSans-48"/>
       <use x="55.615234" xlink:href="#LiberationSans-46"/>
       <use x="83.398438" xlink:href="#LiberationSans-48"/>
      </g>
     </g>
    </g>
    <g id="ytick_4">
     <g id="line2d_10">
      <g>
       <use style="fill:#262626;stroke:#262626;stroke-width:0.8;" x="49.7625" xlink:href="#m384c2cc853" y="85.371532"/>
      </g>
     </g>
     <g id="text_11">
      <!-- 0.5 -->
      <g style="fill:#262626;" transform="translate(26.3625 88.994969)scale(0.1 -0.1)">
       <use xlink:href="#LiberationSans-48"/>
       <use x="55.615234" xlink:href="#LiberationSans-46"/>
       <use x="83.398438" xlink:href="#LiberationSans-53"/>
      </g>
     </g>
    </g>
    <g id="ytick_5">
     <g id="line2d_11">
      <g>
       <use style="fill:#262626;stroke:#262626;stroke-width:0.8;" x="49.7625" xlink:href="#m384c2cc853" y="32.697656"/>
      </g>
     </g>
     <g id="text_12">
      <!-- 1.0 -->
      <g style="fill:#262626;" transform="translate(26.3625 36.321094)scale(0.1 -0.1)">
       <use xlink:href="#LiberationSans-49"/>
       <use x="55.615234" xlink:href="#LiberationSans-46"/>
       <use x="83.398438" xlink:href="#LiberationSans-48"/>
      </g>
     </g>
    </g>
    <g id="text_13">
     <!-- analogs -->
     <defs>
      <path d="M 40.28125 0 
L 40.28125 33.5 
Q 40.28125 37.359375 39.71875 39.9375 
Q 39.15625 42.53125 37.890625 44.109375 
Q 36.625 45.703125 34.546875 46.359375 
Q 32.46875 47.015625 29.390625 47.015625 
Q 26.265625 47.015625 23.75 45.921875 
Q 21.234375 44.828125 19.453125 42.75 
Q 17.671875 40.671875 16.6875 37.625 
Q 15.71875 34.578125 15.71875 30.609375 
L 15.71875 0 
L 6.9375 0 
L 6.9375 41.546875 
Q 6.9375 43.21875 6.90625 45.046875 
Q 6.890625 46.875 6.828125 48.5 
Q 6.78125 50.140625 6.734375 51.3125 
Q 6.6875 52.484375 6.640625 52.828125 
L 14.9375 52.828125 
Q 14.984375 52.59375 15.03125 51.515625 
Q 15.09375 50.4375 15.15625 49.046875 
Q 15.234375 47.65625 15.28125 46.21875 
Q 15.328125 44.78125 15.328125 43.796875 
L 15.484375 43.796875 
Q 16.75 46.09375 18.265625 47.953125 
Q 19.78125 49.8125 21.78125 51.09375 
Q 23.78125 52.390625 26.359375 53.09375 
Q 28.953125 53.8125 32.375 53.8125 
Q 36.765625 53.8125 39.9375 52.734375 
Q 43.109375 51.65625 45.15625 49.40625 
Q 47.21875 47.171875 48.171875 43.625 
Q 49.125 40.09375 49.125 35.203125 
L 49.125 0 
z
" id="LiberationSans-110"/>
      <path d="M 6.734375 0 
L 6.734375 72.46875 
L 15.53125 72.46875 
L 15.53125 0 
z
" id="LiberationSans-108"/>
      <path d="M 51.421875 26.46875 
Q 51.421875 12.59375 45.3125 5.796875 
Q 39.203125 -0.984375 27.59375 -0.984375 
Q 22.078125 -0.984375 17.71875 0.671875 
Q 13.375 2.34375 10.375 5.765625 
Q 7.375 9.1875 5.78125 14.328125 
Q 4.203125 19.484375 4.203125 26.46875 
Q 4.203125 53.8125 27.875 53.8125 
Q 34.03125 53.8125 38.5 52.09375 
Q 42.96875 50.390625 45.828125 46.96875 
Q 48.6875 43.5625 50.046875 38.421875 
Q 51.421875 33.296875 51.421875 26.46875 
z
M 42.1875 26.46875 
Q 42.1875 32.625 41.234375 36.625 
Q 40.28125 40.625 38.453125 43.015625 
Q 36.625 45.40625 33.984375 46.359375 
Q 31.34375 47.3125 28.03125 47.3125 
Q 24.65625 47.3125 21.9375 46.3125 
Q 19.234375 45.3125 17.328125 42.890625 
Q 15.4375 40.484375 14.421875 36.46875 
Q 13.421875 32.46875 13.421875 26.46875 
Q 13.421875 20.3125 14.5 16.28125 
Q 15.578125 12.25 17.453125 9.859375 
Q 19.34375 7.46875 21.90625 6.484375 
Q 24.46875 5.515625 27.484375 5.515625 
Q 30.859375 5.515625 33.59375 6.46875 
Q 36.328125 7.421875 38.234375 9.8125 
Q 40.140625 12.203125 41.15625 16.25 
Q 42.1875 20.3125 42.1875 26.46875 
z
" id="LiberationSans-111"/>
      <path d="M 26.765625 -20.75 
Q 22.21875 -20.75 18.703125 -19.8125 
Q 15.1875 -18.890625 12.6875 -17.15625 
Q 10.203125 -15.4375 8.640625 -13.03125 
Q 7.078125 -10.640625 6.390625 -7.71875 
L 15.234375 -6.453125 
Q 16.109375 -10.109375 19.109375 -12.078125 
Q 22.125 -14.0625 27 -14.0625 
Q 29.984375 -14.0625 32.421875 -13.234375 
Q 34.859375 -12.40625 36.5625 -10.5625 
Q 38.28125 -8.734375 39.203125 -5.796875 
Q 40.140625 -2.875 40.140625 1.3125 
L 40.140625 9.8125 
L 40.046875 9.8125 
Q 39.0625 7.8125 37.625 5.984375 
Q 36.1875 4.15625 34.109375 2.734375 
Q 32.03125 1.3125 29.296875 0.453125 
Q 26.5625 -0.390625 23.046875 -0.390625 
Q 18.015625 -0.390625 14.421875 1.296875 
Q 10.84375 2.984375 8.5625 6.34375 
Q 6.296875 9.71875 5.25 14.71875 
Q 4.203125 19.734375 4.203125 26.3125 
Q 4.203125 32.671875 5.25 37.75 
Q 6.296875 42.828125 8.65625 46.359375 
Q 11.03125 49.90625 14.8125 51.78125 
Q 18.609375 53.65625 24.03125 53.65625 
Q 29.640625 53.65625 33.765625 51.09375 
Q 37.890625 48.53125 40.140625 43.796875 
L 40.234375 43.796875 
Q 40.234375 45.015625 40.296875 46.53125 
Q 40.375 48.046875 40.453125 49.390625 
Q 40.53125 50.734375 40.625 51.703125 
Q 40.71875 52.6875 40.828125 52.828125 
L 49.171875 52.828125 
Q 49.125 52.390625 49.078125 51.34375 
Q 49.03125 50.296875 48.96875 48.828125 
Q 48.921875 47.359375 48.890625 45.578125 
Q 48.875 43.796875 48.875 41.890625 
L 48.875 1.515625 
Q 48.875 -9.578125 43.421875 -15.15625 
Q 37.984375 -20.75 26.765625 -20.75 
z
M 40.140625 26.421875 
Q 40.140625 31.9375 38.9375 35.859375 
Q 37.75 39.796875 35.796875 42.28125 
Q 33.84375 44.78125 31.328125 45.953125 
Q 28.8125 47.125 26.171875 47.125 
Q 22.796875 47.125 20.375 45.953125 
Q 17.96875 44.78125 16.375 42.265625 
Q 14.796875 39.75 14.03125 35.8125 
Q 13.28125 31.890625 13.28125 26.421875 
Q 13.28125 20.703125 14.03125 16.8125 
Q 14.796875 12.9375 16.359375 10.546875 
Q 17.921875 8.15625 20.3125 7.125 
Q 22.703125 6.109375 26.03125 6.109375 
Q 28.65625 6.109375 31.171875 7.21875 
Q 33.6875 8.34375 35.6875 10.78125 
Q 37.703125 13.234375 38.921875 17.09375 
Q 40.140625 20.953125 40.140625 26.421875 
z
" id="LiberationSans-103"/>
      <path d="M 46.390625 14.59375 
Q 46.390625 10.890625 44.9375 7.984375 
Q 43.5 5.078125 40.765625 3.09375 
Q 38.03125 1.125 34.046875 0.0625 
Q 30.078125 -0.984375 24.953125 -0.984375 
Q 20.359375 -0.984375 16.671875 -0.265625 
Q 12.984375 0.4375 10.203125 2 
Q 7.421875 3.5625 5.53125 6.125 
Q 3.65625 8.6875 2.78125 12.40625 
L 10.546875 13.921875 
Q 11.671875 9.671875 15.1875 7.6875 
Q 18.703125 5.71875 24.953125 5.71875 
Q 27.78125 5.71875 30.140625 6.109375 
Q 32.515625 6.5 34.21875 7.453125 
Q 35.9375 8.40625 36.890625 9.984375 
Q 37.84375 11.578125 37.84375 13.921875 
Q 37.84375 16.3125 36.71875 17.84375 
Q 35.59375 19.390625 33.59375 20.40625 
Q 31.59375 21.4375 28.734375 22.1875 
Q 25.875 22.953125 22.46875 23.875 
Q 19.28125 24.703125 16.15625 25.734375 
Q 13.03125 26.765625 10.515625 28.4375 
Q 8.015625 30.125 6.453125 32.609375 
Q 4.890625 35.109375 4.890625 38.875 
Q 4.890625 46.09375 10.03125 49.875 
Q 15.1875 53.65625 25.046875 53.65625 
Q 33.796875 53.65625 38.9375 50.578125 
Q 44.09375 47.515625 45.453125 40.71875 
L 37.546875 39.75 
Q 37.109375 41.796875 35.9375 43.1875 
Q 34.765625 44.578125 33.109375 45.4375 
Q 31.453125 46.296875 29.375 46.65625 
Q 27.296875 47.015625 25.046875 47.015625 
Q 19.09375 47.015625 16.25 45.203125 
Q 13.421875 43.40625 13.421875 39.75 
Q 13.421875 37.59375 14.46875 36.203125 
Q 15.53125 34.8125 17.40625 33.859375 
Q 19.28125 32.90625 21.921875 32.203125 
Q 24.5625 31.5 27.734375 30.71875 
Q 29.828125 30.171875 32.03125 29.5625 
Q 34.234375 28.953125 36.296875 28.09375 
Q 38.375 27.25 40.203125 26.09375 
Q 42.046875 24.953125 43.40625 23.34375 
Q 44.78125 21.734375 45.578125 19.578125 
Q 46.390625 17.4375 46.390625 14.59375 
z
" id="LiberationSans-115"/>
     </defs>
     <g style="fill:#262626;" transform="translate(14.446875 157.769281)rotate(-90)scale(0.1 -0.1)">
      <use xlink:href="#LiberationSans-97"/>
      <use x="55.615234" xlink:href="#LiberationSans-110"/>
      <use x="111.230469" xlink:href="#LiberationSans-97"/>
      <use x="166.845703" xlink:href="#LiberationSans-108"/>
      <use x="189.0625" xlink:href="#LiberationSans-111"/>
      <use x="244.677734" xlink:href="#LiberationSans-103"/>
      <use x="300.292969" xlink:href="#LiberationSans-115"/>
     </g>
    </g>
   </g>
   <g id="line2d_12">
    <path clip-path="url(#pdc0acbc601)" d="M 65.995227 63.13675 
L 66.320207 41.291026 
L 66.645186 143.47134 
L 66.970166 38.784834 
L 67.295145 156.666192 
L 67.620125 197.434561 
L 67.945104 135.112135 
L 68.270084 106.478323 
L 68.595063 146.902347 
L 68.920043 123.934614 
L 69.245023 155.657615 
L 69.570002 132.828175 
L 69.894982 42.685535 
L 70.219961 138.080982 
L 70.544941 190.049348 
L 70.86992 83.528658 
L 71.1949 172.265631 
L 71.519879 71.421979 
L 71.844859 231.416806 
L 72.169838 173.404752 
L 72.494818 223.51195 
L 72.819797 225.417076 
L 73.144777 104.673439 
L 73.469756 162.204849 
L 73.794736 59.776465 
L 74.119715 134.588918 
L 74.444695 181.16567 
L 74.769674 91.505112 
L 75.094654 111.915627 
L 75.419633 74.922168 
L 75.744613 107.792003 
L 76.069593 208.204182 
L 76.394572 102.161848 
L 76.719552 160.895503 
L 77.044531 145.811005 
L 77.369511 49.223647 
L 77.69449 167.550353 
L 78.01947 114.456119 
L 78.669429 223.434503 
L 78.994408 147.837408 
L 79.319388 117.594985 
L 79.644367 157.534047 
L 79.969347 161.08155 
L 80.294326 70.543095 
L 80.619306 237.138626 
L 80.944285 181.114644 
L 81.269265 72.359554 
L 81.594244 49.441597 
L 81.919224 156.52349 
L 82.244204 56.128209 
L 82.569183 201.479476 
L 82.894163 196.739471 
L 83.219142 65.104441 
L 83.544122 53.080815 
L 83.869101 196.448985 
L 84.194081 230.893818 
L 84.51906 224.362268 
L 84.84404 188.321392 
L 85.169019 82.959263 
L 85.493999 135.940174 
L 85.818978 147.402638 
L 86.143958 120.317502 
L 86.468937 55.827153 
L 86.793917 224.339884 
L 87.118896 97.017909 
L 87.443876 48.122496 
L 87.768855 198.441264 
L 88.093835 66.8783 
L 88.418814 96.322491 
L 88.743794 240.344702 
L 89.068774 194.593619 
L 89.393753 115.744392 
L 89.718733 137.539666 
L 90.043712 132.159364 
L 90.368692 194.526461 
L 90.693671 101.172963 
L 91.018651 187.260006 
L 91.34363 161.340962 
L 91.66861 165.664234 
L 91.993589 101.800509 
L 92.318569 224.377307 
L 92.643548 200.086404 
L 92.968528 201.149327 
L 93.293507 220.548567 
L 93.618487 199.65383 
L 93.943466 115.48829 
L 94.268446 89.128618 
L 94.593425 104.270192 
L 94.918405 143.273155 
L 95.243385 232.34543 
L 95.568364 41.334695 
L 95.893344 207.980204 
L 96.218323 102.559782 
L 96.543303 51.051212 
L 96.868282 96.374663 
L 97.193262 197.45108 
L 97.518241 176.856298 
L 97.843221 237.028918 
L 98.1682 114.287753 
L 98.49318 114.238294 
L 98.818159 90.533449 
L 99.143139 241.076289 
L 99.468118 71.077677 
L 99.793098 87.750082 
L 100.118077 213.708983 
L 100.443057 170.149795 
L 100.768036 108.858835 
L 101.093016 138.930987 
L 101.417995 219.143314 
L 101.742975 224.98988 
L 102.067955 78.743831 
L 102.392934 210.531588 
L 102.717914 207.134006 
L 103.042893 68.321393 
L 103.367873 114.418091 
L 103.692852 115.9823 
L 104.017832 142.39716 
L 104.342811 123.508468 
L 104.667791 116.602991 
L 104.99277 39.476524 
L 105.31775 196.413685 
L 105.642729 198.185821 
L 105.967709 231.33748 
L 106.292688 104.713632 
L 106.617668 127.71244 
L 106.942647 219.955558 
L 107.267627 166.586444 
L 107.592606 205.749624 
L 107.917586 173.551446 
L 108.242566 42.966077 
L 108.567545 99.420952 
L 108.892525 241.798382 
L 109.217504 190.190843 
L 109.542484 241.210026 
L 109.867463 92.773581 
L 110.192443 144.488096 
L 110.517422 33.957891 
L 111.167381 134.271231 
L 111.492361 73.845344 
L 111.81734 94.894199 
L 112.14232 192.030614 
L 112.467299 131.670125 
L 112.792279 126.246728 
L 113.117258 148.320669 
L 113.442238 205.638078 
L 114.092197 184.177735 
L 114.417176 241.232444 
L 114.742156 50.197205 
L 115.067136 98.835819 
L 115.392115 98.093892 
L 115.717095 122.805672 
L 116.042074 98.158471 
L 116.367054 36.519136 
L 116.692033 162.241607 
L 117.017013 93.267222 
L 117.341992 167.642014 
L 117.666972 63.398351 
L 117.991951 62.61039 
L 118.316931 53.289681 
L 118.64191 242.24206 
L 118.96689 180.565562 
L 119.291869 215.175899 
L 119.616849 147.740308 
L 119.941828 139.004147 
L 120.266808 189.475327 
L 120.591787 90.966236 
L 120.916767 186.553892 
L 121.241747 63.482086 
L 121.566726 205.961128 
L 121.891706 166.018333 
L 122.216685 112.290461 
L 122.541665 115.851782 
L 122.866644 226.952775 
L 123.191624 65.090275 
L 123.516603 117.383567 
L 123.841583 60.117664 
L 124.166562 60.586245 
L 124.491542 128.370546 
L 124.816521 51.495602 
L 125.141501 64.637451 
L 125.46648 41.520964 
L 125.79146 64.196971 
L 126.116439 70.369201 
L 126.766398 198.719167 
L 127.091378 51.510925 
L 127.416357 91.155295 
L 127.741337 184.03015 
L 128.066317 171.546893 
L 128.391296 98.839502 
L 128.716276 142.7192 
L 129.041255 226.225149 
L 129.366235 213.590712 
L 129.691214 86.288335 
L 130.016194 174.165036 
L 130.341173 136.433707 
L 130.666153 81.869461 
L 130.991132 85.123839 
L 131.316112 208.203843 
L 131.641091 222.662013 
L 131.966071 118.840029 
L 132.29105 87.134448 
L 132.61603 211.991117 
L 132.941009 165.023852 
L 133.265989 60.029499 
L 133.590968 44.44959 
L 134.240928 226.639508 
L 134.565907 189.097674 
L 134.890887 194.307444 
L 135.215866 193.044577 
L 135.540846 139.334504 
L 135.865825 120.510137 
L 136.190805 217.580939 
L 136.515784 56.009848 
L 136.840764 112.767462 
L 137.165743 117.554905 
L 137.490723 35.377914 
L 137.815702 111.046047 
L 138.140682 47.665644 
L 138.465661 183.080101 
L 138.790641 192.798954 
L 139.11562 134.564994 
L 139.4406 136.231541 
L 139.765579 195.674072 
L 140.090559 95.978858 
L 140.415538 237.149445 
L 140.740518 97.880424 
L 141.065498 147.067834 
L 141.390477 98.222375 
L 141.715457 142.874415 
L 142.040436 37.473326 
L 142.365416 172.876544 
L 142.690395 36.36946 
L 143.015375 229.70344 
L 143.340354 99.327838 
L 143.665334 147.691214 
L 143.990313 70.172459 
L 144.315293 77.024604 
L 144.640272 74.792472 
L 144.965252 223.432161 
L 145.290231 70.124404 
L 145.615211 198.29586 
L 145.94019 237.982442 
L 146.26517 197.516589 
L 146.915129 87.033633 
L 147.240109 197.328278 
L 147.565088 219.582976 
L 147.890068 107.290763 
L 148.215047 36.090268 
L 148.540027 116.792488 
L 148.865006 97.79048 
L 149.189986 125.157702 
L 149.839945 37.795556 
L 150.164924 128.747577 
L 150.489904 155.577272 
L 150.814883 62.122745 
L 151.139863 39.075758 
L 151.464842 216.175167 
L 151.789822 121.575136 
L 152.114801 76.425402 
L 152.439781 131.020944 
L 152.76476 157.177197 
L 153.08974 105.339182 
L 153.414719 186.478383 
L 153.739699 169.832249 
L 154.064679 34.32493 
L 154.389658 109.292775 
L 154.714638 59.471303 
L 155.039617 73.199966 
L 155.364597 105.962265 
L 155.689576 66.255322 
L 156.014556 182.890155 
L 156.339535 109.155588 
L 156.664515 118.955659 
L 156.989494 112.252148 
L 157.314474 207.863169 
L 157.639453 184.979296 
L 157.964433 182.99554 
L 158.614392 38.481905 
L 158.939371 42.375417 
L 159.264351 195.525341 
L 159.58933 179.163636 
L 159.91431 235.795079 
L 160.564269 67.531075 
L 160.889249 50.448386 
L 161.214228 193.564413 
L 161.539208 187.391458 
L 161.864187 196.861095 
L 162.189167 169.627911 
L 162.514146 73.833973 
L 162.839126 107.103199 
L 163.164105 77.798942 
L 163.489085 120.551126 
L 163.814064 189.089958 
L 164.139044 195.35581 
L 164.464023 241.49675 
L 164.789003 78.843735 
L 165.113982 64.908526 
L 165.438962 81.51947 
L 165.763941 227.716979 
L 166.088921 82.79649 
L 166.4139 233.750161 
L 166.73888 221.145174 
L 167.06386 150.586978 
L 167.388839 143.071125 
L 167.713819 71.440632 
L 168.038798 100.219899 
L 168.363778 211.089286 
L 169.013737 183.202681 
L 169.338716 217.335889 
L 169.663696 182.787674 
L 169.988675 89.880804 
L 170.313655 192.530954 
L 170.638634 67.386638 
L 170.963614 144.468039 
L 171.288593 175.352046 
L 171.613573 156.498518 
L 171.938552 93.905386 
L 172.263532 134.50726 
L 172.588511 241.859576 
L 172.913491 49.063672 
L 173.238471 229.488097 
L 173.56345 45.629862 
L 173.88843 237.461485 
L 174.213409 80.95128 
L 174.538389 130.739602 
L 174.863368 136.838927 
L 175.188348 228.059055 
L 175.513327 193.090658 
L 175.838307 79.567436 
L 176.163286 55.608721 
L 176.488266 131.910232 
L 176.813245 168.945294 
L 177.138225 230.763394 
L 177.463204 99.661211 
L 177.788184 184.72571 
L 178.113163 231.802016 
L 178.438143 103.101194 
L 178.763122 141.054182 
L 179.088102 240.872787 
L 179.413081 220.021962 
L 179.738061 96.074457 
L 180.063041 229.977894 
L 180.38802 60.938636 
L 180.713 177.798112 
L 181.037979 224.711531 
L 181.362959 83.315696 
L 182.012918 178.785482 
L 182.337897 157.830064 
L 182.662877 238.881662 
L 182.987856 103.765557 
L 183.312836 166.326287 
L 183.637815 92.948654 
L 183.962795 111.040323 
L 184.287774 106.176831 
L 184.612754 76.33423 
L 185.262713 155.169488 
L 185.587692 161.237175 
L 185.912672 218.197746 
L 186.237652 79.167937 
L 186.562631 83.031033 
L 186.887611 191.4992 
L 187.21259 61.62996 
L 187.53757 119.292821 
L 187.862549 142.535994 
L 188.187529 239.706766 
L 188.837488 108.406709 
L 189.162467 224.483692 
L 189.487447 146.564393 
L 189.812426 34.080672 
L 190.137406 92.42169 
L 190.462385 128.169922 
L 190.787365 131.085527 
L 191.112344 234.172052 
L 191.437324 41.691312 
L 191.762303 47.8303 
L 192.087283 99.613555 
L 192.412262 222.531849 
L 192.737242 199.603491 
L 193.062222 204.644246 
L 193.387201 133.920308 
L 193.712181 199.609816 
L 194.03716 96.79111 
L 194.36214 128.515674 
L 194.687119 239.672659 
L 195.012099 86.623645 
L 195.337078 203.607792 
L 195.662058 69.593574 
L 195.987037 168.586681 
L 196.312017 172.047515 
L 196.636996 240.903298 
L 196.961976 35.283104 
L 197.286955 114.446597 
L 197.611935 154.325813 
L 197.936914 223.035463 
L 198.261894 96.085806 
L 198.586873 183.82312 
L 198.911853 35.166835 
L 199.236833 43.117105 
L 199.561812 88.469455 
L 199.886792 38.792671 
L 200.211771 221.136578 
L 200.536751 184.416251 
L 200.86173 190.035936 
L 201.18671 228.220415 
L 201.511689 38.549387 
L 201.836669 230.756888 
L 202.161648 62.89266 
L 202.486628 81.545001 
L 203.136587 239.430531 
L 203.461566 242.108778 
L 203.786546 200.412573 
L 204.111525 139.335584 
L 204.436505 146.913585 
L 204.761484 120.074645 
L 205.086464 80.744804 
L 205.411443 163.886238 
L 205.736423 209.605249 
L 206.061403 74.82645 
L 206.386382 173.296728 
L 206.711362 182.948432 
L 207.036341 82.35605 
L 207.361321 46.57418 
L 207.6863 50.614932 
L 208.01128 214.434657 
L 208.336259 137.379998 
L 208.661239 223.825807 
L 208.986218 40.919846 
L 209.311198 198.04561 
L 209.636177 201.795635 
L 209.961157 56.108945 
L 210.286136 39.4714 
L 210.611116 96.405179 
L 210.936095 217.897942 
L 211.586054 71.338138 
L 211.911034 122.774791 
L 212.236014 215.456018 
L 212.560993 207.177182 
L 212.885973 61.322394 
L 213.210952 132.350484 
L 213.535932 94.676525 
L 213.860911 164.790562 
L 214.185891 131.200841 
L 214.51087 37.521922 
L 214.83585 173.926211 
L 215.160829 101.218251 
L 215.485809 207.047013 
L 215.810788 217.743112 
L 216.135768 78.283712 
L 216.460747 65.543355 
L 216.785727 102.58289 
L 217.110706 210.062006 
L 217.435686 192.702356 
L 217.760665 51.412535 
L 218.085645 182.564513 
L 218.410624 70.862931 
L 218.735604 183.147457 
L 219.060584 45.452621 
L 219.385563 50.722043 
L 219.710543 234.277802 
L 220.035522 81.070397 
L 220.360502 207.688327 
L 220.685481 198.036395 
L 221.010461 146.50584 
L 221.33544 121.965516 
L 221.66042 174.748623 
L 221.985399 122.162471 
L 222.310379 207.436207 
L 222.635358 238.686715 
L 222.960338 123.038749 
L 223.285317 134.37609 
L 223.610297 98.08617 
L 223.935276 106.478573 
L 224.260256 54.296815 
L 224.910215 241.629747 
L 225.235195 110.517475 
L 225.560174 101.145792 
L 225.885154 133.51651 
L 226.210133 98.159723 
L 226.535113 175.215504 
L 226.860092 212.039918 
L 227.185072 103.37469 
L 227.510051 191.73348 
L 227.835031 147.249448 
L 228.16001 139.81046 
L 228.48499 142.849359 
L 228.809969 117.302615 
L 229.134949 237.187394 
L 229.459928 34.871508 
L 230.434867 203.080781 
L 230.759846 226.500157 
L 231.084826 101.76566 
L 231.409805 176.612036 
L 231.734785 195.043079 
L 232.059765 163.338478 
L 232.384744 118.46693 
L 232.709724 101.86789 
L 233.034703 107.458727 
L 233.359683 61.506983 
L 233.684662 197.301951 
L 234.009642 109.233606 
L 234.334621 222.088814 
L 234.659601 127.945784 
L 234.98458 120.355749 
L 235.30956 197.832932 
L 235.634539 160.865177 
L 235.959519 69.107337 
L 236.284498 212.124038 
L 236.609478 151.844657 
L 236.934457 46.870496 
L 237.259437 137.179674 
L 237.584416 90.610747 
L 237.909396 69.176203 
L 238.234376 200.458814 
L 238.559355 197.415768 
L 238.884335 83.561351 
L 239.209314 84.674817 
L 239.534294 230.712803 
L 239.859273 175.444229 
L 240.184253 159.424155 
L 240.509232 68.718074 
L 240.834212 154.508678 
L 241.159191 48.304106 
L 241.484171 33.412382 
L 241.80915 78.897667 
L 242.13413 102.98848 
L 242.784089 229.268248 
L 243.109068 122.6354 
L 243.434048 167.183561 
L 243.759027 169.460512 
L 244.084007 98.495912 
L 244.408986 145.706431 
L 244.733966 84.930368 
L 245.383925 211.606921 
L 245.708905 146.189309 
L 246.033884 43.019099 
L 246.358864 74.515524 
L 246.683843 200.042715 
L 247.008823 160.947902 
L 247.333802 47.911537 
L 247.658782 217.330323 
L 247.983761 189.886984 
L 248.308741 188.144026 
L 248.63372 123.100169 
L 248.9587 156.853495 
L 249.283679 226.564766 
L 249.608659 110.827456 
L 249.933638 222.517897 
L 250.258618 115.62426 
L 250.583597 136.568773 
L 250.908577 139.379392 
L 251.233557 229.172003 
L 251.558536 108.712285 
L 251.883516 152.51592 
L 252.208495 156.774947 
L 252.533475 117.723532 
L 252.858454 115.659419 
L 253.183434 240.22571 
L 253.833393 193.559833 
L 254.158372 100.546384 
L 254.483352 121.876397 
L 254.808331 83.764108 
L 255.133311 87.350425 
L 255.45829 63.631365 
L 255.78327 163.999962 
L 256.108249 170.689753 
L 256.433229 68.301951 
L 256.758208 193.331583 
L 257.083188 146.226213 
L 257.408167 202.449617 
L 257.733147 50.851024 
L 258.058127 157.470897 
L 258.383106 198.623124 
L 258.708086 97.589049 
L 259.033065 191.847625 
L 259.358045 44.601193 
L 259.683024 165.937907 
L 260.008004 103.35635 
L 260.332983 170.651604 
L 260.657963 73.310145 
L 260.982942 54.415571 
L 261.307922 77.382304 
L 261.632901 64.618232 
L 261.957881 221.927326 
L 262.28286 48.696887 
L 262.60784 111.855803 
L 262.932819 60.252934 
L 263.257799 99.185411 
L 263.582778 200.864762 
L 263.907758 114.96264 
L 264.232738 224.231194 
L 264.557717 96.807445 
L 265.207676 211.423661 
L 265.532656 37.073841 
L 265.857635 53.538723 
L 266.182615 55.127517 
L 266.832574 97.595848 
L 267.157553 105.370858 
L 267.482533 221.039663 
L 267.807512 53.647903 
L 268.132492 57.743369 
L 268.457471 85.823974 
L 268.782451 48.012068 
L 269.10743 126.860963 
L 269.43241 149.076932 
L 269.757389 39.450995 
L 270.082369 145.602804 
L 270.407348 108.268983 
L 270.732328 164.790642 
L 271.057308 109.322085 
L 271.382287 91.671539 
L 272.032246 134.977061 
L 272.357226 180.161163 
L 273.007185 51.991276 
L 273.332164 241.936706 
L 273.657144 215.174914 
L 273.982123 218.157492 
L 274.307103 48.877954 
L 274.632082 103.755201 
L 274.957062 42.855685 
L 275.282041 120.597023 
L 275.607021 146.108114 
L 275.932 76.450071 
L 276.25698 209.483346 
L 276.581959 163.046932 
L 276.906939 145.151273 
L 277.231919 180.509317 
L 277.556898 165.16495 
L 277.881878 226.936746 
L 278.531837 172.705508 
L 278.856816 75.702624 
L 279.181796 204.941786 
L 279.506775 170.35759 
L 279.831755 229.714745 
L 280.156734 126.013779 
L 280.481714 114.605345 
L 280.806693 61.032733 
L 281.131673 70.809102 
L 281.456652 183.265307 
L 281.781632 214.537632 
L 282.106611 210.507133 
L 282.431591 39.236814 
L 282.75657 101.547507 
L 283.08155 234.423684 
L 283.406529 214.574384 
L 283.731509 141.037269 
L 284.056489 199.604564 
L 284.381468 74.065825 
L 284.706448 122.61889 
L 285.031427 114.314308 
L 285.356407 145.877897 
L 285.681386 189.441883 
L 286.006366 119.208468 
L 286.331345 92.330794 
L 286.656325 165.236067 
L 286.981304 137.003806 
L 287.306284 66.475523 
L 287.631263 212.066579 
L 287.956243 128.516825 
L 288.281222 169.984177 
L 288.606202 95.317464 
L 288.931181 239.429924 
L 289.256161 102.12745 
L 289.58114 221.713068 
L 289.90612 229.746884 
L 290.2311 90.718288 
L 290.556079 108.475947 
L 290.881059 54.834183 
L 291.206038 133.904196 
L 291.531018 131.719396 
L 291.855997 94.42768 
L 292.505956 235.61587 
L 292.830936 194.923537 
L 293.155915 193.244803 
L 293.480895 172.671348 
L 293.805874 44.609804 
L 294.130854 73.816401 
L 294.455833 46.191387 
L 294.780813 32.990609 
L 295.105792 151.997873 
L 295.430772 195.549831 
L 296.080731 57.742101 
L 296.40571 145.26555 
L 296.73069 136.907798 
L 297.05567 215.067443 
L 297.380649 154.805077 
L 298.030608 169.293972 
L 298.355588 56.44332 
L 298.680567 230.898613 
L 299.005547 38.56612 
L 299.330526 241.655589 
L 299.655506 44.160753 
L 299.980485 127.922014 
L 300.305465 95.391105 
L 300.630444 203.965108 
L 300.955424 105.55373 
L 301.280403 57.568645 
L 301.605383 214.00532 
L 301.930362 216.617634 
L 302.255342 179.34638 
L 302.580321 209.31824 
L 302.905301 220.080575 
L 303.230281 100.474388 
L 303.55526 198.340852 
L 303.88024 102.856119 
L 304.205219 61.788547 
L 304.530199 106.014467 
L 304.855178 218.243053 
L 305.180158 122.542943 
L 305.505137 160.457365 
L 305.830117 171.046446 
L 306.155096 176.28001 
L 306.480076 47.565969 
L 306.805055 86.950177 
L 307.130035 215.19182 
L 307.455014 143.100945 
L 307.779994 176.344987 
L 308.104973 37.345955 
L 308.429953 37.326853 
L 308.754932 176.068682 
L 309.079912 169.204508 
L 309.404891 117.099281 
L 309.729871 142.405326 
L 310.054851 198.493763 
L 310.37983 104.247285 
L 310.70481 172.993756 
L 311.029789 105.658032 
L 311.354769 162.553187 
L 311.679748 95.862083 
L 312.004728 102.690813 
L 312.329707 136.188599 
L 312.654687 94.907612 
L 312.979666 146.269764 
L 313.304646 218.923341 
L 313.954605 191.563511 
L 314.279584 230.071107 
L 314.604564 93.508335 
L 315.254523 223.68822 
L 315.579502 70.63167 
L 315.904482 99.350276 
L 316.554441 191.261753 
L 316.879421 211.420981 
L 317.2044 146.815778 
L 317.52938 56.875862 
L 317.854359 203.699111 
L 318.504318 40.770245 
L 318.829298 109.155562 
L 319.154277 150.694568 
L 319.479257 92.456595 
L 319.804236 69.6583 
L 320.129216 118.97403 
L 320.454195 59.702002 
L 320.779175 134.970989 
L 321.104154 68.509781 
L 321.429134 42.806987 
L 321.754113 137.783414 
L 322.079093 115.922018 
L 322.404072 114.981088 
L 322.729052 78.748347 
L 323.054032 69.997957 
L 323.379011 237.656063 
L 323.703991 88.877597 
L 324.02897 78.246812 
L 324.35395 95.815826 
L 324.678929 93.020693 
L 325.003909 234.669762 
L 325.653868 71.006386 
L 325.978847 46.602055 
L 326.303827 195.045299 
L 326.628806 121.359389 
L 326.953786 73.924395 
L 327.278765 84.864252 
L 327.603745 112.995794 
L 327.928724 239.455009 
L 328.253704 90.873668 
L 328.578683 80.474441 
L 328.903663 91.092019 
L 329.228643 82.040613 
L 329.553622 152.601328 
L 329.878602 34.014051 
L 330.528561 121.467884 
L 330.85354 46.56326 
L 331.17852 52.039853 
L 331.503499 71.767542 
L 331.828479 124.625174 
L 332.153458 132.335344 
L 332.478438 174.135875 
L 332.803417 190.534296 
L 333.128397 135.441312 
L 333.453376 121.65714 
L 333.778356 191.872539 
L 334.103335 49.005226 
L 334.428315 125.978034 
L 334.753294 132.460854 
L 335.078274 151.606109 
L 335.403253 231.157797 
L 335.728233 57.475166 
L 336.053213 176.6039 
L 336.378192 108.029655 
L 336.703172 115.40964 
L 337.028151 120.244413 
L 337.353131 132.627962 
L 337.67811 205.164601 
L 338.00309 184.27079 
L 338.653049 77.082254 
L 338.978028 152.375025 
L 339.303008 200.427593 
L 339.627987 224.863663 
L 339.952967 103.699722 
L 340.602926 216.978075 
L 340.927905 101.28602 
L 341.252885 199.657253 
L 341.577864 136.145766 
L 341.902844 178.880729 
L 342.227824 47.090252 
L 342.552803 195.293889 
L 342.877783 154.918214 
L 343.202762 41.232173 
L 343.527742 176.239196 
L 343.852721 107.580278 
L 344.177701 176.660195 
L 344.50268 220.074438 
L 344.82766 111.171779 
L 345.152639 50.389434 
L 345.477619 148.039818 
L 345.802598 111.460577 
L 346.127578 115.101001 
L 346.452557 155.935625 
L 346.777537 113.837202 
L 347.102516 188.756004 
L 347.427496 163.742272 
L 347.752475 150.198565 
L 348.077455 61.350415 
L 348.402434 170.000984 
L 348.727414 109.572639 
L 349.052394 198.429929 
L 349.377373 190.177852 
L 349.702353 106.772111 
L 350.027332 82.777885 
L 350.352312 146.027148 
L 350.677291 172.789159 
L 351.002271 51.603036 
L 351.32725 214.779062 
L 351.65223 91.54191 
L 351.977209 97.977286 
L 352.302189 97.961607 
L 352.627168 46.304278 
L 352.952148 89.966737 
L 353.277127 179.854729 
L 353.927086 160.987835 
L 354.252066 236.901909 
L 354.577045 50.920644 
L 354.902025 227.895955 
L 355.227005 95.949651 
L 355.551984 89.551519 
L 355.876964 65.626192 
L 356.201943 126.80222 
L 356.526923 90.583206 
L 356.851902 179.610799 
L 357.176882 86.301961 
L 357.501861 171.037007 
L 357.826841 53.169152 
L 358.15182 208.969346 
L 358.801779 138.304678 
L 359.126759 79.924936 
L 359.451738 85.624555 
L 359.776718 198.99606 
L 360.101697 213.003345 
L 360.751656 141.468334 
L 361.076636 129.82722 
L 361.401615 152.975798 
L 361.726595 103.683053 
L 362.051575 153.308412 
L 362.376554 44.005893 
L 362.701534 188.408196 
L 363.026513 111.208674 
L 363.351493 114.578576 
L 363.676472 184.066631 
L 364.001452 156.652427 
L 364.326431 166.38951 
L 364.651411 207.048382 
L 364.97639 142.829204 
L 365.30137 161.925161 
L 365.626349 205.822492 
L 365.951329 148.605456 
L 366.276308 154.512531 
L 366.601288 215.715 
L 366.926267 215.752533 
L 367.251247 106.966266 
L 367.576226 94.519761 
L 367.901206 45.090677 
L 368.226186 225.061661 
L 368.551165 218.560272 
L 368.876145 232.475311 
L 369.201124 131.255022 
L 369.526104 112.183248 
L 369.851083 158.372582 
L 370.176063 75.278749 
L 370.501042 98.708676 
L 370.826022 35.681016 
L 371.151001 214.339305 
L 371.475981 231.10631 
L 371.80096 185.493253 
L 372.12594 239.379367 
L 372.450919 46.896125 
L 372.775899 179.351911 
L 373.100878 126.998607 
L 373.425858 176.377317 
L 374.075817 211.290596 
L 374.400796 175.8935 
L 375.050756 38.676942 
L 375.375735 125.805676 
L 375.700715 131.153754 
L 376.025694 235.963399 
L 376.350674 66.388074 
L 376.675653 233.945282 
L 377.000633 52.454094 
L 377.650592 207.898002 
L 377.975571 148.220442 
L 378.300551 33.754404 
L 378.62553 179.113573 
L 378.95051 186.619197 
L 379.275489 218.529847 
L 379.600469 117.577951 
L 379.925448 224.593431 
L 380.250428 81.998705 
L 380.575407 49.716899 
L 380.900387 47.052107 
L 381.225367 220.655689 
L 381.550346 125.76974 
L 381.875326 222.932548 
L 382.200305 122.87193 
L 382.525285 71.680415 
L 382.850264 130.08319 
L 383.175244 59.65534 
L 383.500223 74.483978 
L 383.825203 185.125665 
L 384.150182 110.633441 
L 384.475162 241.831456 
L 384.800141 159.948908 
L 385.125121 193.256021 
L 385.4501 45.946959 
L 385.77508 157.979517 
L 386.100059 105.584725 
L 386.425039 89.167926 
L 386.750018 80.480754 
L 387.074998 88.368635 
L 387.399977 182.46738 
L 387.724957 98.84178 
L 388.049937 127.71933 
L 388.374916 117.529425 
L 388.699896 243.221522 
L 389.024875 188.979443 
L 389.349855 47.30229 
L 389.674834 182.275432 
L 389.999814 151.105258 
L 390.324793 204.06179 
L 390.649773 214.190224 
L 390.649773 214.190224 
" style="fill:none;stroke:#1f77b4;stroke-linecap:round;stroke-width:1.5;"/>
   </g>
   <g id="line2d_13">
    <path clip-path="url(#pdc0acbc601)" d="M 65.995227 138.128204 
L 66.320207 99.871302 
L 66.645186 185.123309 
L 66.970166 63.339049 
L 67.295145 165.874012 
L 67.620125 196.39961 
L 67.945104 130.715303 
L 68.270084 103.776131 
L 68.595063 148.120908 
L 68.920043 130.077366 
L 69.245023 167.468339 
L 69.570002 149.813699 
L 69.894982 61.717117 
L 70.219961 154.602743 
L 70.544941 200.891406 
L 70.86992 86.8405 
L 71.1949 165.403841 
L 71.519879 51.137067 
L 71.844859 196.825483 
L 72.169838 128.637113 
L 72.494818 177.33187 
L 72.819797 187.892402 
L 73.144777 82.707531 
L 73.469756 156.814411 
L 73.794736 67.086136 
L 74.119715 149.523254 
L 74.444695 200.763713 
L 74.769674 114.572657 
L 75.094654 136.177479 
L 75.419633 96.217265 
L 75.744613 122.582912 
L 76.069593 216.533752 
L 76.394572 107.415056 
L 76.719552 166.751829 
L 77.044531 153.513725 
L 77.369511 56.371594 
L 77.69449 169.41665 
L 78.01947 107.383586 
L 78.669429 202.44962 
L 78.994408 127.174446 
L 79.319388 100.283627 
L 79.644367 143.664393 
L 79.969347 149.715637 
L 80.294326 61.476925 
L 80.619306 232.651277 
L 80.944285 185.756245 
L 81.269265 88.335161 
L 81.594244 72.997439 
L 81.919224 180.516404 
L 82.244204 74.870736 
L 82.569183 213.331095 
L 82.894163 203.08157 
L 83.219142 65.557259 
L 83.544122 42.795246 
L 83.869101 171.093702 
L 84.194081 193.441041 
L 84.51906 184.939772 
L 84.84404 157.785562 
L 85.169019 66.834698 
L 85.493999 133.615627 
L 85.818978 155.49343 
L 86.143958 135.170654 
L 86.468937 74.185671 
L 86.793917 244.46739 
L 87.118896 118.377523 
L 87.443876 68.787834 
L 87.768855 214.613183 
L 88.093835 74.501761 
L 88.418814 92.612391 
L 88.743794 226.433974 
L 89.068774 176.185375 
L 89.393753 98.673254 
L 89.718733 123.702173 
L 90.043712 120.298671 
L 90.368692 182.813957 
L 90.693671 88.034856 
L 91.018651 171.19466 
L 91.34363 140.954896 
L 91.66861 139.04507 
L 91.993589 66.158585 
L 92.318569 178.236582 
L 92.643548 146.132838 
L 92.968528 146.28451 
L 93.293507 173.594747 
L 93.618487 168.074845 
L 93.943466 101.621971 
L 94.268446 88.675994 
L 94.593425 109.515259 
L 94.918405 148.825333 
L 95.243385 238.059142 
L 95.568364 49.933869 
L 95.893344 221.208698 
L 96.218323 118.999376 
L 96.543303 65.036531 
L 96.868282 100.21782 
L 97.193262 187.382812 
L 97.518241 156.616267 
L 97.843221 215.376672 
L 98.1682 98.970745 
L 98.49318 107.524838 
L 98.818159 90.066621 
L 99.143139 243.755894 
L 99.468118 74.065227 
L 99.793098 87.296746 
L 100.118077 206.752813 
L 100.443057 156.119074 
L 100.768036 87.807125 
L 101.093016 110.379061 
L 101.417995 184.581978 
L 101.742975 189.124403 
L 102.067955 46.913735 
L 102.392934 187.045192 
L 102.717914 195.739267 
L 103.042893 70.602238 
L 103.367873 127.8874 
L 103.692852 135.950041 
L 104.017832 164.808562 
L 104.342811 145.017833 
L 104.667791 132.738875 
L 104.99277 44.287218 
L 105.31775 185.859997 
L 105.642729 174.037054 
L 105.967709 199.918797 
L 106.292688 71.396834 
L 106.617668 94.101878 
L 106.942647 186.603452 
L 107.267627 136.07047 
L 107.592606 181.728773 
L 107.917586 157.063556 
L 108.242566 29.416265 
L 108.567545 80.864572 
L 108.892525 214.567083 
L 109.217504 159.694634 
L 109.542484 218.715692 
L 109.867463 88.142427 
L 110.192443 160.932873 
L 110.517422 67.310227 
L 111.167381 175.716271 
L 111.492361 108.18752 
L 111.81734 117.373575 
L 112.14232 200.558273 
L 112.467299 126.463948 
L 112.792279 107.759203 
L 113.117258 117.041146 
L 113.442238 164.5784 
L 113.767217 152.564032 
L 114.092197 147.586157 
L 114.417176 221.232335 
L 114.742156 51.416655 
L 115.067136 119.038017 
L 115.392115 131.080321 
L 115.717095 162.658355 
L 116.042074 140.39518 
L 116.367054 77.539423 
L 116.692033 200.155246 
L 117.017013 128.894362 
L 117.341992 202.718143 
L 117.666972 96.669515 
L 117.991951 87.630555 
L 118.316931 61.507101 
L 118.64191 229.883207 
L 118.96689 152.210072 
L 119.291869 180.484703 
L 119.616849 115.62494 
L 119.941828 114.396725 
L 120.266808 173.437817 
L 120.591787 81.84696 
L 120.916767 180.952153 
L 121.241747 57.674961 
L 121.566726 198.059344 
L 122.216685 105.268459 
L 122.541665 113.752906 
L 122.866644 233.866333 
L 123.191624 85.291085 
L 123.516603 152.562515 
L 123.841583 108.589499 
L 124.166562 119.126774 
L 124.491542 194.3432 
L 124.816521 122.926623 
L 125.141501 138.294055 
L 125.46648 111.903632 
L 125.79146 124.881573 
L 126.116439 116.736978 
L 126.766398 219.771393 
L 127.091378 65.385948 
L 127.416357 97.943554 
L 127.741337 182.420105 
L 128.066317 161.594434 
L 128.391296 81.182025 
L 128.716276 118.225443 
L 129.041255 198.463618 
L 129.366235 189.164417 
L 129.691214 70.782473 
L 130.016194 168.910523 
L 130.341173 138.669887 
L 130.666153 85.665006 
L 130.991132 83.650151 
L 131.316112 198.616047 
L 131.641091 208.57834 
L 131.966071 106.507097 
L 132.29105 80.661975 
L 132.61603 213.36024 
L 132.941009 174.777371 
L 133.265989 74.218887 
L 133.590968 53.251072 
L 134.240928 201.121674 
L 134.565907 149.873594 
L 134.890887 150.659068 
L 135.215866 154.093731 
L 135.540846 111.548858 
L 135.865825 107.458008 
L 136.190805 221.283085 
L 136.515784 76.957294 
L 136.840764 148.619672 
L 137.165743 163.104222 
L 137.490723 83.132995 
L 137.815702 152.05748 
L 138.140682 74.051661 
L 138.465661 191.515419 
L 138.790641 185.86481 
L 139.11562 117.962167 
L 139.4406 115.063425 
L 139.765579 173.689175 
L 140.090559 76.566212 
L 140.415538 223.986435 
L 140.740518 94.366558 
L 141.065498 154.683045 
L 141.390477 115.80785 
L 141.715457 167.176148 
L 142.040436 63.901957 
L 142.365416 197.013511 
L 142.690395 56.158117 
L 143.015375 246.923685 
L 143.340354 118.631957 
L 143.665334 172.794493 
L 143.990313 100.083956 
L 144.315293 105.431256 
L 144.640272 93.21853 
L 144.965252 225.746352 
L 145.290231 54.436735 
L 145.615211 166.861043 
L 145.94019 197.43422 
L 146.590149 108.087707 
L 146.915129 61.05287 
L 147.240109 180.616833 
L 147.565088 215.529221 
L 147.890068 119.416315 
L 148.215047 63.490042 
L 148.540027 154.591045 
L 148.865006 141.320594 
L 149.189986 171.86246 
L 149.839945 84.126625 
L 150.164924 171.055829 
L 150.489904 193.486985 
L 150.814883 95.634192 
L 151.139863 66.673179 
L 151.464842 236.903436 
L 151.789822 136.693288 
L 152.114801 87.078617 
L 152.439781 137.002965 
L 152.76476 159.108823 
L 153.08974 106.438498 
L 153.414719 192.568125 
L 153.739699 187.543588 
L 154.064679 67.20846 
L 154.389658 155.394622 
L 154.714638 112.764119 
L 155.039617 126.287275 
L 155.364597 152.152146 
L 155.689576 101.063724 
L 156.014556 204.808129 
L 156.339535 118.861899 
L 156.664515 117.428649 
L 156.989494 100.82237 
L 157.314474 190.775032 
L 157.639453 170.302918 
L 157.964433 179.094168 
L 158.614392 55.891823 
L 158.939371 55.834264 
L 159.264351 196.328887 
L 159.58933 167.886922 
L 159.91431 220.723701 
L 160.564269 63.459163 
L 160.889249 46.876504 
L 161.214228 184.481004 
L 161.539208 173.392955 
L 161.864187 184.844957 
L 162.189167 166.965942 
L 162.514146 82.4792 
L 162.839126 121.833412 
L 163.164105 89.386752 
L 163.489085 121.358375 
L 163.814064 177.962838 
L 164.139044 178.856323 
L 164.464023 229.678798 
L 164.789003 77.519667 
L 165.113982 70.705845 
L 165.438962 84.981896 
L 165.763941 220.926713 
L 166.088921 63.732735 
L 166.4139 206.41382 
L 166.73888 193.755823 
L 167.06386 130.994975 
L 167.388839 133.180815 
L 167.713819 65.461985 
L 168.038798 88.475654 
L 168.363778 186.830535 
L 169.013737 140.927351 
L 169.338716 177.73269 
L 169.663696 153.05858 
L 169.988675 72.92002 
L 170.313655 186.483035 
L 170.638634 67.516616 
L 170.963614 145.717184 
L 171.288593 174.868336 
L 171.613573 153.909611 
L 171.938552 89.138027 
L 172.263532 127.299404 
L 172.588511 233.3304 
L 172.913491 41.266416 
L 173.238471 223.425223 
L 173.56345 40.873358 
L 173.88843 232.97001 
L 174.213409 75.307915 
L 174.538389 122.158508 
L 174.863368 125.064859 
L 175.188348 216.868945 
L 175.513327 188.49278 
L 175.838307 83.643235 
L 176.163286 63.031205 
L 176.488266 133.845567 
L 176.813245 159.876317 
L 177.138225 210.935459 
L 177.463204 72.130634 
L 177.788184 152.338216 
L 178.113163 196.81553 
L 178.438143 66.533198 
L 178.763122 102.434088 
L 179.088102 201.129339 
L 179.413081 183.083443 
L 179.738061 65.831682 
L 180.063041 207.304353 
L 180.38802 43.77168 
L 180.713 163.148016 
L 181.037979 210.753542 
L 181.362959 68.674028 
L 182.012918 156.059452 
L 182.337897 132.399884 
L 182.662877 216.790122 
L 182.987856 91.74625 
L 183.312836 168.315331 
L 183.637815 108.710619 
L 183.962795 136.653772 
L 184.287774 135.255704 
L 184.612754 101.62169 
L 184.937733 126.111837 
L 185.262713 159.815224 
L 185.587692 158.935613 
L 185.912672 216.311512 
L 186.237652 83.201887 
L 186.562631 93.169563 
L 186.887611 203.81929 
L 187.21259 70.495448 
L 187.53757 118.793914 
L 187.862549 129.527606 
L 188.187529 216.875526 
L 188.512508 137.290317 
L 188.837488 87.930408 
L 189.162467 215.035025 
L 189.487447 151.538446 
L 189.812426 51.679808 
L 190.137406 115.975767 
L 190.462385 151.288543 
L 190.787365 152.087012 
L 191.112344 255.212429 
L 191.437324 63.09267 
L 191.762303 63.642623 
L 192.087283 100.977204 
L 192.412262 205.588611 
L 192.737242 168.774188 
L 193.062222 168.880092 
L 193.387201 101.087101 
L 193.712181 173.55505 
L 194.03716 77.193459 
L 194.36214 112.808566 
L 194.687119 226.086334 
L 195.012099 74.967945 
L 195.337078 193.383266 
L 195.662058 58.980033 
L 195.987037 155.899369 
L 196.312017 158.239387 
L 196.636996 229.361155 
L 196.961976 27.720952 
L 197.286955 108.942639 
L 197.611935 149.573093 
L 197.936914 222.731029 
L 198.261894 107.254613 
L 198.586873 211.519042 
L 198.911853 78.021154 
L 199.236833 92.042668 
L 199.561812 129.884147 
L 199.886792 60.777949 
L 200.211771 219.242948 
L 200.536751 163.799967 
L 200.86173 162.14792 
L 201.18671 204.50982 
L 201.511689 25.09434 
L 201.836669 226.507833 
L 202.161648 60.909881 
L 202.486628 71.557605 
L 203.136587 197.285894 
L 203.461566 193.072087 
L 204.111525 109.114535 
L 204.436505 131.820454 
L 204.761484 115.890269 
L 205.086464 80.607157 
L 205.411443 162.65841 
L 205.736423 206.908834 
L 206.061403 73.848669 
L 206.386382 178.14328 
L 206.711362 197.145772 
L 207.036341 105.986888 
L 207.361321 73.402803 
L 207.6863 70.780948 
L 208.01128 221.613821 
L 208.336259 132.853849 
L 208.661239 213.997357 
L 208.986218 32.475298 
L 209.311198 196.233233 
L 209.636177 210.752842 
L 209.961157 76.278063 
L 210.286136 64.889049 
L 210.611116 118.423067 
L 210.936095 231.847796 
L 211.586054 70.739409 
L 211.911034 115.804096 
L 212.236014 205.193495 
L 212.560993 200.085496 
L 212.885973 62.573317 
L 213.210952 142.248201 
L 213.535932 110.312157 
L 213.860911 183.167866 
L 214.185891 149.604147 
L 214.51087 52.13046 
L 214.83585 180.69353 
L 215.160829 99.131789 
L 215.485809 200.021637 
L 215.810788 212.684676 
L 216.135768 79.528605 
L 216.460747 70.895017 
L 216.785727 106.551428 
L 217.110706 210.725728 
L 217.435686 193.600361 
L 217.760665 57.260447 
L 218.085645 195.610064 
L 218.410624 90.959927 
L 218.735604 208.205828 
L 219.060584 70.545617 
L 219.385563 68.634879 
L 219.710543 239.383503 
L 220.035522 72.412484 
L 220.360502 188.415453 
L 220.685481 173.407429 
L 221.010461 120.932252 
L 221.33544 96.360036 
L 221.66042 147.287165 
L 221.985399 91.546838 
L 222.310379 175.975499 
L 222.635358 212.933757 
L 222.960338 110.19528 
L 223.285317 137.361193 
L 223.610297 113.936463 
L 223.935276 127.987851 
L 224.260256 73.141006 
L 224.910215 246.387538 
L 225.235195 113.549821 
L 225.560174 104.613254 
L 225.885154 135.168141 
L 226.210133 94.071728 
L 226.535113 163.424743 
L 226.860092 194.227826 
L 227.185072 83.268365 
L 227.510051 172.762348 
L 227.835031 131.941061 
L 228.16001 129.650465 
L 228.48499 138.125845 
L 228.809969 117.775061 
L 229.134949 242.265693 
L 229.459928 41.491263 
L 230.109887 143.251022 
L 230.434867 179.706623 
L 230.759846 195.092181 
L 231.084826 68.670796 
L 231.409805 146.96185 
L 231.734785 173.591782 
L 232.059765 154.554964 
L 232.384744 123.954385 
L 232.709724 118.422527 
L 233.034703 127.868154 
L 233.359683 77.43592 
L 233.684662 202.983058 
L 234.009642 103.681031 
L 234.334621 208.319924 
L 234.659601 110.236618 
L 234.98458 101.99141 
L 235.30956 181.34207 
L 235.634539 148.837038 
L 235.959519 63.56271 
L 236.284498 214.731066 
L 236.609478 164.225459 
L 236.934457 68.283618 
L 237.259437 163.012536 
L 237.584416 114.175928 
L 237.909396 84.52089 
L 238.234376 205.262555 
L 238.559355 193.738309 
L 238.884335 74.228222 
L 239.209314 70.748 
L 239.534294 214.672546 
L 239.859273 164.206068 
L 240.184253 161.49843 
L 240.509232 89.29211 
L 240.834212 193.414445 
L 241.159191 99.898054 
L 241.484171 87.053887 
L 241.80915 122.026844 
L 242.13413 126.463003 
L 242.459109 162.92607 
L 242.784089 215.793096 
L 243.109068 102.837685 
L 243.434048 149.052166 
L 243.759027 157.618842 
L 244.084007 93.789558 
L 244.408986 145.683826 
L 244.733966 86.046056 
L 245.383925 215.01315 
L 245.708905 155.841171 
L 246.033884 58.313382 
L 246.358864 89.701431 
L 246.683843 209.264125 
L 247.008823 161.39724 
L 247.333802 38.183016 
L 247.658782 197.016876 
L 247.983761 161.532701 
L 248.308741 156.242412 
L 248.63372 90.723564 
L 248.9587 124.987044 
L 249.283679 196.132714 
L 249.608659 83.491674 
L 249.933638 199.648514 
L 250.258618 97.212426 
L 250.583597 120.903252 
L 250.908577 124.553443 
L 251.233557 215.106187 
L 251.558536 96.305727 
L 251.883516 141.112208 
L 252.208495 143.47104 
L 252.533475 98.366989 
L 252.858454 87.150279 
L 253.183434 204.423075 
L 253.508413 182.389174 
L 253.833393 171.144316 
L 254.158372 97.518229 
L 254.483352 138.453744 
L 254.808331 114.187841 
L 255.133311 122.531306 
L 255.45829 94.357557 
L 255.78327 184.46394 
L 256.108249 179.832249 
L 256.433229 67.74893 
L 256.758208 185.621017 
L 257.083188 135.041182 
L 257.408167 191.641579 
L 257.733147 41.984387 
L 258.058127 149.992006 
L 258.383106 192.78553 
L 258.708086 95.375009 
L 259.033065 195.111787 
L 259.358045 53.745938 
L 259.683024 180.672512 
L 260.008004 124.51621 
L 260.332983 200.378262 
L 260.657963 112.500944 
L 260.982942 100.243448 
L 261.307922 124.215327 
L 261.632901 107.943739 
L 261.957881 261.216 
L 262.28286 85.547545 
L 262.60784 145.511934 
L 262.932819 86.202627 
L 263.257799 112.228733 
L 263.582778 199.301159 
L 263.907758 102.213885 
L 264.232738 207.29936 
L 264.557717 83.745594 
L 265.207676 227.657602 
L 265.532656 73.369941 
L 265.857635 105.141083 
L 266.182615 112.165024 
L 266.507594 130.007044 
L 266.832574 140.987352 
L 267.157553 140.495524 
L 267.482533 254.454301 
L 267.807512 92.422979 
L 268.132492 103.950261 
L 268.457471 135.912626 
L 268.782451 96.386963 
L 269.10743 169.558293 
L 269.43241 185.096213 
L 269.757389 69.198397 
L 270.082369 169.52261 
L 270.407348 127.710627 
L 270.732328 182.414898 
L 271.057308 127.29789 
L 271.382287 109.614784 
L 272.032246 144.779559 
L 272.357226 183.171345 
L 273.007185 37.045366 
L 273.332164 218.850327 
L 273.657144 192.728306 
L 273.982123 208.472565 
L 274.307103 59.025573 
L 274.632082 131.304968 
L 274.957062 78.376547 
L 275.282041 153.33574 
L 275.607021 168.143626 
L 275.932 83.670477 
L 276.25698 201.275912 
L 276.581959 141.563887 
L 276.906939 113.289116 
L 277.231919 140.536525 
L 277.556898 119.61033 
L 277.881878 179.84334 
L 278.531837 135.117266 
L 278.856816 43.30327 
L 279.181796 175.568244 
L 279.506775 145.16139 
L 279.831755 213.748202 
L 280.156734 123.919645 
L 280.481714 125.587431 
L 280.806693 77.575601 
L 281.131673 82.610932 
L 281.456652 183.954301 
L 281.781632 205.416253 
L 282.106611 196.967107 
L 282.431591 23.474989 
L 282.75657 80.855556 
L 283.08155 207.250415 
L 283.406529 185.19056 
L 283.731509 116.868422 
L 284.056489 186.039503 
L 284.381468 71.600518 
L 284.706448 127.149301 
L 285.031427 120.359047 
L 285.356407 150.385207 
L 285.681386 193.035695 
L 286.006366 123.978324 
L 286.331345 98.865259 
L 286.656325 172.338835 
L 286.981304 142.746788 
L 287.306284 68.375951 
L 287.631263 208.006695 
L 287.956243 117.916409 
L 288.281222 152.907372 
L 288.606202 71.554834 
L 288.931181 209.786927 
L 289.256161 69.992751 
L 289.58114 193.47574 
L 289.90612 213.576931 
L 290.2311 92.23735 
L 290.556079 126.168107 
L 290.881059 80.297293 
L 291.206038 156.216571 
L 291.531018 141.49318 
L 291.855997 85.729988 
L 292.505956 195.40315 
L 292.830936 155.322994 
L 293.155915 168.766679 
L 293.480895 173.742948 
L 293.805874 73.242266 
L 294.130854 122.715224 
L 294.780813 82.97178 
L 295.105792 188.296955 
L 295.430772 218.463143 
L 296.080731 63.791453 
L 296.40571 142.068639 
L 296.73069 123.454127 
L 297.05567 194.05447 
L 297.380649 131.834436 
L 298.030608 156.850172 
L 298.355588 51.292476 
L 298.680567 232.019828 
L 299.005547 45.273815 
L 299.330526 253.818774 
L 299.655506 60.882872 
L 299.980485 146.23614 
L 300.305465 111.22637 
L 300.630444 214.096711 
L 300.955424 106.84844 
L 301.280403 45.426469 
L 301.605383 184.960406 
L 301.930362 172.598536 
L 302.255342 127.591622 
L 302.905301 180.467642 
L 303.230281 76.968259 
L 303.55526 191.878338 
L 303.88024 109.547749 
L 304.205219 73.557956 
L 304.530199 113.928686 
L 304.855178 217.683085 
L 305.180158 114.718724 
L 305.505137 149.785143 
L 306.155096 173.78231 
L 306.480076 50.684104 
L 306.805055 92.203071 
L 307.130035 221.014504 
L 307.455014 152.546088 
L 307.779994 193.2897 
L 308.104973 60.732814 
L 308.429953 60.212578 
L 308.754932 191.04899 
L 309.079912 173.689828 
L 309.404891 112.794209 
L 309.729871 132.615692 
L 310.054851 187.328181 
L 310.37983 95.980435 
L 310.70481 170.804409 
L 311.029789 111.144812 
L 311.354769 175.65009 
L 311.679748 114.234664 
L 312.004728 121.303731 
L 312.329707 148.154953 
L 312.654687 93.298954 
L 312.979666 126.574559 
L 313.304646 181.79896 
L 313.629625 156.786711 
L 313.954605 141.39897 
L 314.279584 186.272377 
L 314.604564 60.640317 
L 315.254523 212.501632 
L 315.579502 66.006691 
L 315.904482 94.890753 
L 316.554441 174.854633 
L 316.879421 194.117814 
L 317.2044 135.346626 
L 317.52938 55.024193 
L 317.854359 212.444241 
L 318.504318 68.461915 
L 318.829298 141.936697 
L 319.154277 186.60175 
L 319.479257 131.666005 
L 319.804236 112.410774 
L 320.129216 164.639978 
L 320.454195 107.394879 
L 320.779175 183.838856 
L 321.104154 117.077197 
L 321.429134 88.470061 
L 321.754113 178.27388 
L 322.079093 151.107864 
L 322.404072 145.949772 
L 322.729052 105.700432 
L 323.054032 92.635924 
L 323.379011 257.541959 
L 323.703991 108.821918 
L 324.02897 98.446508 
L 324.35395 113.031459 
L 324.678929 104.682588 
L 325.003909 242.959974 
L 325.653868 87.813872 
L 325.978847 68.267041 
L 326.303827 218.777811 
L 326.953786 97.47164 
L 327.278765 104.594405 
L 327.603745 127.686471 
L 327.928724 252.741115 
L 328.253704 109.092959 
L 328.578683 107.463679 
L 328.903663 126.615965 
L 329.228643 124.509973 
L 329.553622 201.420274 
L 329.878602 89.056394 
L 330.528561 184.957727 
L 330.85354 109.857678 
L 331.17852 109.083233 
L 331.503499 115.187483 
L 331.828479 149.296769 
L 332.153458 138.013884 
L 332.478438 165.739038 
L 332.803417 176.237083 
L 333.128397 123.16327 
L 333.453376 116.18121 
L 333.778356 194.178072 
L 334.103335 56.375655 
L 334.428315 133.084046 
L 334.753294 134.820244 
L 335.078274 148.953176 
L 335.403253 227.309284 
L 335.728233 56.726638 
L 336.053213 180.462617 
L 336.378192 114.918184 
L 336.703172 121.673295 
L 337.028151 121.626059 
L 337.353131 126.778764 
L 337.67811 193.612692 
L 338.00309 171.24188 
L 338.653049 64.290233 
L 338.978028 134.432131 
L 339.303008 175.881358 
L 339.627987 196.453304 
L 339.952967 74.908778 
L 340.602926 191.5202 
L 340.927905 79.224741 
L 341.252885 182.496077 
L 341.577864 125.427054 
L 341.902844 175.385849 
L 342.227824 49.677478 
L 342.552803 201.698633 
L 342.877783 163.022233 
L 343.202762 48.217973 
L 343.527742 178.61934 
L 343.852721 103.952599 
L 344.50268 216.456738 
L 344.82766 116.14283 
L 345.152639 64.028464 
L 345.477619 165.679074 
L 345.802598 127.621839 
L 346.127578 125.792866 
L 346.452557 159.253424 
L 346.777537 110.302796 
L 347.102516 181.316496 
L 347.427496 156.679499 
L 347.752475 146.312953 
L 348.077455 59.600655 
L 348.402434 166.814721 
L 348.727414 102.628226 
L 349.052394 189.147059 
L 349.377373 182.899577 
L 349.702353 104.974701 
L 350.027332 86.239558 
L 350.352312 152.617573 
L 350.677291 181.771342 
L 351.002271 64.210571 
L 351.32725 233.44818 
L 351.65223 118.699593 
L 351.977209 133.380193 
L 352.302189 136.781523 
L 352.627168 79.943183 
L 352.952148 109.473728 
L 353.277127 180.718055 
L 353.602107 153.518699 
L 353.927086 136.936263 
L 354.252066 213.705694 
L 354.577045 36.597291 
L 354.902025 227.331236 
L 355.227005 110.645859 
L 355.551984 116.794515 
L 355.876964 98.852084 
L 356.201943 158.761324 
L 356.526923 116.53009 
L 356.851902 198.191955 
L 357.176882 98.269723 
L 357.501861 177.291523 
L 357.826841 54.161892 
L 358.15182 206.16203 
L 358.801779 136.977975 
L 359.126759 78.222421 
L 359.451738 77.589051 
L 359.776718 180.897152 
L 360.101697 187.596557 
L 360.751656 123.001457 
L 361.076636 121.71296 
L 361.401615 155.548762 
L 361.726595 115.215887 
L 362.051575 170.394349 
L 362.376554 61.893703 
L 362.701534 202.340032 
L 363.026513 117.685382 
L 363.351493 111.300347 
L 363.676472 170.111859 
L 364.001452 133.083054 
L 364.326431 135.772473 
L 364.651411 172.374669 
L 364.97639 106.352438 
L 365.30137 124.58549 
L 365.626349 168.125677 
L 365.951329 111.508035 
L 366.276308 119.750567 
L 366.601288 186.661472 
L 366.926267 196.667808 
L 367.251247 98.683553 
L 367.576226 90.84225 
L 367.901206 35.515617 
L 368.226186 202.886809 
L 368.551165 186.848852 
L 368.876145 201.929169 
L 369.201124 112.638007 
L 369.526104 110.589336 
L 369.851083 172.374363 
L 370.176063 98.098975 
L 370.501042 119.420295 
L 370.826022 42.548808 
L 371.151001 201.019295 
L 371.475981 200.800584 
L 371.80096 148.291744 
L 372.12594 205.115669 
L 372.450919 19.296 
L 372.775899 155.491492 
L 373.100878 101.767802 
L 373.425858 147.373105 
L 373.750837 161.424161 
L 374.075817 186.754112 
L 374.400796 163.995157 
L 374.725776 116.325599 
L 375.050756 50.272181 
L 375.375735 137.214199 
L 375.700715 136.115905 
L 376.025694 234.36665 
L 376.350674 61.965131 
L 376.675653 230.291711 
L 377.000633 50.704266 
L 377.650592 206.32062 
L 377.975571 145.086125 
L 378.300551 26.07276 
L 378.62553 163.209798 
L 378.95051 163.145585 
L 379.275489 193.954334 
L 379.600469 100.55696 
L 379.925448 221.573883 
L 380.250428 93.722797 
L 380.575407 69.425255 
L 380.900387 64.02597 
L 381.225367 228.146577 
L 381.550346 125.624169 
L 381.875326 223.235686 
L 382.200305 131.857289 
L 382.525285 92.367389 
L 382.850264 158.836041 
L 383.175244 88.192977 
L 383.500223 93.316101 
L 383.825203 187.907197 
L 384.150182 97.376876 
L 384.475162 219.032644 
L 384.800141 137.972489 
L 385.125121 181.693636 
L 385.4501 49.505672 
L 385.77508 176.185718 
L 386.100059 135.092503 
L 386.750018 116.128438 
L 387.074998 117.894322 
L 387.399977 202.554293 
L 387.724957 108.768045 
L 388.049937 127.608275 
L 388.374916 108.45126 
L 388.699896 228.785595 
L 389.024875 173.662544 
L 389.349855 31.416765 
L 389.674834 160.376632 
L 389.999814 115.775566 
L 390.324793 149.637682 
L 390.649773 137.928887 
L 390.649773 137.928887 
" style="fill:none;stroke:#ff7f0e;stroke-linecap:round;stroke-width:1.5;"/>
   </g>
   <g id="patch_3">
    <path d="M 49.7625 273.312 
L 49.7625 7.2 
" style="fill:none;stroke:#262626;stroke-linecap:square;stroke-linejoin:miter;stroke-width:1.25;"/>
   </g>
   <g id="patch_4">
    <path d="M 49.7625 273.312 
L 406.8825 273.312 
" style="fill:none;stroke:#262626;stroke-linecap:square;stroke-linejoin:miter;stroke-width:1.25;"/>
   </g>
   <g id="legend_1">
    <g id="line2d_14">
     <path d="M 281.91375 244.415125 
L 301.91375 244.415125 
" style="fill:none;stroke:#1f77b4;stroke-linecap:round;stroke-width:1.5;"/>
    </g>
    <g id="line2d_15"/>
    <g id="text_14">
     <!-- raw -->
     <defs>
      <path d="M 57.328125 0 
L 47.125 0 
L 38.671875 34.078125 
Q 38.28125 35.40625 37.859375 37.359375 
Q 37.453125 39.3125 37.0625 41.15625 
Q 36.578125 43.3125 36.140625 45.609375 
Q 35.6875 43.40625 35.203125 41.265625 
Q 34.8125 39.40625 34.34375 37.40625 
Q 33.890625 35.40625 33.5 33.890625 
L 24.8125 0 
L 14.65625 0 
L -0.140625 52.828125 
L 8.546875 52.828125 
L 17.484375 16.9375 
Q 17.828125 15.828125 18.15625 14.1875 
Q 18.5 12.546875 18.84375 10.984375 
Q 19.1875 9.1875 19.578125 7.28125 
Q 19.96875 9.125 20.40625 10.890625 
Q 20.796875 12.40625 21.1875 13.96875 
Q 21.578125 15.53125 21.875 16.546875 
L 31.453125 52.828125 
L 40.875 52.828125 
L 50.09375 16.546875 
Q 50.4375 15.28125 50.828125 13.671875 
Q 51.21875 12.0625 51.5625 10.640625 
Q 51.953125 8.984375 52.34375 7.28125 
Q 52.734375 9.125 53.125 10.890625 
Q 53.46875 12.40625 53.828125 14.03125 
Q 54.203125 15.671875 54.546875 16.9375 
L 63.875 52.828125 
L 72.46875 52.828125 
z
" id="LiberationSans-119"/>
     </defs>
     <g style="fill:#262626;" transform="translate(309.91375 247.915125)scale(0.1 -0.1)">
      <use xlink:href="#LiberationSans-114"/>
      <use x="33.300781" xlink:href="#LiberationSans-97"/>
      <use x="88.916016" xlink:href="#LiberationSans-119"/>
     </g>
    </g>
    <g id="line2d_16">
     <path d="M 281.91375 258.737 
L 301.91375 258.737 
" style="fill:none;stroke:#ff7f0e;stroke-linecap:round;stroke-width:1.5;"/>
    </g>
    <g id="line2d_17"/>
    <g id="text_15">
     <!-- high-pass @ 100Hz -->
     <defs>
      <path d="M 15.484375 43.796875 
Q 16.9375 46.484375 18.640625 48.359375 
Q 20.359375 50.25 22.40625 51.46875 
Q 24.46875 52.6875 26.90625 53.25 
Q 29.34375 53.8125 32.375 53.8125 
Q 37.453125 53.8125 40.703125 52.4375 
Q 43.953125 51.078125 45.828125 48.609375 
Q 47.703125 46.140625 48.40625 42.71875 
Q 49.125 39.3125 49.125 35.203125 
L 49.125 0 
L 40.28125 0 
L 40.28125 33.5 
Q 40.28125 36.859375 39.859375 39.390625 
Q 39.453125 41.9375 38.28125 43.625 
Q 37.109375 45.3125 34.953125 46.15625 
Q 32.8125 47.015625 29.390625 47.015625 
Q 26.265625 47.015625 23.75 45.890625 
Q 21.234375 44.78125 19.453125 42.71875 
Q 17.671875 40.671875 16.6875 37.734375 
Q 15.71875 34.8125 15.71875 31.15625 
L 15.71875 0 
L 6.9375 0 
L 6.9375 72.46875 
L 15.71875 72.46875 
L 15.71875 53.609375 
Q 15.71875 52 15.671875 50.390625 
Q 15.625 48.78125 15.546875 47.40625 
Q 15.484375 46.046875 15.421875 45.09375 
Q 15.375 44.140625 15.328125 43.796875 
z
" id="LiberationSans-104"/>
      <path d="M 4.4375 22.65625 
L 4.4375 30.46875 
L 28.859375 30.46875 
L 28.859375 22.65625 
z
" id="LiberationSans-45"/>
      <path d="M 51.421875 26.65625 
Q 51.421875 20.65625 50.4375 15.578125 
Q 49.46875 10.5 47.1875 6.828125 
Q 44.921875 3.171875 41.1875 1.09375 
Q 37.453125 -0.984375 31.984375 -0.984375 
Q 26.3125 -0.984375 22.0625 1.171875 
Q 17.828125 3.328125 15.578125 8.203125 
L 15.328125 8.203125 
Q 15.375 8.109375 15.40625 7.328125 
Q 15.4375 6.546875 15.453125 5.375 
Q 15.484375 4.203125 15.5 2.75 
Q 15.53125 1.3125 15.53125 -0.09375 
L 15.53125 -20.75 
L 6.734375 -20.75 
L 6.734375 42.046875 
Q 6.734375 43.953125 6.703125 45.703125 
Q 6.6875 47.46875 6.640625 48.90625 
Q 6.59375 50.34375 6.546875 51.359375 
Q 6.5 52.390625 6.453125 52.828125 
L 14.9375 52.828125 
Q 14.984375 52.6875 15.0625 51.796875 
Q 15.140625 50.921875 15.203125 49.671875 
Q 15.28125 48.4375 15.359375 47.015625 
Q 15.4375 45.609375 15.4375 44.34375 
L 15.625 44.34375 
Q 16.84375 46.875 18.40625 48.65625 
Q 19.96875 50.4375 21.96875 51.578125 
Q 23.96875 52.734375 26.4375 53.25 
Q 28.90625 53.765625 31.984375 53.765625 
Q 37.453125 53.765625 41.1875 51.8125 
Q 44.921875 49.859375 47.1875 46.3125 
Q 49.46875 42.78125 50.4375 37.765625 
Q 51.421875 32.765625 51.421875 26.65625 
z
M 42.1875 26.46875 
Q 42.1875 31.34375 41.59375 35.15625 
Q 41.015625 38.96875 39.578125 41.59375 
Q 38.140625 44.234375 35.734375 45.59375 
Q 33.34375 46.96875 29.734375 46.96875 
Q 26.8125 46.96875 24.21875 46.140625 
Q 21.625 45.3125 19.703125 42.96875 
Q 17.78125 40.625 16.65625 36.5 
Q 15.53125 32.375 15.53125 25.78125 
Q 15.53125 20.171875 16.453125 16.28125 
Q 17.390625 12.40625 19.171875 10.015625 
Q 20.953125 7.625 23.578125 6.5625 
Q 26.21875 5.515625 29.640625 5.515625 
Q 33.296875 5.515625 35.71875 6.921875 
Q 38.140625 8.34375 39.578125 11.03125 
Q 41.015625 13.71875 41.59375 17.59375 
Q 42.1875 21.484375 42.1875 26.46875 
z
" id="LiberationSans-112"/>
      <path id="LiberationSans-32"/>
      <path d="M 92.875 36.859375 
Q 92.875 29.828125 91.234375 24 
Q 89.59375 18.171875 86.71875 13.96875 
Q 83.84375 9.765625 79.8125 7.421875 
Q 75.78125 5.078125 71.046875 5.078125 
Q 68.3125 5.078125 66.375 5.734375 
Q 64.453125 6.390625 63.234375 7.53125 
Q 62.015625 8.6875 61.46875 10.25 
Q 60.9375 11.8125 60.9375 13.671875 
Q 60.9375 14.40625 60.984375 15.453125 
Q 61.03125 16.5 61.078125 17.09375 
L 60.796875 17.09375 
Q 59.625 14.890625 57.9375 12.71875 
Q 56.25 10.546875 53.96875 8.859375 
Q 51.703125 7.171875 48.84375 6.125 
Q 46 5.078125 42.53125 5.078125 
Q 38.421875 5.078125 35.375 6.484375 
Q 32.328125 7.90625 30.34375 10.421875 
Q 28.375 12.9375 27.390625 16.375 
Q 26.421875 19.828125 26.421875 23.875 
Q 26.421875 29.734375 28.15625 35.125 
Q 29.890625 40.53125 33.109375 44.65625 
Q 36.328125 48.78125 40.84375 51.265625 
Q 45.359375 53.765625 50.921875 53.765625 
Q 53.859375 53.765625 56.203125 53.09375 
Q 58.546875 52.4375 60.328125 51.265625 
Q 62.109375 50.09375 63.421875 48.453125 
Q 64.75 46.828125 65.625 44.875 
L 65.921875 44.875 
L 67.828125 52.6875 
L 75.4375 52.6875 
L 69.78125 27.984375 
Q 68.84375 23.875 68.40625 20.9375 
Q 67.96875 18.015625 67.96875 15.625 
Q 67.96875 13.28125 69.015625 12.15625 
Q 70.0625 11.03125 71.921875 11.03125 
Q 74.953125 11.03125 77.5625 13 
Q 80.171875 14.984375 82.09375 18.453125 
Q 84.03125 21.921875 85.125 26.609375 
Q 86.234375 31.296875 86.234375 36.765625 
Q 86.234375 43.0625 84.203125 48.484375 
Q 82.171875 53.90625 78.234375 57.859375 
Q 74.3125 61.8125 68.5 64.0625 
Q 62.703125 66.3125 55.078125 66.3125 
Q 48.53125 66.3125 42.984375 64.75 
Q 37.453125 63.1875 32.953125 60.34375 
Q 28.46875 57.515625 25.078125 53.578125 
Q 21.6875 49.65625 19.390625 44.96875 
Q 17.09375 40.28125 15.921875 34.9375 
Q 14.75 29.59375 14.75 23.96875 
Q 14.75 17.09375 16.84375 11.28125 
Q 18.953125 5.46875 22.96875 1.296875 
Q 27 -2.875 32.9375 -5.21875 
Q 38.875 -7.5625 46.578125 -7.5625 
Q 51.703125 -7.5625 56.140625 -6.75 
Q 60.59375 -5.953125 64.296875 -4.78125 
Q 68.015625 -3.609375 70.9375 -2.21875 
Q 73.875 -0.828125 76.03125 0.34375 
L 78.71875 -5.125 
Q 76.265625 -6.59375 72.96875 -8.125 
Q 69.671875 -9.671875 65.625 -10.9375 
Q 61.578125 -12.203125 56.78125 -13 
Q 52 -13.8125 46.578125 -13.8125 
Q 37.3125 -13.8125 30.109375 -11 
Q 22.90625 -8.203125 17.9375 -3.171875 
Q 12.984375 1.859375 10.421875 8.78125 
Q 7.859375 15.71875 7.859375 23.96875 
Q 7.859375 30.765625 9.390625 37.015625 
Q 10.9375 43.265625 13.8125 48.625 
Q 16.703125 54 20.84375 58.390625 
Q 25 62.796875 30.25 65.921875 
Q 35.5 69.046875 41.71875 70.75 
Q 47.953125 72.46875 54.984375 72.46875 
Q 64.796875 72.46875 71.921875 69.578125 
Q 79.046875 66.703125 83.703125 61.8125 
Q 88.375 56.9375 90.625 50.484375 
Q 92.875 44.046875 92.875 36.859375 
z
M 63.28125 36.46875 
Q 63.28125 38.921875 62.453125 40.96875 
Q 61.625 43.015625 60.078125 44.484375 
Q 58.546875 45.953125 56.375 46.75 
Q 54.203125 47.5625 51.46875 47.5625 
Q 47.265625 47.5625 44.09375 45.484375 
Q 40.921875 43.40625 38.796875 40.03125 
Q 36.671875 36.671875 35.5625 32.4375 
Q 34.46875 28.21875 34.46875 23.96875 
Q 34.46875 18.109375 36.78125 14.78125 
Q 39.109375 11.46875 43.953125 11.46875 
Q 47.3125 11.46875 50.234375 12.984375 
Q 53.171875 14.5 55.515625 16.984375 
Q 57.859375 19.484375 59.5625 22.703125 
Q 61.28125 25.921875 62.15625 29.390625 
Q 62.59375 31.15625 62.9375 33.109375 
Q 63.28125 35.0625 63.28125 36.46875 
z
" id="LiberationSans-64"/>
      <path d="M 54.734375 0 
L 54.734375 31.890625 
L 17.53125 31.890625 
L 17.53125 0 
L 8.203125 0 
L 8.203125 68.796875 
L 17.53125 68.796875 
L 17.53125 39.703125 
L 54.734375 39.703125 
L 54.734375 68.796875 
L 64.0625 68.796875 
L 64.0625 0 
z
" id="LiberationSans-72"/>
      <path d="M 2.390625 0 
L 2.390625 6.6875 
L 34.671875 46.046875 
L 4.34375 46.046875 
L 4.34375 52.828125 
L 44.578125 52.828125 
L 44.578125 46.140625 
L 12.25 6.78125 
L 46.390625 6.78125 
L 46.390625 0 
z
" id="LiberationSans-122"/>
     </defs>
     <g style="fill:#262626;" transform="translate(309.91375 262.237)scale(0.1 -0.1)">
      <use xlink:href="#LiberationSans-104"/>
      <use x="55.615234" xlink:href="#LiberationSans-105"/>
      <use x="77.832031" xlink:href="#LiberationSans-103"/>
      <use x="133.447266" xlink:href="#LiberationSans-104"/>
      <use x="189.0625" xlink:href="#LiberationSans-45"/>
      <use x="222.363281" xlink:href="#LiberationSans-112"/>
      <use x="277.978516" xlink:href="#LiberationSans-97"/>
      <use x="333.59375" xlink:href="#LiberationSans-115"/>
      <use x="383.59375" xlink:href="#LiberationSans-115"/>
      <use x="433.59375" xlink:href="#LiberationSans-32"/>
      <use x="461.376953" xlink:href="#LiberationSans-64"/>
      <use x="562.890625" xlink:href="#LiberationSans-32"/>
      <use x="590.673828" xlink:href="#LiberationSans-49"/>
      <use x="646.289062" xlink:href="#LiberationSans-48"/>
      <use x="701.904297" xlink:href="#LiberationSans-48"/>
      <use x="757.519531" xlink:href="#LiberationSans-72"/>
      <use x="829.736328" xlink:href="#LiberationSans-122"/>
     </g>
    </g>
   </g>
  </g>
 </g>
 <defs>
  <clipPath id="pdc0acbc601">
   <rect height="266.112" width="357.12" x="49.7625" y="7.2"/>
  </clipPath>
 </defs>
</svg>
